<?xml version="1.0" encoding="utf-8"?>
<!-- Generator: Adobe Illustrator 16.0.2, SVG Export Plug-In . SVG Version: 6.00 Build 0)  -->
<!DOCTYPE svg PUBLIC "-//W3C//DTD SVG 1.1//EN" "http://www.w3.org/Graphics/SVG/1.1/DTD/svg11.dtd">
<svg version="1.1" id="Layer_1" xmlns="http://www.w3.org/2000/svg" xmlns:xlink="http://www.w3.org/1999/xlink" x="0px" y="0px"
	 width="105px" height="105px" viewBox="0 0 105 105" enable-background="new 0 0 105 105" xml:space="preserve">
<path fill="#2CB0CF" d="M16.475,20.156c4.828-5.078,9.674-8.307,10.828-7.211c1.153,1.097-1.826,6.102-6.652,11.181
	c-4.826,5.079-9.674,8.307-10.828,7.211C8.669,30.24,11.648,25.235,16.475,20.156"/>
<path fill="#808080" d="M16.475,20.156c4.828-5.078,10.307-8.04,9.006-7.123c-1.714,1.206-3.424,2.607-8.532,7.584
	c-5.019,4.89-7.621,11.053-7.314,9.686C9.982,28.744,11.648,25.235,16.475,20.156"/>
<path fill="#808080" d="M91.838,64.934c-3.354,4.616-7.212,9.196-11.275,13.486c-1.38,12.476-1.593,14.395-0.509,15.53
	c-2.294,1.764-4.494,3.169-6.416,4.06l0.048-0.021l0.816-0.388c1.802-0.884,3.836-2.205,5.952-3.835
	c-1.086-0.81-0.797-3.289,0.59-15.206c3.967-4.199,7.729-8.678,11.008-13.188c7.096-9.769,10.337-17.529,9.591-21.622l-0.138-0.72
	C102.313,47.141,99.046,55.011,91.838,64.934"/>
<path fill="#808080" d="M92.641,66.658c-3.052,4.2-6.537,8.371-10.214,12.301c-1.689,12.849-1.791,13.617-0.84,14.221
	c-1.599,1.248-3.151,2.308-4.579,3.11l0.791-0.452c1.304-0.763,2.706-1.732,4.146-2.861c-0.948-0.299-0.771-1.586,0.925-13.887
	c3.581-3.842,6.976-7.911,9.953-12.008c6.636-9.137,9.765-16.445,9.267-20.457l-0.068-0.534l-0.028-0.198
	C102.557,49.926,99.398,57.354,92.641,66.658"/>
<path fill="#808080" d="M93.319,68.335c-2.754,3.791-5.878,7.557-9.177,11.129c-1.855,11.998-1.855,11.998-1.459,12.842
	c0.081,0.01,0.189,0.023,0.271,0.032c-0.804,0.64-1.596,1.224-2.363,1.742L81,93.802l0.616-0.435
	c0.542-0.387,1.095-0.806,1.653-1.25c-0.056,0.013-0.13,0.029-0.187,0.041c-0.491-0.504-0.491-0.504,1.464-12.571
	c3.206-3.484,6.242-7.15,8.922-10.841c6.138-8.448,9.137-15.262,8.902-19.173l-0.055-0.736
	C102.615,52.776,99.581,59.715,93.319,68.335"/>
<path fill="#808080" d="M85.703,79.949c-2.006,11.163-2.006,11.163-1.835,11.601c0.063-0.018,0.147-0.04,0.211-0.058l0.22-0.18
	c-0.062,0-0.141,0-0.201,0c-0.066-0.5-0.066-0.5,1.97-11.246c2.843-3.131,5.534-6.406,7.928-9.702
	c5.637-7.758,8.492-14.07,8.481-17.845l-0.011-0.733c0.064,3.813-2.828,10.249-8.59,18.181
	C91.41,73.359,88.636,76.731,85.703,79.949"/>
<path fill="#808080" d="M87.1,80.408c-2.165,10.316-2.165,10.316-2.158,10.368l0.21-0.179c-0.051-0.237-0.057-0.261,0.525-2.613
	c0.924-3.736,1.132-4.676,1.745-7.463c2.496-2.784,4.856-5.68,6.974-8.593c5.111-7.036,7.807-12.814,8.012-16.428l0.035-0.77
	c-0.144,3.655-2.881,9.578-8.136,16.812C92.121,74.55,89.68,77.539,87.1,80.408"/>
<path fill="#808080" d="M19.862,18.777c-0.094,0.023-0.274,0.097-0.534,0.219c-0.292,0.134-0.615,0.301-0.806,0.405
	c-0.276,0.138-0.549,0.282-0.819,0.428c0.267-0.143,0.538-0.282,0.812-0.417C19.829,18.834,19.848,18.802,19.862,18.777"/>
<path fill="#808080" d="M19.935,18.649c-0.099,0.03-0.286,0.115-0.553,0.251c-0.302,0.153-0.636,0.336-0.831,0.451
	c-0.287,0.155-0.569,0.314-0.848,0.478c0.276-0.159,0.557-0.314,0.839-0.466C19.907,18.699,19.918,18.679,19.935,18.649"/>
<path fill="#808080" d="M20,18.526c-0.13,0.046-0.383,0.18-0.571,0.282c-0.308,0.167-0.65,0.37-0.854,0.495
	c-0.294,0.171-0.584,0.346-0.872,0.526c0.286-0.175,0.575-0.348,0.866-0.514C19.977,18.57,19.983,18.557,20,18.526"/>
<path fill="#808080" d="M20.057,18.407c-0.136,0.057-0.394,0.201-0.587,0.314c-0.317,0.183-0.667,0.401-0.873,0.536
	c-0.301,0.187-0.6,0.377-0.896,0.572c0.293-0.191,0.591-0.377,0.889-0.56C20.039,18.446,20.042,18.441,20.057,18.407"/>
<path fill="#808080" d="M20.107,18.294c-0.142,0.064-0.405,0.221-0.601,0.342c-0.321,0.198-0.678,0.433-0.89,0.578l-0.915,0.616
	c0.301-0.207,0.604-0.408,0.91-0.606C20.094,18.328,20.094,18.328,20.107,18.294"/>
<path fill="#808080" d="M72.9,11.305c-0.419-0.097-0.609-0.068-0.66,0.101c0.086,0.53,1.329,1.038,1.729,0.961
	c0.263-0.052,0.309-0.339-0.435-0.794c0.068-1.689-0.277-3.019-1.041-3.935c1.131,0.32,2.61,0.851,3.686,1.324l-0.703-0.368
	c-1.067-0.455-2.538-0.954-3.659-1.259C72.608,8.248,72.969,9.588,72.9,11.305"/>
<path fill="#808080" d="M76.18,8.962L76.18,8.962z"/>
<path fill="#808080" d="M75.428,12.428c-0.41-0.119-0.598-0.097-0.646,0.076c0.081,0.557,1.286,1.117,1.688,1.056
	c0.259-0.04,0.305-0.332-0.421-0.83c0.063-1.579-0.228-2.85-0.876-3.771c1.448,0.394,1.448,0.394,3.773,1.6l-0.684-0.416
	c-1.144-0.682-1.144-0.682-3.751-1.531C75.187,9.535,75.491,10.821,75.428,12.428"/>
<path fill="#808080" d="M77.892,13.684c-0.4-0.138-0.582-0.124-0.632,0.049c0.078,0.561,1.265,1.199,1.646,1.152
	c0.251-0.031,0.297-0.328-0.408-0.865c0.057-1.459-0.182-2.66-0.72-3.569c1.554,0.514,1.554,0.514,3.852,1.898l-0.665-0.467
	c-1.223-0.827-1.271-0.846-3.83-1.82C77.699,10.976,77.95,12.194,77.892,13.684"/>
<path fill="#808080" d="M25.345,11.005c-0.136,0.085-0.275,0.175-0.419,0.268L25.345,11.005z"/>
<path fill="#808080" d="M13.809,21.246l-0.177,0.215c-0.001,0.001-0.001,0.003-0.001,0.004c0.566-0.155,1.979-0.748,4.071-1.635
	C14.173,21.268,13.909,21.251,13.809,21.246"/>
<path fill="#808080" d="M14.495,20.556c0.006-0.046,0.017-0.106,0.023-0.153l-0.178,0.208c-0.001,0.003-0.004,0.006-0.007,0.009
	c0.007,0.033,0.019,0.077,0.026,0.11c0.679-0.035,1.202-0.191,3.345-0.901C15.236,20.621,14.842,20.587,14.495,20.556"/>
<path fill="#808080" d="M17.703,19.83c-0.16-0.017-0.299-0.031-0.423-0.043C17.398,19.801,17.531,19.814,17.703,19.83"/>
<path fill="#808080" d="M29.795,8.759L29.795,8.759c-1.529,0.512-2.334,0.954-3.938,1.918l-0.512,0.328
	c2.012-1.27,3.069-1.636,3.929-1.935c0.85-0.256,1.535-0.317,2.057-0.201c-6.188,4.121-10.845,8.403-13.627,10.96
	c6.529-5.995,10.47-8.751,14.256-11.272C31.415,8.429,30.694,8.488,29.795,8.759"/>
<path fill="#808080" d="M27.73,10.06c-1.633,0.494-3.713,1.73-5.913,3.431l-0.204,0.158c-0.359,0.28-0.83,0.666-1.184,0.953
	c3.824-3.164,5.907-3.886,6.796-4.196c0.663-0.2,1.208-0.259,1.635-0.192c-5.034,3.731-8.573,7.132-11.158,9.615
	c5.744-5.514,8.942-7.878,11.765-9.966C29.017,9.786,28.438,9.846,27.73,10.06"/>
<path fill="#808080" d="M25.738,11.502c-2.802,0.845-7.193,4.339-10.773,8.411c-0.02,0.038-0.023,0.096-0.033,0.137
	c0.38,0.271,0.8,0.21,2.771-0.22c-1.812,0.377-2.123,0.299-2.551,0.189c-0.017-0.066-0.039-0.155-0.056-0.221
	c3.382-3.833,7.514-7.115,10.156-7.912c0.493-0.149,0.908-0.203,1.24-0.17c-3.629,2.986-5.837,5.151-8.789,8.114
	c3.867-3.878,5.93-5.684,9.371-8.504C26.717,11.285,26.271,11.34,25.738,11.502"/>
<path fill="#808080" d="M23.813,13.092L23.813,13.092c-2.297,0.789-5.249,3.075-8.311,6.435c0.201,0.462,0.828,0.413,2.201,0.303
	c-1.609,0.123-1.759-0.041-2.06-0.368c2.585-2.892,5.698-5.346,7.702-5.95c0.343-0.104,0.636-0.147,0.88-0.137
	c-2.792,2.544-4.357,4.185-6.522,6.455c3.299-3.458,4.562-4.602,7.077-6.883C24.515,12.931,24.192,12.977,23.813,13.092"/>
<path fill="#808080" d="M22.607,14.715c-0.18-0.002-0.391,0.033-0.637,0.106c-1.533,0.463-3.902,2.321-5.892,4.524
	c0.292,0.305,0.423,0.356,1.201,0.441c-0.485-0.061-0.602-0.137-1.05-0.453c1.79-1.976,3.916-3.641,5.293-4.056
	c0.26-0.074,0.3-0.077,0.56-0.097c-1.705,1.718-1.907,1.939-4.38,4.65C19.865,17.459,20.283,17.04,22.607,14.715"/>
<path fill="#808080" d="M20.211,16.695c-0.433,0.138-1.642,0.673-3.518,2.679c0.267,0.197,0.696,0.346,1.009,0.456
	c-0.271-0.085-0.601-0.278-0.848-0.415c0.493-0.535,1.765-1.82,2.928-2.225c0.106-0.032,0.2-0.05,0.283-0.054
	c-0.72,0.799-1.657,1.883-2.363,2.693c0.846-0.971,1.994-2.245,2.857-3.199C20.459,16.634,20.343,16.655,20.211,16.695"/>
<path fill="#808080" d="M18.539,18.716c-0.31,0.094-0.784,0.46-1.192,0.899l0.356,0.214l-0.188-0.12
	c0.237-0.249,0.446-0.406,0.621-0.468c0.017-0.003,0.038-0.008,0.055-0.011l-0.488,0.598l0.942-1.135
	C18.614,18.696,18.579,18.703,18.539,18.716"/>
<path fill="#808080" d="M93.962,32.094c-2.593-0.945-3.346-1.138-6.706-1.725c-0.318-0.318-0.645-0.635-0.975-0.948
	c-13.387-12.721-32.426-18.658-49.044-16.68c-2.95,1.083-3.08,1.131-9.867,3.673c-0.468,0.822-1.048,1.715-1.741,2.668
	c-1.931,2.659-4.377,5.285-6.839,7.341c-0.079-0.051-0.184-0.117-0.262-0.167c-0.219,0.722,0.077,1.05,0.254,1.248
	c0.115-0.153,0.185-0.421,0.174-0.611c2.544-2.234,5.11-4.989,7.139-7.78c0.709-0.977,1.308-1.897,1.794-2.745
	c7.451-2.719,7.451-2.719,9.531-3.469c16.5-1.756,35.371,4.273,48.687,16.926c0.402,0.382,0.796,0.766,1.181,1.153
	c3.446,0.474,5.262,1.146,7.019,1.795c0.931-3.382,0.868-5.97-0.202-7.572l-0.417-0.613C94.779,26.169,94.865,28.735,93.962,32.094"
	/>
<path fill="#808080" d="M95.279,34.83c-2.824-1.199-4.246-1.45-7.945-1.995c-0.575-0.596-1.171-1.186-1.784-1.77
	C72.445,18.613,54.081,12.319,37.944,13.418c-2.831,0.957-5.657,1.929-8.486,2.892c-0.534,0.912-1.181,1.897-1.937,2.939
	c-3.598,4.952-8.683,9.804-12.849,12.363c-0.045-0.097-0.106-0.225-0.15-0.322c-0.007,0.007-0.59,0.848-0.097,1.668
	c0.087-0.194,0.173-0.467,0.217-0.674c4.33-2.777,9.619-7.825,13.362-12.978c0.769-1.059,1.427-2.061,1.975-2.991
	c2.711-0.9,5.421-1.806,8.132-2.708c16.01-0.885,34.206,5.497,47.239,17.881c0.686,0.651,1.347,1.311,1.984,1.976
	c4.453,0.586,5.458,0.938,8.253,2.063c1.037-3.463,1.072-6.135,0.089-7.817l-0.379-0.638C96.302,28.734,96.292,31.386,95.279,34.83"
	/>
<path fill="#808080" d="M96.438,37.611c-2.997-1.484-5.852-1.829-9.154-2.228c-0.819-0.876-1.678-1.742-2.575-2.596
	c-12.818-12.18-30.503-18.815-46.128-18.567c-4.455,1.391-4.455,1.391-7.036,2.188c-0.583,0.975-1.272,2.014-2.068,3.11
	c-2.682,3.694-6.078,7.338-9.553,10.156c-0.096-0.02-0.222-0.049-0.317-0.07c-0.265,0.583-0.024,0.98,0.222,1.309
	c0.099-0.012,0.231-0.026,0.33-0.036c0.05-0.184,0.073-0.443,0.053-0.632c3.479-3.055,6.991-6.824,9.764-10.643
	c0.801-1.103,1.499-2.151,2.091-3.136c1.95-0.587,2.762-0.834,6.659-2.025c15.495-0.042,33.009,6.675,45.757,18.788
	c0.971,0.923,1.895,1.858,2.774,2.806c5.122,0.481,6.926,1.178,9.446,2.276c1.14-3.53,1.271-6.275,0.379-8.032l-0.337-0.648
	C97.661,31.369,97.555,34.096,96.438,37.611"/>
<path fill="#808080" d="M97.437,40.415c-3.13-1.517-5.426-1.951-10.323-2.412c-1.049-1.157-2.167-2.3-3.35-3.425
	c-12.533-11.909-29.54-18.861-44.635-19.43c-1.646,0.472-3.844,1.097-5.493,1.563c-0.616,1.003-1.329,2.068-2.137,3.181
	c-4.736,6.52-11.428,12.904-16.926,16.304c-0.079-0.091-0.183-0.214-0.261-0.307c-0.245,0.232-0.319,0.75-0.22,1.539
	c0.094,0.059,0.219,0.137,0.313,0.196c0.093-0.208,0.178-0.504,0.213-0.729c5.635-3.615,12.522-10.186,17.394-16.893
	c0.81-1.113,1.525-2.178,2.145-3.186c1.529-0.422,3.569-0.99,5.097-1.417c14.958,0.767,31.794,7.795,44.257,19.637
	c1.255,1.192,2.435,2.404,3.538,3.631c5.37,0.453,7.353,0.911,10.612,2.451c1.233-3.57,1.462-6.367,0.672-8.189l-0.297-0.668
	C98.853,34.068,98.648,36.854,97.437,40.415"/>
<path fill="#808080" d="M98.28,43.24c-3.552-2.016-7.577-2.287-11.469-2.551c-1.266-1.434-2.633-2.852-4.101-4.245
	c-12.25-11.642-28.579-18.886-43.122-20.239c-1.162,0.305-2.713,0.705-3.875,1.005c-0.629,1.004-1.344,2.059-2.141,3.158
	c-3.393,4.671-7.688,9.28-12.156,12.829c-0.1,0.004-0.233,0.009-0.333,0.013c-0.005,0.008-0.5,0.823,0.387,1.467
	c0.096-0.035,0.223-0.083,0.319-0.119c0.06-0.206,0.089-0.497,0.062-0.71c4.365-3.831,8.767-8.557,12.247-13.346
	c0.791-1.089,1.501-2.137,2.131-3.137c1.039-0.259,2.421-0.612,3.458-0.875c14.403,1.542,30.563,8.857,42.742,20.43
	c1.539,1.462,2.968,2.948,4.286,4.449c7.433,0.364,9.529,1.439,11.748,2.579c1.317-3.591,1.642-6.427,0.955-8.306l-0.256-0.68
	C99.878,36.827,99.577,39.653,98.28,43.24"/>
<path fill="#808080" d="M98.969,46.065c-3.313-1.835-5.78-2.354-12.576-2.637c-1.474-1.704-3.086-3.394-4.837-5.059
	c-11.966-11.371-27.622-18.884-41.6-20.981l-2.181,0.517c-0.622,0.972-1.315,1.985-2.078,3.034
	c-5.804,7.99-14.007,15.817-20.801,19.915c-0.096-0.055-0.225-0.129-0.322-0.185c-0.006,0.006-0.588,0.758-0.008,1.801
	c0.101-0.026,0.236-0.064,0.338-0.09c0.075-0.205,0.132-0.494,0.154-0.709c6.863-4.401,15.249-12.404,21.183-20.573
	c0.75-1.033,1.434-2.03,2.05-2.99l1.74-0.405c13.833,2.279,29.322,9.856,41.217,21.159c1.822,1.731,3.496,3.49,5.018,5.26
	c8.348,0.134,10.74,1.47,12.85,2.649c1.393-3.594,1.807-6.453,1.226-8.379l-0.078-0.251l-0.138-0.443
	C100.735,39.613,100.345,42.468,98.969,46.065"/>
<path fill="#808080" d="M35.197,7.124c-3.498,2.01-4.635,2.769-8.401,5.424c0.079,0.127,0.132,0.278,0.161,0.454
	c-0.5,0.31-0.549,0.37-0.597,0.427c0.016-0.002,1.718-0.768,1.784-1.03c-0.151,0.043-0.307,0.117-0.578,0.256
	c-0.028-0.178-0.082-0.333-0.158-0.464c4.118-2.854,5.229-3.504,8.446-5.318c-0.678-0.223-1.616-0.173-2.815,0.189
	c-0.65,0.2-0.7,0.222-1.981,0.779l-0.87,0.419c0.822-0.409,1.596-0.727,2.309-0.941C33.642,6.974,34.541,6.92,35.197,7.124"/>
<path fill="#808080" d="M40.572,5.419c-3.586,1.624-4.777,2.273-8.75,4.588c0.096,0.224,0.15,0.49,0.162,0.793
	c-0.528,0.255-0.58,0.321-0.634,0.393c0.271,0.069,1.641-0.518,1.901-0.74c-0.009-0.02-0.021-0.045-0.029-0.064
	c-0.139,0.004-0.278,0.04-0.597,0.147c-0.013-0.303-0.065-0.569-0.158-0.796c4.347-2.488,5.493-3.022,8.798-4.489
	c-1.254-0.505-2.155-0.317-3.771,0.09c-0.19,0.061-0.38,0.122-0.571,0.185C38.534,5.041,39.749,5.026,40.572,5.419"/>
<path fill="#808080" d="M34.425,9.009c0.043,0.126,0.079,0.263,0.101,0.407c-0.532,0.239-0.58,0.305-0.63,0.376
	c0.08,0.069,1.655-0.352,1.953-0.712c-0.064-0.034-0.124-0.066-0.672,0.096c-0.022-0.138-0.054-0.268-0.093-0.388
	c4.45-2.308,5.612-2.787,8.958-4.09c-0.83-0.502-2.081-0.57-3.758-0.136L39.55,4.749c1.693-0.459,2.956-0.414,3.793,0.07
	C39.71,6.262,38.494,6.86,34.425,9.009"/>
<path fill="#808080" d="M37.494,5.342c-0.062,0.02-0.125,0.039-0.189,0.06l-0.822,0.267c0.148-0.05,0.296-0.098,0.44-0.142
	C37.112,5.464,37.303,5.403,37.494,5.342"/>
<path fill="#808080" d="M34.964,6.241c-0.092,0.037-0.185,0.072-0.277,0.109c1.676-0.484,2.315-0.384,3.169-0.163
	C34.31,8,33.144,8.705,29.271,11.19c0.143,0.275,0.201,0.632,0.175,1.062c-0.517,0.269-0.572,0.334-0.63,0.402
	c0.156,0.026,1.658-0.542,1.875-0.855c-0.104,0-0.179,0-0.618,0.169c0.027-0.438-0.03-0.804-0.171-1.09
	c4.237-2.669,5.366-3.26,8.628-4.898c-1.05-0.379-1.933-0.189-3.287,0.152h-0.001c-0.347,0.107-0.799,0.28-1.141,0.402l-0.771,0.31
	c0.471-0.197,0.924-0.361,1.357-0.492C34.779,6.313,34.872,6.278,34.964,6.241"/>
<path fill="#808080" d="M9.196,41.646c0.222-0.066,0.448-0.143,0.68-0.226c1.735-4.918,1.735-4.918,5.719-15.778
	c1.886-1.203,4.138-3.265,5.94-5.483c-1.416-0.27-2.701-0.384-3.833-0.33c1.013-0.021,2.155,0.099,3.409,0.349
	c-1.651,2.015-3.7,3.88-5.413,4.967c-3.387,8.955-3.985,10.562-5.82,15.636c-0.201,0.072-0.397,0.136-0.589,0.194
	c-2.847,0.86-4.311,0.075-4.424-1.92c1.851-6.571,4.646-10.602,6.315-13.01c0.031-0.095,0.066-0.193,0.104-0.293
	c0.279-0.343,0.279-0.343,0.395-0.542c-0.009,0.009-0.865,0.874-1.007,1.266c0.074-0.082,0.17-0.193,0.243-0.277
	c-0.036,0.095-0.069,0.188-0.1,0.279C7.101,31.597,5.57,36.623,4.655,39.625C4.749,41.709,6.25,42.535,9.196,41.646"/>
<path fill="#808080" d="M16.25,23.167c-3.368,7.875-4.764,11.381-6.241,15.091c-0.09,0.031-0.179,0.058-0.268,0.086
	c-2.464,0.743-3.769,0.11-3.945-1.546c2.159-6.419,5.162-10.212,6.957-12.478c0.085-0.279,0.212-0.588,0.378-0.927
	c0.292-0.29,0.292-0.29,0.361-0.411c-0.009,0.006-0.841,0.688-0.991,1.008c0.075-0.067,0.173-0.157,0.248-0.227
	c-0.178,0.359-0.313,0.691-0.404,0.989c-3.977,4.791-5.741,9.688-6.795,12.612c0.161,1.739,1.507,2.408,4.065,1.635
	c0.112-0.034,0.227-0.07,0.343-0.108c1.388-3.572,2.699-6.946,6.134-15.232c1.209-0.752,2.658-2.052,3.854-3.474
	c-0.812-0.188-1.562-0.308-2.243-0.354c0.58,0.058,1.212,0.173,1.892,0.34C18.552,21.399,17.297,22.52,16.25,23.167"/>
<path fill="#808080" d="M17.017,21.215c-3.042,6.281-4.686,9.983-6.674,14.524l-0.014,0.004c-2.091,0.632-3.234,0.133-3.447-1.214
	c2.479-6.261,5.45-9.54,7.621-11.934c0.021-0.079,0.048-0.16,0.082-0.247c0.374-0.344,0.374-0.344,0.46-0.443
	c-0.009,0.006-0.968,0.76-1.293,1.191c0.091-0.074,0.129-0.104,0.39-0.34c-0.036,0.093-0.066,0.182-0.09,0.267
	c-4.248,4.466-6.254,9.228-7.454,12.074c0.207,1.422,1.389,1.951,3.573,1.292c0.023-0.006,0.047-0.013,0.071-0.021
	c1.915-4.48,3.507-8.155,6.565-14.668c0.574-0.348,1.264-0.955,1.851-1.629c-0.334-0.097-0.651-0.178-0.953-0.242
	c0.218,0.054,0.444,0.118,0.678,0.192C17.946,20.516,17.439,20.96,17.017,21.215"/>
<path fill="#808080" d="M17.658,19.862L17.658,19.862c0.014-0.01,0.032-0.022,0.044-0.032c-0.087,0.062-0.175,0.122-0.261,0.188
	C17.515,19.967,17.586,19.915,17.658,19.862"/>
<path fill="#808080" d="M9.138,30.562c0.216,0.818,0.971,1.133,2.274,0.806c2.547-4.94,3.899-7.42,6.291-11.538
	c-2.173,3.648-3.538,6.098-6.087,10.92c-1.204,0.294-1.908,0.001-2.119-0.752c3.082-5.442,5.03-7.319,8.206-10.168
	C13.584,23.46,12.063,25.366,9.138,30.562"/>
<path fill="#808080" d="M10.627,28.306c0.191,0.575,0.749,0.804,1.679,0.599c2.597-4.588,3.313-5.751,5.396-9.076
	c-2.381,3.709-3.302,5.3-5.141,8.467c-0.846,0.18-1.358-0.03-1.541-0.55c2.345-3.612,3.283-4.723,6.681-7.917
	C14.058,23.194,13.23,24.277,10.627,28.306"/>
<path fill="#808080" d="M94.178,77.403c0.023,0.021,0.055,0.05,0.078,0.071c0.322-0.097,0.527-0.807,0.554-0.99
	c0.034-0.232-0.005-0.269-0.078-0.334c-0.129,0.045-0.129,0.045-0.239,0.178c-0.16,0.237-0.252,0.456-0.314,0.757
	c-1.131,1.513-2.341,3.016-3.604,4.488c-1.642,4.8-2.36,5.96-3.011,6.811l0.188-0.188c1.07-1.192,2.278-4.526,3-6.518
	C91.951,80.274,93.101,78.843,94.178,77.403"/>
<path fill="#808080" d="M93.901,79.815c0.014,0.009,0.03,0.023,0.044,0.034c0.253-0.176,0.485-0.826,0.488-0.832
	c0.066-0.205,0.053-0.242,0.025-0.309c-0.084,0.03-0.084,0.03-0.172,0.14c-0.136,0.196-0.23,0.384-0.325,0.651
	c-0.732,0.978-1.505,1.952-2.305,2.913c-1.317,2.82-1.714,3.323-2.582,4.424l0.189-0.204c0.982-1.134,1.607-2.385,2.474-4.115
	C92.487,81.613,93.211,80.698,93.901,79.815"/>
<path fill="#808080" d="M95.533,77.803c-0.09,0.152-0.165,0.29-0.303,0.584c-0.338,0.501-0.695,1.013-1.075,1.536
	c-0.709,0.975-1.461,1.945-2.248,2.903c-1.027,1.807-1.212,2.133-2.077,3.187l0.115-0.131l0.077-0.086
	c0.988-1.28,1.116-1.445,1.915-2.867c0.737-0.899,1.441-1.811,2.106-2.725c0.369-0.508,0.716-1.006,1.042-1.49
	c-0.012,0.033-0.026,0.079-0.036,0.111c0.125-0.082,0.454-0.761,0.458-0.768c0.142-0.298,0.146-0.349,0.147-0.406
	C95.601,77.697,95.601,77.697,95.533,77.803"/>
<path fill="#808080" d="M60.373,4.545c0.677,0.797,0.983,1.96,0.926,3.442c-0.163-0.004-0.661-0.014-0.697,0.204
	c-0.006,0.04,1.537,1.029,2.031,0.364c-0.052-0.141-0.096-0.263-0.658-0.449c0.061-1.528-0.264-2.72-0.977-3.526
	c-4.563-1.14-6.472-1.185-10.652-1.283c-0.503-0.076-1.183-0.095-1.692-0.092l-0.777,0.066c0.717-0.071,1.344-0.038,1.879,0.093
	C54.613,3.318,56.419,3.702,60.373,4.545"/>
<path fill="#808080" d="M52.107,3.157c4.938,0.135,6.758,0.588,10.748,1.583c1.307,1.306,1.496,3.73,0.584,7.035
	c-3.964-1.053-8.019-1.688-12.113-1.948c-0.363-0.25-1.55-0.366-1.966,0.097c0.155,0.498,1.522,0.449,1.948,0.193
	c4.268,0.241,8.546,0.956,12.719,2.134c1.023-3.524,0.846-6.096-0.556-7.438c-4.598-1.315-6.536-1.431-10.784-1.682
	c-0.326-0.054-0.681-0.076-1.064-0.068L50.89,3.082C51.333,3.066,51.739,3.092,52.107,3.157"/>
<path fill="#808080" d="M65.813,13.495c-0.167-0.019-0.681-0.075-0.804,0.232c-0.183,0.454,1.043,1.09,1.702,0.883
	c0.258-0.081,0.556-0.418-0.242-0.896c1.329-4.149,1.145-7.116-0.585-8.517c-3.796-1.22-5.804-1.563-8.778-1.869
	c3.152,0.329,4.974,0.845,8.183,1.757C66.952,6.495,67.119,9.42,65.813,13.495"/>
<path fill="#808080" d="M56.738,3.292c0.123,0.013,0.247,0.024,0.367,0.037C56.985,3.316,56.862,3.304,56.738,3.292"/>
<path fill="#808080" d="M56.738,3.292c-0.546-0.055-1.125-0.108-1.757-0.167c-0.132-0.015-0.268-0.023-0.407-0.029l-0.739-0.024
	c0.2,0.003,0.393,0.018,0.578,0.039C55.274,3.164,56.037,3.224,56.738,3.292"/>
<path fill="#808080" d="M59.357,3.518l-0.16-0.02c0.091,0.013,0.176,0.025,0.266,0.038C59.427,3.53,59.394,3.524,59.357,3.518"/>
<path fill="#808080" d="M59.463,3.537c1.251,0.219,2.178,0.383,2.941,0.531C61.504,3.863,60.555,3.69,59.463,3.537"/>
<path fill="#808080" d="M59.197,3.499c-0.481-0.064-0.99-0.125-1.537-0.184L59.197,3.499z"/>
<path fill="#808080" d="M69.307,9.971c-0.134-0.021-0.487-0.078-0.618,0.036c-0.408,0.353,1.19,1.049,1.721,0.926
	c0.212-0.05,0.393-0.305-0.451-0.742c0.082-2.094-0.488-3.615-1.725-4.458c-2.896-0.981-3.801-1.272-5.829-1.666
	c1.688,0.383,3.215,0.87,5.247,1.517C68.838,6.429,69.386,7.925,69.307,9.971"/>
<path fill="#808080" d="M91.208,21.331c-3.08-2.944-4.848-3.696-9.322-4.748c-0.072,0.925-0.255,1.943-0.544,3.048
	c-0.401-0.163-0.607-0.14-0.708,0.08c-0.065,0.657,0.9,1.355,1.367,1.393c0.409,0.033,0.585-0.378-0.084-1.073
	c0.277-1.062,0.455-2.043,0.533-2.938c4.672,1.133,6.313,1.992,9.241,4.838c-0.076-0.116-0.156-0.226-0.241-0.332l-0.477-0.578
	C91.056,21.121,91.134,21.224,91.208,21.331"/>
<path fill="#808080" d="M8.878,52.84c6.19-1.868,15.37-8.72,23.693-17.236c8.155,8.249,18.491,18.383,28.718,28.101
	c2.005,1.905,3.927,3.719,5.701,5.576c-0.025,0.324-0.082,1.083,0.75,1.197c0.802,0.11,1.521-0.753,1.034-1.549
	c-0.412-0.506-0.879-0.38-1.255-0.278c-1.824-1.72-3.744-3.537-5.749-5.441c-10.398-9.881-20.971-20.127-29.29-28.346
	C24.202,43.401,15.007,50.3,8.833,52.164c-4.483,1.352-6.511-0.208-6.158-3.813l-0.064,0.758C2.319,52.669,4.385,54.195,8.878,52.84
	"/>
<path fill="#808080" d="M77.312,77.292c0.709-0.471,0.52-1.105,0.428-1.25c-0.114-0.186-0.603-0.579-1.29,0.028
	c-0.529,0.647-0.285,1.175,0.215,1.342c-0.979,12.642-1.21,15.646,0.062,17.787c-3.338,2.481-6.472,4.299-9.01,5.111l0.815-0.267
	c2.462-0.84,5.47-2.609,8.662-4.995C76.563,94.156,75.608,92.807,77.312,77.292"/>
<path fill="#808080" d="M74.898,79.69c0.707-0.462,0.538-1.04,0.425-1.206c-0.006-0.007-0.513-0.656-1.337,0.038
	c-0.532,0.63-0.271,1.134,0.245,1.289c-0.666,10.591-0.7,13.539,0.526,15.934c-3.548,2.592-6.864,4.468-9.54,5.276
	c-0.178,0.054-0.35,0.101-0.518,0.145l0.742-0.191c0.114-0.032,0.231-0.064,0.351-0.101c2.652-0.801,5.947-2.673,9.47-5.258
	C74.694,94.652,73.637,92.861,74.898,79.69"/>
<path fill="#808080" d="M9.14,55.545c6.218-1.877,15.284-8.5,23.723-16.873c7.524,8.273,16.944,17.919,26.486,26.986
	c0.292,0.276,0.58,0.55,0.812,0.968c-0.131,1.03,0.601,1.243,0.828,1.284c0.832,0.147,1.575-0.733,1.051-1.567
	c-0.287-0.409-0.738-0.526-1.337-0.348c-0.288-0.271-0.576-0.546-0.866-0.821C50.123,55.944,40.479,46.169,32.8,37.889
	C24.38,46.306,15.279,52.994,9.063,54.87c-4.51,1.36-6.68-0.058-6.572-3.472l-0.014,0.568l-0.004,0.189
	C2.423,55.522,4.625,56.908,9.14,55.545"/>
<path fill="#808080" d="M71.001,96.488c-0.538-1.257-1.539-3.596-0.986-12.911c0.74-0.432,0.532-0.977,0.401-1.132
	c-0.005-0.008-0.567-0.61-1.407,0.042c-0.536,0.585-0.266,1.072,0.309,1.205c-0.174,7.842,0.034,10.251,1.117,12.88
	c-3.674,2.584-7.09,4.453-9.894,5.3c-0.718,0.217-1.371,0.359-1.966,0.433l0.779-0.103c0.541-0.077,1.134-0.211,1.776-0.405
	C63.925,100.956,67.336,99.08,71.001,96.488"/>
<path fill="#808080" d="M10.053,60.933c6.109-1.845,14.711-7.844,23.097-15.658c6.343,7.899,14.105,16.396,22.275,24.159
	c0.288,0.275,0.578,0.548,0.81,0.962c-0.136,0.998,0.603,1.221,0.831,1.265c0.841,0.162,1.594-0.679,1.066-1.502
	c-0.292-0.405-0.745-0.529-1.349-0.366c-0.287-0.27-0.576-0.544-0.867-0.818c-8.341-7.926-16.298-16.577-22.783-24.553
	c-8.413,7.902-17.087,13.99-23.222,15.843c-4.588,1.383-6.986,0.167-7.249-2.973l0.071,0.733
	C3.04,61.128,5.463,62.317,10.053,60.933"/>
<path fill="#808080" d="M66.274,96.984c-0.888-2.372-1.114-4.346-1.308-8.711c0.699-0.292,0.709-0.799,0.448-1.053
	c-0.006-0.006-0.622-0.543-1.468,0.047c-0.534,0.534-0.199,0.952,0.386,1.076c0.213,4.862,0.487,6.29,1.322,8.675
	c-3.658,2.47-7.052,4.261-9.884,5.116c-1.191,0.36-2.23,0.537-3.118,0.546l0.747-0.01c0.852-0.021,1.841-0.195,2.971-0.537
	C59.204,101.279,62.606,99.475,66.274,96.984"/>
<path fill="#808080" d="M61.17,97.063c-0.653-2.061-0.762-2.732-1.11-5.241c0.635-0.209,0.735-0.668,0.4-0.939
	c-0.006-0.005-0.679-0.496-1.515,0.025c-0.561,0.51-0.052,0.881,0.468,0.971c0.393,2.857,0.514,3.255,1.096,5.162
	c-3.521,2.274-6.78,3.93-9.55,4.766c-1.672,0.505-3.068,0.682-4.19,0.56l0.727,0.076c1.097,0.103,2.451-0.074,4.065-0.562
	C54.343,101.04,57.626,99.365,61.17,97.063"/>
<path fill="#808080" d="M55.122,96.001c-0.84-3.408-1.085-5.95-1.352-11.404c-2.642-1.982-5.334-4.261-8.039-6.83
	c-2.822-2.682-5.502-5.532-7.95-8.615c0.039-0.224,0.087-0.502-0.126-0.866c-0.006-0.01-0.614-0.921-1.474-0.399
	c-0.038,0.037-0.094,0.085-0.127,0.127c-0.376,0.476-0.087,1.785,1.198,1.636c2.498,2.962,5.172,5.815,7.994,8.498
	c2.633,2.502,5.26,4.726,7.842,6.664c0.283,5.855,0.555,7.72,1.341,11.092c-3.503,2.194-6.75,3.799-9.538,4.641
	c-2.25,0.678-4.041,0.813-5.378,0.462l0.705,0.181c1.319,0.327,3.074,0.188,5.271-0.476C48.301,99.862,51.582,98.231,55.122,96.001"
	/>
<path fill="#808080" d="M52.335,95.563c-0.85-3.273-1.057-6.456-1.296-10.143c-2.398-1.809-4.822-3.863-7.239-6.162
	c-1.107-1.051-2.189-2.131-3.244-3.233c0.147-0.335,0.112-0.659-0.103-0.962c-0.426-0.6-1.289-0.726-1.68-0.245
	c-0.467,0.574,0.15,1.781,1.306,1.565c1.053,1.104,2.134,2.185,3.241,3.236c2.347,2.229,4.702,4.229,7.037,5.994
	c0.307,5.435,0.713,7.273,1.275,9.82c-3.339,2.039-6.436,3.537-9.12,4.347c-2.467,0.745-4.396,0.852-5.795,0.396l0.696,0.223
	c1.385,0.43,3.279,0.314,5.692-0.413C45.816,99.167,48.953,97.643,52.335,95.563"/>
<path fill="#808080" d="M43.796,93.453c-0.457-2.199-0.526-2.79-0.906-6.07c-1.595-1.26-3.181-2.635-4.746-4.123
	c-2.823-2.682-5.429-5.586-7.795-8.643c0.148-0.302,0.129-0.618-0.059-0.941c-0.005-0.011-0.573-0.938-1.39-0.547
	c-0.035,0.03-0.088,0.066-0.12,0.103c-0.436,0.49,0.098,1.748,1.125,1.677c2.357,3.061,4.959,5.968,7.782,8.649
	c1.496,1.422,3.01,2.737,4.533,3.949c0.26,2.474,0.283,2.595,0.856,5.711c-2.739,1.537-5.29,2.688-7.563,3.374
	c-3.079,0.929-5.371,0.924-6.883,0.108l0.658,0.349c1.508,0.781,3.771,0.777,6.802-0.139C38.4,96.215,41.002,95.033,43.796,93.453"
	/>
<path fill="#808080" d="M42.886,22.107c-0.163,0.298-0.009,0.463,0.225,0.713c-0.13,0.183-0.263,0.367-0.398,0.552
	c-2.084,2.869-4.412,5.722-6.872,8.46c9.223,7.156,20.276,16.645,30.56,26.417c1.09,1.035,2.144,2.05,3.168,3.044
	c6.833-0.346,13.641-1.071,20.483-1.279c0.073,0.205,0.267,0.443,0.435,0.584c0.885-0.155,1.108-1.333,0.375-1.968
	c-0.454,0.074-0.536,0.088-0.781,0.665c-6.763,0.236-13.497,0.919-20.251,1.288c-0.959-0.934-1.948-1.885-2.964-2.852
	c-10.113-9.608-21.028-18.88-30.249-25.891c2.382-2.673,4.637-5.447,6.665-8.239c0.136-0.187,0.271-0.375,0.548-0.547
	c0.656-0.077,0.69-0.147,0.878-0.542c-0.082-0.189-0.233-0.446-0.411-0.549C43.597,21.625,43.203,21.892,42.886,22.107"/>
<path fill="#808080" d="M49.608,28.541c0.081-0.518-0.879-1.435-1.826-0.647c-0.174,0.358-0.183,0.484,0.116,0.898
	c-0.686,0.896-1.391,1.789-2.113,2.676c8.627,5.535,17.792,12.65,26.019,20.468c0.235,0.222,0.468,0.445,0.697,0.667
	c5.187-0.265,5.187-0.265,8.111-0.313c0.116,0.187,0.277,0.441,0.628,0.501c0.722,0.121,1.315-0.831,0.836-1.71
	c-0.354-0.588-1.229-0.677-1.561,0.331c-3.571,0.223-3.571,0.223-7.792,0.457c-0.162-0.155-0.324-0.311-0.488-0.466
	c-8.055-7.655-17.045-14.593-25.57-20.007c0.611-0.757,1.21-1.519,1.795-2.284C49.398,29.229,49.576,28.751,49.608,28.541"/>
<path fill="#808080" d="M17.743,19.794c-0.012,0.011-0.028,0.024-0.041,0.035c0.176-0.149,0.357-0.292,0.528-0.445
	C18.182,19.421,18.009,19.565,17.743,19.794"/>
<path fill="#808080" d="M40.265,8.495l-14.676,6.938c-0.417,0.199-0.475,0.25-0.572,0.334c0.002,0.005,0.004,0.011,0.007,0.016
	c0.066-0.008,1.583-0.436,1.669-0.74c7.222-3.652,11.117-5.307,14.246-6.636c0.021-0.447-0.011-0.849-0.096-1.203
	c0.488-0.161,0.533-0.21,0.629-0.319c-0.083-0.036-0.221-0.097-0.855,0.049c-0.214,0.048-0.752,0.187-1.095,0.397
	c0.001,0.035,0.002,0.081,0.003,0.114c0.194,0.003,0.253,0.006,0.643-0.068C40.247,7.707,40.279,8.081,40.265,8.495"/>
<path fill="#808080" d="M13.235,21.989c-0.071,0.057-0.222,0.246-0.374,0.443l-0.202,0.262l-0.004,0.004l-0.011,0.017l-0.225,0.297
	c0.248-0.324,0.521-0.631,0.774-0.952C13.236,22.003,13.236,22.003,13.235,21.989"/>
<path fill="#808080" d="M5.117,36.961c0.415-1.118,0.418-1.136,0.441-1.247c0.902-2.361,1.036-2.624,2.675-5.828
	c0.356-0.867,0.855-1.839,1.492-2.896c-0.753,1.216-1.336,2.328-1.745,3.313c-1.885,3.551-2.977,6.805-3.021,7.079
	C5.014,37.243,5.065,37.102,5.117,36.961"/>
<path fill="#808080" d="M10.571,25.655c-0.306,0.459-0.586,0.903-0.847,1.334c0.097-0.156,0.195-0.313,0.298-0.471L10.571,25.655z"
	/>
<path fill="#808080" d="M9.532,58.249c6.191-1.868,15.061-8.205,23.52-16.34c6.92,8.151,15.483,17.249,24.338,25.663
	c2.004,1.905,3.944,3.699,5.755,5.517c-0.022,0.313-0.079,1.044,0.77,1.162c0.817,0.113,1.549-0.714,1.054-1.488
	c-0.266-0.373-0.698-0.467-1.283-0.277c-1.863-1.683-3.801-3.48-5.806-5.386c-9.026-8.578-17.798-17.816-24.865-26.012
	c-8.463,8.203-17.389,14.615-23.592,16.487c-4.559,1.376-6.85,0.06-6.933-3.223l0.026,0.733C2.645,58.335,4.963,59.627,9.532,58.249
	"/>
<path fill="#808080" d="M10.703,63.6c5.978-1.804,14.243-7.423,22.464-14.843c5.792,7.53,12.797,15.379,20.281,22.49
	c2.004,1.905,3.965,3.684,5.812,5.457c-0.145,0.92,0.568,1.096,0.791,1.128c0.828,0.122,1.563-0.663,1.057-1.414
	c-0.272-0.361-0.71-0.458-1.3-0.288c-1.899-1.648-3.857-3.429-5.862-5.334c-7.655-7.273-14.845-15.286-20.772-22.92
	c-8.271,7.527-16.627,13.246-22.645,15.061c-4.585,1.386-7.076,0.279-7.518-2.699l0.112,0.714C3.6,63.899,6.11,64.986,10.703,63.6"
	/>
<path fill="#808080" d="M12.383,68.839c5.574-1.682,13-6.455,20.639-12.903c4.757,6.492,10.37,12.949,16.481,18.757
	c2.005,1.903,3.985,3.664,5.869,5.401c-0.14,0.877,0.586,1.06,0.812,1.095c0.836,0.13,1.567-0.604,1.048-1.33
	c-0.28-0.35-0.725-0.451-1.317-0.302c-1.937-1.615-3.914-3.378-5.918-5.282c-6.285-5.972-12.064-12.609-16.949-19.251
	c-7.727,6.578-15.27,11.463-20.903,13.163c-4.587,1.384-7.221,0.451-7.948-2.265l0.199,0.711
	C5.155,69.311,7.805,70.222,12.383,68.839"/>
<path fill="#808080" d="M49.506,94.994c-0.678-2.987-0.833-4.339-1.197-8.828c-2.142-1.631-4.291-3.463-6.425-5.491
	c-2.822-2.682-5.464-5.56-7.9-8.57c0.089-0.238,0.198-0.538-0.062-0.968c-0.006-0.01-0.595-0.932-1.434-0.473
	c-0.037,0.034-0.092,0.077-0.125,0.116c-0.366,0.438-0.087,1.723,1.161,1.657c2.426,3.015,5.064,5.896,7.887,8.579
	c2.063,1.961,4.142,3.734,6.218,5.322c0.351,4.568,0.641,5.963,1.167,8.492c-3.156,1.878-6.085,3.264-8.648,4.035
	c-2.682,0.812-4.745,0.883-6.193,0.312l0.367,0.142l0.316,0.122c1.437,0.544,3.467,0.462,6.098-0.332
	C43.33,98.326,46.303,96.912,49.506,94.994"/>
<path fill="#808080" d="M45.593,86.821c-1.874-1.45-3.742-3.055-5.593-4.813c-1.106-1.052-2.182-2.136-3.226-3.247
	c0.14-0.313,0.103-0.623-0.11-0.926c-0.421-0.598-1.267-0.765-1.645-0.325c-0.452,0.525,0.162,1.715,1.29,1.57
	c1.043,1.112,2.118,2.196,3.224,3.248c1.78,1.69,3.579,3.238,5.383,4.642c0.381,3.836,0.479,4.338,1.026,7.126
	c-9.708,5.522-13.064,4.445-14.676,3.927l0.667,0.303c4.338,1.715,11.354-2.167,14.725-4.033
	C46.129,91.64,46.003,91.01,45.593,86.821"/>
<path fill="#808080" d="M40.929,92.467c-0.25-1.382-0.525-3.235-0.71-4.629c-1.311-1.062-2.609-2.2-3.891-3.419
	c-1.106-1.053-2.177-2.139-3.21-3.258c0.133-0.287,0.093-0.585-0.12-0.888c-0.418-0.592-1.243-0.805-1.602-0.411
	c-0.431,0.472,0.184,1.641,1.277,1.572c1.032,1.121,2.102,2.209,3.208,3.259c1.211,1.151,2.438,2.233,3.676,3.241
	c0.167,1.283,0.439,2.987,0.659,4.264c-2.511,1.364-4.855,2.395-6.965,3.032c-3.268,0.985-5.659,0.932-7.186-0.015l0.631,0.386
	c1.525,0.913,3.893,0.954,7.116-0.018C35.962,94.936,38.36,93.874,40.929,92.467"/>
<path fill="#808080" d="M38.079,91.335c-0.175-0.941-0.353-2.206-0.497-3.151c-1.019-0.852-2.03-1.751-3.028-2.699
	c-2.824-2.683-5.395-5.607-7.696-8.705c0.139-0.277,0.116-0.581-0.067-0.904c-0.004-0.01-0.558-0.94-1.337-0.629
	c-0.035,0.027-0.085,0.059-0.115,0.091c-0.415,0.437,0.106,1.682,1.092,1.688c2.291,3.103,4.858,6.03,7.682,8.713
	c0.927,0.881,1.865,1.719,2.813,2.516c0.113,0.835,0.309,1.942,0.444,2.774c-2.273,1.194-4.403,2.106-6.335,2.689
	c-3.445,1.039-5.924,0.934-7.454-0.144L24.193,94c1.531,1.043,3.989,1.136,7.39,0.108C33.562,93.513,35.746,92.571,38.079,91.335"/>
<path fill="#808080" d="M17.967,82.957c0.131,0.127,0.404,0.391,0.688,0.46c0.433,0.104,0.438-0.33,0.17-0.784
	c-0.237-0.401-0.656-0.783-0.975-0.885c-0.229-0.074-0.585-0.035-0.289,0.643c-3.251,0.653-5.423,0.059-6.533-1.577l0.422,0.61
	C12.574,83.027,14.74,83.605,17.967,82.957"/>
<path fill="#808080" d="M19.727,75.735c0.897,0.977,1.604,0.639,1.625-0.059c0.006-0.19-0.063-0.486-0.159-0.702
	c-0.25-0.556-1.041-1.447-1.732-0.995c-0.246,0.285-0.272,0.609-0.09,1.158c-1.218,0.543-2.381,0.985-3.479,1.317
	c-4.447,1.34-7.207,0.68-8.313-1.571l0.329,0.658c1.132,2.214,3.896,2.854,8.325,1.516C17.333,76.727,18.502,76.282,19.727,75.735
	 M19.789,74.662c0.136-0.356,0.659-0.177,0.918,0.317c0.103,0.194,0.206,0.565-0.057,0.718
	C20.189,75.869,19.63,75.079,19.789,74.662"/>
<path fill="#808080" d="M23.18,84.138c0.11,0.086,0.37,0.284,0.654,0.345c0.539,0.111,0.714-0.328,0.353-0.889h0.001
	c-0.219-0.338-0.591-0.637-0.927-0.74c-0.404-0.125-0.849,0.024-0.525,0.741c-0.576,0.216-1.137,0.407-1.681,0.571
	c-4.155,1.254-6.906,0.839-8.275-0.937l0.46,0.586c1.385,1.742,4.129,2.141,8.256,0.896C22.042,84.544,22.604,84.354,23.18,84.138"
	/>
<path fill="#808080" d="M22.365,86.978c-0.279-0.373-0.745-0.724-1.084-0.813c-0.245-0.065-0.61-0.021-0.246,0.61
	c-3.042,0.61-5.155,0.146-6.353-1.228l0.501,0.564c1.205,1.342,3.308,1.791,6.322,1.185c0.146,0.116,0.449,0.357,0.749,0.415
	C22.707,87.798,22.676,87.394,22.365,86.978"/>
<path fill="#808080" d="M48.765,25.023c0.729-0.122,0.87-0.79,0.254-1.211c-0.232-0.145-0.839-0.422-1.471,0.124
	c-0.11,0.368-0.136,0.455,0.189,0.815c-0.146,0.204-0.294,0.409-0.444,0.616c-1.546,2.129-3.214,4.25-4.966,6.333
	c8.957,6.043,18.801,13.895,27.715,22.365c0.52,0.495,1.032,0.985,1.535,1.473c3.964-0.205,7.926-0.484,11.889-0.679
	c0.101,0.213,0.253,0.533,0.61,0.598c0.707,0.127,1.236-0.938,0.835-1.678c-0.209-0.382-1.035-0.865-1.466,0.318
	c-8.129,0.516-8.129,0.516-11.627,0.707c-0.437-0.423-0.879-0.847-1.329-1.273c-8.74-8.306-18.418-15.967-27.303-21.879
	c1.65-1.978,3.224-3.99,4.69-6.009c0.152-0.21,0.302-0.417,0.598-0.606C48.563,25.032,48.68,25.038,48.765,25.023"/>
<path fill="#808080" d="M86.037,58.119c0.607,0.121,1.188-0.806,0.83-1.638c-0.205-0.375-0.939-0.851-1.385,0.308
	c-4.879,0.309-9.755,0.659-14.635,0.926c-0.702-0.683-1.42-1.373-2.152-2.069c-9.428-8.958-19.751-17.396-28.873-23.841
	c1.448-1.679,2.845-3.39,4.167-5.113c0.872,0.092,1.05-0.29,1.08-0.526c0.056-0.464-0.902-1.273-1.78-0.558
	c-0.169,0.358-0.095,0.461,0.147,0.804c-1.4,1.826-2.887,3.639-4.43,5.414c9.159,6.583,19.635,15.225,29.235,24.346
	c0.805,0.764,1.588,1.519,2.354,2.265c2.564-0.131,2.564-0.131,14.87-0.951C85.564,57.725,85.699,58.053,86.037,58.119"/>
<path fill="#808080" d="M98.408,67.982c-0.085,0.032-0.085,0.032-0.154,0.134c-0.271,0.521-0.363,1.276-0.235,1.479
	c0.25,0.007,0.407-0.748,0.449-0.981c2.691-4.649,3.158-6.919,3.466-8.42l0.106-0.75c-0.312,2.228-1.5,5.196-3.55,8.711
	C98.472,68.043,98.472,68.043,98.408,67.982"/>
<path fill="#808080" d="M101.148,63.737c-0.011,0.018-0.021,0.043-0.028,0.063c-0.131,0.42-0.37,1.605-0.356,1.722
	c0.032-0.038,0.129-0.394,0.244-0.909c0.163-0.498,0.292-0.973,0.387-1.42l0.093-0.441l0.066-0.337
	c-0.101,0.51-0.244,1.058-0.432,1.639C101.165,63.784,101.159,63.771,101.148,63.737"/>
<path fill="#808080" d="M98.621,70.545c-0.045,0.011-0.045,0.011-0.098,0.094c-0.215,0.426-0.411,1.169-0.402,1.415
	c0.01,0.008,0.021,0.019,0.031,0.026c0.132-0.137,0.301-0.661,0.367-0.881c0.979-1.788,1.671-3.389,2.073-4.76l0.222-0.807
	c-0.399,1.453-1.13,3.172-2.189,5.105C98.64,70.622,98.64,70.622,98.621,70.545"/>
<path fill="#808080" d="M99.618,69.506L99.618,69.506l0.449-1.33c0.002-0.006,0.004-0.014,0.006-0.021
	c-0.006,0.016-0.013,0.034-0.017,0.048C99.908,68.636,99.769,69.073,99.618,69.506"/>
<path fill="#808080" d="M96.396,74.854c-0.128,0.208-0.222,0.425-0.322,0.748c-0.416,0.617-0.859,1.253-1.331,1.901
	c-1.098,1.512-2.283,3.017-3.53,4.491c-1.354,3.39-2.013,4.519-2.896,5.638l0.152-0.159l0.034-0.034
	c1.022-1.152,1.787-2.861,2.838-5.34c1.185-1.405,2.312-2.838,3.356-4.277c0.461-0.634,0.895-1.253,1.3-1.857
	c0.002,0.027,0.003,0.063,0.004,0.09c0.024,0.002,0.054,0.004,0.077,0.005c0.247-0.314,0.396-0.807,0.422-0.902
	c0.078-0.273,0.074-0.285,0.023-0.428C96.479,74.761,96.428,74.812,96.396,74.854"/>
<path fill="#808080" d="M68.691,96.787c-0.509-1.17-1.7-3.907-1.08-15.447c0.786-0.443,0.525-1.067,0.413-1.211
	c-0.005-0.008-0.598-0.679-1.477,0c-0.546,0.604-0.262,1.143,0.328,1.313c-0.201,9.813,0.145,12.567,1.217,15.404
	c-3.682,2.537-7.101,4.376-9.931,5.23c-0.947,0.285-1.791,0.45-2.534,0.501l0.745-0.053c0.707-0.058,1.503-0.218,2.39-0.485
	C61.588,101.187,65.009,99.339,68.691,96.787"/>
<path fill="#808080" d="M63.767,97.078c-0.884-2.503-1.415-5.353-1.336-11.813c0.787-0.397,0.536-0.962,0.387-1.128
	c-0.006-0.006-0.645-0.644-1.529-0.02c-0.489,0.501-0.316,1.045,0.391,1.235c0.179,7.851,0.739,9.563,1.447,11.732
	c-3.604,2.382-6.942,4.11-9.755,4.96c-1.445,0.435-2.675,0.616-3.691,0.563l0.579,0.027l0.151,0.006
	c0.988,0.04,2.175-0.142,3.562-0.56C56.792,101.23,60.146,99.484,63.767,97.078"/>
<path fill="#808080" d="M22.022,19.774c0.169,0.328,1.599,0.403,1.628,0.085c0.009-0.11-0.186-0.212-0.499-0.258
	c-0.177-0.026-0.71-0.064-1.055,0.077c-1.609-0.125-3.083-0.079-4.394,0.152C18.989,19.632,20.438,19.618,22.022,19.774
	 M22.945,19.699c0.126,0.017,0.327,0.068,0.276,0.156c-0.148,0.15-0.806,0.044-0.807-0.073
	C22.415,19.708,22.688,19.665,22.945,19.699"/>
<path fill="#808080" d="M8.733,48.137c0.612-0.186,1.258-0.425,1.932-0.717c0.278-1.013,0.646-2.364,0.927-3.377
	c0.354,0.351,0.616-0.45,0.646-1.179c0.02-0.442-0.071-1.608-0.517-1.251c-0.386,0.551-0.355,1.495-0.351,1.6
	c0.026,0.536,0.026,0.536-0.825,3.587c-0.625,0.268-1.227,0.489-1.8,0.661c-3.543,1.069-5.359,0.086-5.487-2.408l0.545-3.018
	c0.004-0.016,0.465-1.623,0.532-2.072c-0.23,0.197-0.728,2.246-1.197,5.656C3.243,48.207,5.093,49.235,8.733,48.137 M11.696,42.315
	c0.09-0.19,0.201-0.182,0.269,0.021c0.053,0.16,0.057,0.366,0.054,0.447c-0.003,0.207-0.051,0.586-0.21,0.689
	C11.551,43.563,11.512,42.704,11.696,42.315 M3.822,41.771c0.028-0.238,0.271-1.141,0.329-1.224c0.026,0.031-0.193,0.822-0.195,0.83
	c-0.069,0.247-0.113,0.385-0.131,0.413C3.822,41.785,3.822,41.776,3.822,41.771"/>
<path fill="#808080" d="M14.682,23.024c0.081-0.08,0.13-0.131,0.563-0.614c0.276-0.309,0.556-0.616,0.832-0.926
	c0.526-0.561,1.068-1.112,1.626-1.655c-0.559,0.54-1.102,1.088-1.629,1.645C15.678,21.868,14.801,22.815,14.682,23.024"/>
<path fill="#808080" d="M17.013,20.561c0.079-0.083,0.154-0.167,0.232-0.251l-0.071,0.075
	C17.119,20.443,17.067,20.503,17.013,20.561"/>
<path fill="#808080" d="M17.245,20.31l0.458-0.48l-0.321,0.332C17.335,20.21,17.292,20.262,17.245,20.31"/>
<path fill="#808080" d="M14.754,23.145c0.189-0.2,1.35-1.585,1.36-1.599c0.294-0.331,0.595-0.659,0.898-0.985
	c-0.304,0.324-0.609,0.648-0.903,0.979C15.759,21.912,14.857,22.939,14.754,23.145"/>
<path fill="#808080" d="M14.259,24.515c-0.204,0.265-1.055,1.544-1.034,1.72c0.053-0.065,0.134-0.165,0.467-0.704
	c0.019-0.03,0.45-0.731,0.599-1.016c0.945-1.471,1.973-2.902,3.084-4.284l0.327-0.402l-0.515,0.633
	C16.137,21.772,15.161,23.125,14.259,24.515"/>
<path fill="#808080" d="M16.089,21.509c-0.352,0.363-1.263,1.369-1.375,1.58c0.081-0.083,0.13-0.136,0.56-0.629
	c0.272-0.314,0.549-0.627,0.82-0.943c0.521-0.572,1.058-1.134,1.609-1.688C17.149,20.381,16.611,20.941,16.089,21.509"/>
<path fill="#808080" d="M13.407,26.223c0.053-0.067,0.134-0.169,0.452-0.708c0.044-0.075,0.434-0.736,0.567-1.01
	c0.437-0.679,0.966-1.45,1.509-2.22c-0.486,0.723-0.954,1.457-1.398,2.202c-0.197,0.274-0.988,1.561-0.932,1.702
	c0.054-0.068,0.135-0.173,0.437-0.709c0.017-0.029,0.406-0.718,0.533-1c0.574-0.976,1.19-1.93,1.838-2.867
	c0.451-0.63,0.896-1.243,1.29-1.784c-1.203,1.504-2.308,3.067-3.312,4.68C14.191,24.778,13.368,26.063,13.407,26.223"/>
<path fill="#808080" d="M48.062,8.17c-1.15,0.379-2.686,0.882-3.832,1.277c-0.879-0.059-2.132,0.249-2.093,0.602
	c0.443,0.447,2.602,0.04,2.681-0.325c0.017-0.079-0.036-0.117-0.103-0.164c1.204-0.411,2.808-0.96,4.021-1.341
	c0.254-1.77-0.031-3.082-0.864-3.842l1.56-0.432c0.226-0.008,1.367-0.06,1.796-0.227c0.004-0.019,0.01-0.043,0.014-0.062
	c-0.304-0.103-1.075-0.059-1.304-0.043c-0.292,0.021-1.009,0.083-1.346,0.225c-0.005,0.019-0.011,0.042-0.016,0.062
	c0.085,0.026,0.115,0.035,0.305,0.045c-0.514,0.148-1.2,0.345-1.716,0.493C48,5.169,48.296,6.444,48.062,8.17 M44.144,9.775
	c-0.12,0.273-1.262,0.318-1.34,0.164c-0.058-0.114,0.344-0.268,0.783-0.298C43.799,9.625,44.155,9.637,44.144,9.775 M49.241,3.801
	c0.031-0.034,0.259-0.084,0.618-0.113c0.198-0.016,0.603-0.033,0.716,0.014c0.064,0.055-0.332,0.106-0.55,0.126
	C49.616,3.864,49.184,3.861,49.241,3.801"/>
<path fill="#808080" d="M54.919,8.082c0.013-0.093-0.057-0.323-0.99-0.462c0.098-1.206-0.057-2.193-0.468-2.933
	c0.639-0.053,0.813-0.117,0.884-0.204c-0.042-0.237-1.203-0.244-1.253-0.245c-0.124,0-1.218,0.002-1.475,0.235
	c0.001,0.014,0.002,0.032,0.003,0.046c0.015,0.011,0.032,0.026,0.047,0.036c0.179,0.076,0.429,0.126,1.114,0.146
	c0.405,0.731,0.559,1.704,0.462,2.895c-1.212,0.092-1.122,0.415-0.985,0.531C52.724,8.527,54.846,8.597,54.919,8.082 M52.327,4.509
	c-0.039-0.02-0.064-0.052,0.045-0.089c0.114-0.04,0.352-0.068,0.6-0.071c0.201-0.003,0.605,0.015,0.688,0.099
	C53.724,4.616,52.521,4.608,52.327,4.509 M52.865,8.025c-0.076-0.142,0.316-0.253,0.776-0.222c0.216,0.016,0.585,0.082,0.592,0.238
	C54.147,8.339,52.967,8.217,52.865,8.025"/>
<path fill="#808080" d="M58.191,29.718c0.181-0.112,0.384-0.241,0.428-0.566c0.079-0.606-0.922-1.564-1.894-0.699
	c-0.38,0.966,0.53,1.279,0.817,1.352c0.502,1.779,1.094,4.173,1.514,5.974c4.197,2.952,8.341,6.214,12.279,9.711
	c3.484-0.241,3.484-0.241,7.723-0.476c0.61-0.868,1.194-1.722,1.752-2.561c2.007,1.979,3.826,3.976,5.457,5.97
	c-0.153,1.007,0.34,1.345,0.495,1.423c0.717,0.369,1.291-0.71,0.828-1.56c-0.349-0.641-0.832-0.432-0.993-0.363
	c-1.761-2.166-3.745-4.331-5.95-6.471c-0.611,0.933-1.258,1.884-1.936,2.853c-2.157,0.122-5.032,0.303-7.188,0.454
	c-3.803-3.354-7.8-6.479-11.855-9.312C59.271,33.718,58.666,31.43,58.191,29.718"/>
<path fill="#808080" d="M72.494,35.786c0.874,0.097,1.251-0.902,0.6-1.595c-0.354-0.377-0.787-0.459-1.287-0.244
	c-8.72-6.478-18.438-11.294-27.641-13.938c-0.043,0.007-4.394,0.853-4.793,0.699c-0.146-0.056-0.664-0.206-1.171,0.215
	c-0.036,0.116-0.055,0.3,0.009,0.401c0.232,0.357,1.549,0.712,1.735-0.112c1.275-0.232,2.973-0.555,4.246-0.796
	c9.077,2.739,18.661,7.585,27.287,14.029C71.43,35.653,72.451,35.781,72.494,35.786"/>
<path fill="#808080" d="M23.038,92.162c-0.444-0.403-1.231-0.95-1.37-0.85c-0.005,0.076,0.058,0.162,0.278,0.383
	c-0.802-0.173-1.469-0.49-2-0.944l0.581,0.488c0.525,0.434,1.176,0.739,1.954,0.905c0.615,0.449,0.81,0.502,0.912,0.498
	c0.006-0.009,0.013-0.02,0.019-0.029C23.397,92.567,23.366,92.462,23.038,92.162"/>
<path fill="#808080" d="M88.918,64.157c-0.055-0.141-0.171-0.287-0.276-0.346c-0.464-0.253-1.18,0.406-0.998,1.366
	c-0.86,1.104-1.741,2.201-2.646,3.291c-7.64,0.744-7.64,0.744-10.789,1.025c-1.03-1.023-2.104-2.079-3.224-3.171
	c0.041-0.109,0.099-0.263,0.099-0.447c-0.002-0.671-0.796-1.392-1.679-0.606c-0.076,0.099-0.175,0.233-0.219,0.348
	c-0.284,0.729,0.348,1.656,1.335,1.207c1.186,1.148,2.322,2.258,3.409,3.325c3.331-0.293,3.331-0.293,11.209-1.085
	c0.952-1.146,1.883-2.302,2.786-3.461c0.027,0.013,0.063,0.033,0.093,0.045C88.606,65.86,89.194,64.886,88.918,64.157"/>
<path fill="#808080" d="M90.088,47.363c-0.197,0.114-0.306,0.335-0.385,0.497c-0.393,1.37,0.546,2.455,1.197,2.098
	c0.042-0.023,0.09-0.063,0.127-0.09c1.391,2.109,2.569,4.215,3.528,6.292c0.8-1.289,1.521-2.531,2.166-3.723
	c0.502,0.674,0.773-0.024,0.835-0.35c0.067-0.351,0.043-0.854-0.06-1.224c-0.206-0.754-0.653-1.003-0.919-0.513
	c-0.088,0.164-0.274,0.645-0.074,1.562c-0.576,1.068-1.216,2.175-1.915,3.32c-0.907-1.93-2.001-3.878-3.275-5.828
	C91.674,48.019,90.735,46.992,90.088,47.363 M90.08,48.766c-0.102-0.541,0.221-0.959,0.563-0.735
	c0.071,0.046,0.141,0.124,0.192,0.215c0.102,0.177,0.22,0.568,0.026,0.92C90.593,49.555,90.173,49.264,90.08,48.766 M96.76,51.629
	c-0.115-0.486,0.048-0.985,0.282-0.86c0.111,0.06,0.18,0.235,0.203,0.308c0.057,0.167,0.125,0.564-0.013,0.863
	C97.056,52.239,96.838,51.961,96.76,51.629"/>
<path fill="#808080" d="M92.117,25.517c-1.138-1.354-2.369-2.664-3.696-3.924c-0.284-0.271-0.572-0.538-0.864-0.803
	c-0.121-0.276-0.325-0.553-0.604-0.821c-0.008-0.008-0.828-0.781-0.951-0.385c0.056,0.559,1.133,1.602,1.537,1.488
	c0.291,0.264,0.578,0.532,0.864,0.804c1.154,1.095,2.236,2.231,3.249,3.398c-0.062,0.742-0.191,1.542-0.39,2.398
	c-1.038-0.341-2.471-0.63-3.509-0.969c-0.115-0.038-0.116-0.163-0.183-0.239c-0.28-0.316-0.622-0.514-0.85-0.492
	c-0.528,0.05-0.212,1.055,0.506,1.603c0.452,0.347,0.884,0.322,0.804-0.267c1.104,0.257,2.561,0.68,3.645,1.017
	C91.918,27.311,92.064,26.372,92.117,25.517"/>
<path fill="#808080" d="M80.229,12.801c0.207,0.445,1.531,1.334,1.751,1.174c0.002-0.069,0.002-0.089-0.124-0.244
	c2.674,1.063,3.853,1.806,5.729,3.618l-0.575-0.555l-0.805-0.745c-0.812-0.64-1.906-1.521-2.86-1.919
	c-0.584-0.245-1.397-0.498-1.944-0.815c-0.193-0.112-0.358-0.267-0.555-0.375c-0.462-0.255-0.556-0.237-0.617-0.191
	C80.229,12.765,80.229,12.786,80.229,12.801"/>
<path fill="#808080" d="M86.025,15.884l0.18,0.165c0.001,0.001,0.002,0.002,0.003,0.003C86.146,15.996,86.087,15.94,86.025,15.884"
	/>
<path fill="#808080" d="M89.68,81.16L89.68,81.16c-0.063-0.298-0.442-0.486-0.978,0.197c-0.385,0.627-0.272,1.024,0.036,1.094
	c-1.583,5.497-2.191,6.811-2.413,7.104l0.194-0.179c0.806-1.258,2.121-5.671,2.505-6.995C89.517,82.115,89.744,81.471,89.68,81.16
	 M88.773,81.89c-0.016-0.329,0.384-0.728,0.562-0.562c0.016,0.016,0.033,0.042,0.042,0.067c0.028,0.077,0.029,0.286-0.163,0.519
	C88.982,82.159,88.785,82.102,88.773,81.89"/>
<path fill="#808080" d="M72.729,76.791c0.752-0.471,0.557-1.107,0.43-1.294c-0.006-0.008-0.557-0.725-1.408-0.004
	c-0.547,0.655-0.281,1.237,0.276,1.401c-0.603,12.443-0.784,16.198,0.629,19.309c-3.628,2.603-7.013,4.487-9.766,5.317
	c-0.431,0.129-0.838,0.231-1.221,0.306l0.762-0.146c0.33-0.07,0.678-0.161,1.043-0.271c2.736-0.825,6.106-2.708,9.721-5.312
	C72.573,94.986,71.42,92.918,72.729,76.791"/>
<path fill="#808080" d="M32.884,59.585c4.265,5.855,9.227,11.582,14.653,16.737c0.29,0.275,0.58,0.548,0.87,0.817
	c-0.349,1.076,0.743,1.34,0.79,1.351c0.856,0.197,1.595-0.529,1.053-1.335c-0.295-0.393-0.75-0.533-1.353-0.416
	c-0.29-0.27-0.581-0.542-0.87-0.816c-5.598-5.32-10.72-11.23-15.107-17.25c-7.338,6.03-14.401,10.469-19.776,12.09
	c-4.555,1.375-7.242,0.531-8.1-2.038l0.236,0.685c0.886,2.536,3.584,3.361,8.133,1.988C18.716,69.797,25.653,65.475,32.884,59.585"
	/>
<path fill="#808080" d="M11.479,66.234c5.798-1.751,13.669-6.959,21.638-13.919C38.384,59.372,44.676,66.539,51.474,73
	c0.29,0.274,0.58,0.548,0.813,0.953c-0.135,0.964,0.606,1.197,0.836,1.245c0.841,0.177,1.596-0.617,1.065-1.424
	c-0.292-0.399-0.747-0.53-1.353-0.388c-0.288-0.271-0.577-0.545-0.868-0.82c-6.969-6.622-13.436-13.963-18.832-21.147
	c-8.039,7.08-16.015,12.394-21.861,14.159c-4.6,1.388-7.169,0.366-7.755-2.49l0.154,0.711C4.293,66.62,6.881,67.622,11.479,66.234"
	/>
<path fill="#808080" d="M43.94,2.843l0.005-0.005L32.987,4.13L33.3,8.028c-9.569,6.505-20.097,17.56-26.229,27.543l-3.718-0.357
	L2.1,47.725l0.005-0.008c-0.448,5.66,4.236,6.79,12.743,2.032c11.693-6.542,26.168-21.727,32.333-33.916
	C51.953,6.395,50.338,1.525,43.94,2.843"/>
<path fill="#999999" d="M33.917,13.079c-4.176,8.258-13.984,18.546-21.907,22.979c-7.922,4.432-10.959,1.33-6.784-6.928
	c4.176-8.259,13.985-18.547,21.907-22.979S38.094,4.82,33.917,13.079"/>
<path fill="#4CB389" d="M28.607,16.049c-2.63,5.201-8.808,11.682-13.798,14.474c-4.989,2.791-6.903,0.837-4.272-4.364
	c2.63-5.202,8.808-11.682,13.798-14.474C29.324,8.894,31.237,10.847,28.607,16.049"/>
</svg>
