<?xml version="1.0" encoding="utf-8"?>
<!-- Generator: Adobe Illustrator 16.0.2, SVG Export Plug-In . SVG Version: 6.00 Build 0)  -->
<!DOCTYPE svg PUBLIC "-//W3C//DTD SVG 1.1//EN" "http://www.w3.org/Graphics/SVG/1.1/DTD/svg11.dtd">
<svg version="1.1" id="Layer_1" xmlns="http://www.w3.org/2000/svg" xmlns:xlink="http://www.w3.org/1999/xlink" x="0px" y="0px"
	 width="210px" height="79px" viewBox="0 0 210 79" enable-background="new 0 0 210 79" xml:space="preserve">
<g>
	<defs>
		<path id="SVGID_1_" d="M85.919,0h-13.21v12.675v20.657H14.062V12.675h49.406V0H14.062H0.851v12.675v65.367h13.211V46.007h58.647
			v32.035h13.21V46.007h59.295v-0.024h41.027c12.634,0,22.876-10.243,22.876-22.876c0-12.636-10.242-22.878-22.876-22.878h-41.675
			v12.677h41.654v-0.013h0.021c5.64,0,10.212,4.571,10.212,10.214c0,5.639-4.572,10.212-10.212,10.212h-0.021v0.014h-41.007h-0.647
			H85.919V12.675h49.406V0H85.919z"/>
	</defs>
	<clipPath id="SVGID_2_">
		<use xlink:href="#SVGID_1_"  overflow="visible"/>
	</clipPath>
	
		<linearGradient id="SVGID_3_" gradientUnits="userSpaceOnUse" x1="-854.1919" y1="2374.1738" x2="-853.1919" y2="2374.1738" gradientTransform="matrix(208.2655 0 0 -208.2655 177899.6094 494497.625)">
		<stop  offset="0" style="stop-color:#66C4CC"/>
		<stop  offset="1" style="stop-color:#3376B4"/>
	</linearGradient>
	<rect x="0.851" clip-path="url(#SVGID_2_)" fill="url(#SVGID_3_)" width="208.266" height="78.042"/>
</g>
</svg>
