<?xml version="1.0" encoding="utf-8"?>
<!-- Generator: Adobe Illustrator 24.1.1, SVG Export Plug-In . SVG Version: 6.00 Build 0)  -->
<svg version="1.1" id="Layer_1" xmlns="http://www.w3.org/2000/svg" xmlns:xlink="http://www.w3.org/1999/xlink" x="0px" y="0px"
	 viewBox="0 0 1089.12 345.07" style="enable-background:new 0 0 1089.12 345.07;" xml:space="preserve">
<style type="text/css">
	.st0{fill:#343434;}
	.st1{fill:#1272B8;}
	.st2{fill:#59B88C;}
	.st3{fill:#CCCBCA;}
</style>
<g>
	<g>
		<path class="st0" d="M344.09,106.35H316.4v78.96h-19.66v-78.96h-27.69v-15.8h75.04V106.35z"/>
		<path class="st0" d="M437.09,90.54v94.76h-19.72v-40.82h-41.73v40.82h-19.72V90.54h19.72v40.23h41.73V90.54H437.09z"/>
		<path class="st0" d="M532.51,185.31h-17.7c-3.31,0-5.7-1.26-7.18-3.79l-18.03-29.06c-0.74-1.13-1.56-1.96-2.45-2.48
			c-0.89-0.52-2.21-0.78-3.95-0.78h-6.66v36.12h-19.59V90.54h29.78c6.62,0,12.28,0.69,16.98,2.06s8.56,3.28,11.56,5.71
			c3,2.44,5.2,5.35,6.6,8.72c1.39,3.38,2.09,7.09,2.09,11.14c0,3.14-0.45,6.11-1.34,8.92c-0.89,2.81-2.19,5.37-3.89,7.67
			c-1.7,2.31-3.79,4.35-6.27,6.14c-2.48,1.79-5.31,3.22-8.49,4.31c1.26,0.7,2.44,1.54,3.53,2.51c1.09,0.98,2.07,2.15,2.94,3.49
			L532.51,185.31z M486.6,135.41c3.18,0,5.92-0.4,8.23-1.21c2.31-0.81,4.2-1.92,5.68-3.33c1.48-1.41,2.57-3.08,3.27-5
			c0.7-1.92,1.04-4.01,1.04-6.27c0-4.48-1.49-7.97-4.47-10.45c-2.98-2.48-7.52-3.72-13.62-3.72h-10.19v29.98H486.6z"/>
		<path class="st0" d="M561.5,105.89v24.36h31.61v14.83H561.5v24.88h40.62v15.35h-60.35V90.54h60.35v15.35H561.5z"/>
		<path class="st0" d="M636.48,105.89v24.36h31.61v14.83h-31.61v24.88h40.62v15.35h-60.35V90.54h60.35v15.35H636.48z"/>
		<path class="st0" d="M711.45,105.89v26.19h34.09v15.41h-34.09v37.81h-19.72V90.54h60.35v15.35H711.45z"/>
		<path class="st0" d="M856.37,137.89c0,6.92-1.17,13.35-3.49,19.27c-2.33,5.92-5.62,11.04-9.86,15.35
			c-4.25,4.31-9.35,7.7-15.31,10.16c-5.97,2.46-12.58,3.69-19.85,3.69c-7.27,0-13.89-1.23-19.85-3.69
			c-5.97-2.46-11.08-5.84-15.35-10.16c-4.27-4.31-7.57-9.43-9.89-15.35c-2.33-5.92-3.49-12.34-3.49-19.27s1.16-13.33,3.49-19.23
			c2.33-5.9,5.63-11,9.89-15.32c4.27-4.31,9.38-7.7,15.35-10.16c5.96-2.46,12.58-3.69,19.85-3.69c7.27,0,13.89,1.23,19.85,3.69
			c5.96,2.46,11.07,5.86,15.31,10.19c4.25,4.33,7.53,9.45,9.86,15.35C855.21,124.62,856.37,131.01,856.37,137.89z M836.32,137.89
			c0-4.96-0.65-9.41-1.96-13.36c-1.31-3.94-3.19-7.29-5.65-10.06c-2.46-2.76-5.44-4.88-8.95-6.33c-3.5-1.46-7.48-2.19-11.92-2.19
			s-8.42,0.73-11.95,2.19c-3.53,1.46-6.52,3.57-8.98,6.33c-2.46,2.77-4.34,6.12-5.65,10.06c-1.31,3.94-1.96,8.39-1.96,13.36
			c0,5.01,0.65,9.48,1.96,13.42c1.31,3.94,3.19,7.28,5.65,10.02c2.46,2.74,5.45,4.84,8.98,6.3c3.53,1.46,7.51,2.19,11.95,2.19
			s8.41-0.73,11.92-2.19c3.5-1.46,6.49-3.56,8.95-6.3c2.46-2.74,4.34-6.08,5.65-10.02C835.67,147.37,836.32,142.9,836.32,137.89z"/>
		<path class="st0" d="M926.97,169.37v15.94h-56.23V90.54h19.59v78.83H926.97z"/>
		<path class="st0" d="M1023.89,137.89c0,6.92-1.17,13.29-3.49,19.1c-2.33,5.81-5.62,10.81-9.86,14.99
			c-4.25,4.18-9.35,7.45-15.32,9.8c-5.97,2.35-12.58,3.53-19.85,3.53h-36.44V90.54h36.44c7.27,0,13.89,1.18,19.85,3.53
			c5.96,2.35,11.07,5.63,15.32,9.83c4.25,4.2,7.53,9.2,9.86,14.99C1022.73,124.68,1023.89,131.01,1023.89,137.89z M1003.78,137.89
			c0-4.96-0.65-9.43-1.96-13.39c-1.31-3.96-3.18-7.31-5.62-10.06c-2.44-2.74-5.41-4.85-8.91-6.33c-3.51-1.48-7.48-2.22-11.92-2.22
			h-16.72v64.07h16.72c4.44,0,8.41-0.73,11.92-2.19c3.5-1.46,6.48-3.57,8.91-6.33c2.44-2.76,4.31-6.13,5.62-10.09
			C1003.12,147.38,1003.78,142.9,1003.78,137.89z"/>
	</g>
	<g>
		<path class="st0" d="M334.71,215.01v48.7h-1.65c-0.3,0-0.55-0.05-0.74-0.16c-0.2-0.1-0.38-0.28-0.57-0.53l-31.63-42.27
			c0.07,0.69,0.1,1.34,0.1,1.96v40.99h-3.1v-48.7h1.76c0.32,0,0.57,0.04,0.74,0.12c0.17,0.08,0.36,0.26,0.57,0.53l31.56,42.17
			c-0.07-0.69-0.1-1.34-0.1-1.96v-40.86H334.71z"/>
		<path class="st0" d="M416.56,260.79l-0.07,2.93h-29.19v-48.7h29.19v2.92h-25.64v19.69h21.34v2.86h-21.34v20.31H416.56z"/>
		<path class="st0" d="M495.04,218h-17.11v45.71h-3.54V218h-17.21v-2.99h37.86V218z"/>
		<path class="st0" d="M599.02,215.01l-15.32,48.7h-3.17l-14.39-42.27c-0.18-0.57-0.34-1.17-0.48-1.79
			c-0.14,0.62-0.3,1.22-0.48,1.79l-14.42,42.27h-3.13l-15.35-48.7h2.93c0.67,0,1.09,0.31,1.27,0.93l12.29,40.03
			c0.25,0.92,0.48,1.96,0.69,3.13c0.12-0.6,0.23-1.15,0.34-1.67c0.11-0.52,0.25-1,0.41-1.46l13.77-40.03
			c0.09-0.25,0.25-0.47,0.48-0.65c0.23-0.18,0.5-0.28,0.83-0.28h0.96c0.32,0,0.58,0.09,0.79,0.26c0.21,0.17,0.37,0.4,0.48,0.67
			l13.77,40.03c0.16,0.44,0.3,0.92,0.43,1.45c0.13,0.53,0.25,1.08,0.36,1.65c0.11-0.57,0.22-1.12,0.33-1.63
			c0.1-0.52,0.21-1,0.33-1.46l12.29-40.03c0.07-0.25,0.22-0.47,0.46-0.65c0.24-0.18,0.52-0.28,0.84-0.28H599.02z"/>
		<path class="st0" d="M687.83,239.34c0,3.76-0.56,7.18-1.69,10.24c-1.13,3.06-2.71,5.68-4.75,7.85c-2.04,2.17-4.49,3.84-7.35,5.03
			c-2.86,1.18-6.01,1.77-9.45,1.77c-3.44,0-6.59-0.59-9.43-1.77s-5.29-2.86-7.33-5.03c-2.04-2.17-3.63-4.79-4.75-7.85
			c-1.13-3.06-1.69-6.48-1.69-10.24c0-3.74,0.56-7.14,1.69-10.21c1.12-3.06,2.71-5.68,4.75-7.85c2.04-2.17,4.49-3.85,7.33-5.04
			c2.85-1.19,5.99-1.79,9.43-1.79c3.44,0,6.59,0.59,9.45,1.77c2.86,1.18,5.31,2.86,7.35,5.04c2.04,2.18,3.63,4.8,4.75,7.87
			C687.27,232.2,687.83,235.6,687.83,239.34z M684.18,239.34c0-3.4-0.47-6.45-1.41-9.16c-0.94-2.71-2.27-5-3.99-6.88
			c-1.72-1.88-3.79-3.32-6.2-4.32c-2.41-1-5.07-1.5-7.99-1.5c-2.89,0-5.54,0.5-7.95,1.5c-2.41,1-4.48,2.44-6.21,4.32
			s-3.08,4.18-4.03,6.88c-0.95,2.71-1.43,5.76-1.43,9.16c0,3.42,0.48,6.48,1.43,9.17s2.29,4.99,4.03,6.87
			c1.73,1.88,3.8,3.32,6.21,4.3c2.41,0.99,5.06,1.48,7.95,1.48c2.91,0,5.58-0.49,7.99-1.48c2.41-0.99,4.47-2.42,6.2-4.3
			c1.72-1.88,3.05-4.17,3.99-6.87C683.71,245.82,684.18,242.76,684.18,239.34z"/>
		<path class="st0" d="M770.85,263.71h-3.03c-0.39,0-0.72-0.06-0.98-0.19c-0.26-0.13-0.51-0.36-0.74-0.71l-15.63-19.76
			c-0.18-0.25-0.37-0.47-0.57-0.65c-0.19-0.18-0.41-0.33-0.65-0.43s-0.53-0.18-0.86-0.22c-0.33-0.05-0.74-0.07-1.22-0.07h-6.37
			v22.03h-3.55v-48.7h12.46c5.6,0,9.79,1.08,12.58,3.25c2.79,2.17,4.18,5.35,4.18,9.55c0,1.86-0.32,3.56-0.96,5.09
			c-0.64,1.54-1.57,2.89-2.77,4.04c-1.2,1.16-2.66,2.11-4.37,2.84c-1.71,0.73-3.63,1.23-5.77,1.48c0.55,0.34,1.04,0.8,1.48,1.38
			L770.85,263.71z M749.23,239.07c2.16,0,4.09-0.26,5.8-0.77c1.71-0.52,3.16-1.26,4.34-2.22s2.08-2.12,2.7-3.48
			c0.62-1.35,0.93-2.88,0.93-4.58c0-3.46-1.13-6.04-3.39-7.71c-2.26-1.67-5.56-2.51-9.9-2.51h-8.92v21.27H749.23z"/>
		<path class="st0" d="M820.79,237.48h2.89c0.44,0,0.81-0.02,1.14-0.05c0.32-0.03,0.61-0.1,0.88-0.19s0.5-0.22,0.72-0.4
			c0.22-0.17,0.45-0.38,0.71-0.64l19.65-20.2c0.34-0.39,0.68-0.65,1.02-0.79c0.33-0.14,0.73-0.21,1.19-0.21h2.82l-21.27,21.86
			c-0.44,0.46-0.82,0.81-1.15,1.07c-0.33,0.25-0.71,0.46-1.12,0.62c0.48,0.14,0.92,0.35,1.31,0.64c0.39,0.29,0.78,0.66,1.17,1.12
			l22.41,23.41h-2.86c-0.6,0-1.03-0.07-1.29-0.22s-0.52-0.38-0.77-0.71l-20.58-21.06c-0.25-0.25-0.49-0.47-0.71-0.65
			s-0.46-0.34-0.72-0.46c-0.26-0.13-0.57-0.22-0.93-0.28c-0.36-0.06-0.81-0.09-1.36-0.09h-3.13v23.47h-3.55v-48.7h3.55V237.48z"/>
	</g>
</g>
<g>
	<g>
		<path class="st1" d="M225.81,135.47H33.7V91.58h169.74c12.36,0,22.38,10.02,22.38,22.38V135.47L225.81,135.47z"/>
		<path class="st1" d="M203.43,91.58H33.7v43.89h192.12v-21.51C225.81,101.6,215.79,91.58,203.43,91.58L203.43,91.58z"/>
	</g>
	<polygon class="st2" points="225.75,199.35 89.93,199.35 89.93,155.46 225.75,155.46 225.75,199.35 	"/>
	<path class="st3" d="M203.32,263.23H33.7v-43.89h192.12v21.39C225.81,253.16,215.74,263.23,203.32,263.23L203.32,263.23z"/>
</g>
</svg>
