<?xml version="1.0" encoding="utf-8"?>
<!-- Generator: Adobe Illustrator 23.0.0, SVG Export Plug-In . SVG Version: 6.00 Build 0)  -->
<svg version="1.1" id="Layer_1" xmlns="http://www.w3.org/2000/svg" xmlns:xlink="http://www.w3.org/1999/xlink" x="0px" y="0px"
	 viewBox="0 0 1089.1 345.1" style="enable-background:new 0 0 1089.1 345.1;" xml:space="preserve">
<style type="text/css">
	.st0{fill:#343434;}
	.st1{fill:#1272B8;}
	.st2{fill:#59B88C;}
	.st3{fill:#CCCBCA;}
</style>
<g>
	<g>
		<path class="st0" d="M308.1,141h-27.7v79h-19.7v-79H233v-15.8h75V141z"/>
		<path class="st0" d="M401.1,125.1v94.8h-19.7v-40.8h-41.7v40.8h-19.7v-94.8h19.7v40.2h41.7v-40.2H401.1z"/>
		<path class="st0" d="M496.5,219.9h-17.7c-3.3,0-5.7-1.3-7.2-3.8l-18-29.1c-0.7-1.1-1.6-2-2.5-2.5s-2.2-0.8-4-0.8h-6.7v36.1h-19.6
			v-94.8h29.8c6.6,0,12.3,0.7,17,2.1s8.6,3.3,11.6,5.7c3,2.4,5.2,5.4,6.6,8.7c1.4,3.4,2.1,7.1,2.1,11.1c0,3.1-0.5,6.1-1.3,8.9
			s-2.2,5.4-3.9,7.7c-1.7,2.3-3.8,4.4-6.3,6.1c-2.5,1.8-5.3,3.2-8.5,4.3c1.3,0.7,2.4,1.5,3.5,2.5c1.1,1,2.1,2.1,2.9,3.5L496.5,219.9
			z M450.6,170c3.2,0,5.9-0.4,8.2-1.2s4.2-1.9,5.7-3.3c1.5-1.4,2.6-3.1,3.3-5c0.7-1.9,1-4,1-6.3c0-4.5-1.5-8-4.5-10.4
			s-7.5-3.7-13.6-3.7h-10.2v30H450.6z"/>
		<path class="st0" d="M525.5,140.5v24.4h31.6v14.8h-31.6v24.9h40.6v15.4h-60.3v-94.8h60.3v15.4H525.5z"/>
		<path class="st0" d="M600.5,140.5v24.4h31.6v14.8h-31.6v24.9h40.6v15.4h-60.3v-94.8h60.3v15.4H600.5z"/>
		<path class="st0" d="M675.5,140.5v26.2h34.1v15.4h-34.1v37.8h-19.7v-94.8h60.3v15.4H675.5z"/>
		<path class="st0" d="M820.4,172.5c0,6.9-1.2,13.4-3.5,19.3c-2.3,5.9-5.6,11-9.9,15.4c-4.3,4.3-9.3,7.7-15.3,10.2
			c-6,2.5-12.6,3.7-19.8,3.7c-7.3,0-13.9-1.2-19.8-3.7c-6-2.5-11.1-5.8-15.3-10.2c-4.3-4.3-7.6-9.4-9.9-15.4
			c-2.3-5.9-3.5-12.3-3.5-19.3c0-6.9,1.2-13.3,3.5-19.2s5.6-11,9.9-15.3c4.3-4.3,9.4-7.7,15.3-10.2c6-2.5,12.6-3.7,19.8-3.7
			c7.3,0,13.9,1.2,19.8,3.7c6,2.5,11.1,5.9,15.3,10.2c4.3,4.3,7.5,9.4,9.9,15.3C819.2,159.2,820.4,165.6,820.4,172.5z M800.3,172.5
			c0-5-0.7-9.4-2-13.4c-1.3-3.9-3.2-7.3-5.7-10.1c-2.5-2.8-5.4-4.9-9-6.3c-3.5-1.5-7.5-2.2-11.9-2.2s-8.4,0.7-12,2.2
			c-3.5,1.5-6.5,3.6-9,6.3c-2.5,2.8-4.3,6.1-5.7,10.1c-1.3,3.9-2,8.4-2,13.4c0,5,0.7,9.5,2,13.4s3.2,7.3,5.7,10
			c2.5,2.7,5.5,4.8,9,6.3c3.5,1.5,7.5,2.2,12,2.2s8.4-0.7,11.9-2.2c3.5-1.5,6.5-3.6,9-6.3c2.5-2.7,4.3-6.1,5.7-10
			S800.3,177.5,800.3,172.5z"/>
		<path class="st0" d="M891,204v15.9h-56.2v-94.8h19.6V204H891z"/>
		<path class="st0" d="M987.9,172.5c0,6.9-1.2,13.3-3.5,19.1c-2.3,5.8-5.6,10.8-9.9,15c-4.3,4.2-9.3,7.5-15.3,9.8
			c-6,2.4-12.6,3.5-19.8,3.5h-36.4v-94.8h36.4c7.3,0,13.9,1.2,19.8,3.5c6,2.4,11.1,5.6,15.3,9.8s7.5,9.2,9.9,15
			C986.7,159.3,987.9,165.6,987.9,172.5z M967.8,172.5c0-5-0.7-9.4-2-13.4s-3.2-7.3-5.6-10.1c-2.4-2.7-5.4-4.8-8.9-6.3
			c-3.5-1.5-7.5-2.2-11.9-2.2h-16.7v64.1h16.7c4.4,0,8.4-0.7,11.9-2.2c3.5-1.5,6.5-3.6,8.9-6.3c2.4-2.8,4.3-6.1,5.6-10.1
			C967.1,182,967.8,177.5,967.8,172.5z"/>
	</g>
</g>
<g>
	<g>
		<path class="st1" d="M204,149.3H93.5v-25.2h97.6c7.1,0,12.9,5.8,12.9,12.9L204,149.3L204,149.3z"/>
		<path class="st1" d="M191.1,124.1H93.5v25.2H204v-12.4C204,129.8,198.2,124.1,191.1,124.1L191.1,124.1z"/>
	</g>
	<polygon class="st2" points="204,186 125.9,186 125.9,160.8 204,160.8 	"/>
	<path class="st3" d="M191.1,222.8H93.5v-25.2H204v12.3C204,217,198.2,222.8,191.1,222.8L191.1,222.8z"/>
</g>
</svg>
