<?xml version="1.0" encoding="utf-8"?>
<!-- Generator: Adobe Illustrator 16.0.2, SVG Export Plug-In . SVG Version: 6.00 Build 0)  -->
<!DOCTYPE svg PUBLIC "-//W3C//DTD SVG 1.1//EN" "http://www.w3.org/Graphics/SVG/1.1/DTD/svg11.dtd">
<svg version="1.1" id="Layer_1" xmlns="http://www.w3.org/2000/svg" xmlns:xlink="http://www.w3.org/1999/xlink" x="0px" y="0px"
	 width="200px" height="200px" viewBox="0 0 200 200" enable-background="new 0 0 200 200" xml:space="preserve">
<path fill="#4CB389" d="M100.008,194.8c-0.392,0-0.785-0.07-1.161-0.207l-23.017-8.464C37.661,172.092,13,140.782,13,106.364V24.033
	c0-1.597,1.123-2.973,2.687-3.294L99.333,3.592c0.446-0.089,0.905-0.089,1.349,0l83.628,17.147c1.565,0.321,2.688,1.697,2.688,3.294
	v82.331c0,16.984-5.95,33.477-17.205,47.698c-3.291,4.154-7.027,8.1-11.11,11.723c-4.09,3.642-8.517,6.959-13.153,9.855
	c-6.508,4.154-13.697,7.689-21.345,10.491l-23.017,8.461C100.792,194.729,100.4,194.8,100.008,194.8 M19.724,26.775v79.589
	c0,31.567,22.934,60.4,58.428,73.454l21.856,8.036l21.859-8.036c7.194-2.636,13.946-5.954,20.072-9.863
	c4.344-2.714,8.465-5.803,12.277-9.195c3.791-3.366,7.257-7.024,10.302-10.871c10.308-13.021,15.755-28.071,15.755-43.524V26.775
	l-80.266-16.457L19.724,26.775z"/>
<path fill="#4CB389" d="M143.75,176.152c-0.916,0-1.821-0.374-2.477-1.087L13.888,36.568C13.316,35.948,13,35.136,13,34.293v-10.26
	c0-1.597,1.123-2.973,2.687-3.294l10.111-2.073c1.154-0.236,2.351,0.15,3.149,1.018l129.979,141.312
	c0.611,0.661,0.929,1.543,0.884,2.442c-0.045,0.9-0.45,1.745-1.123,2.343c-4.094,3.646-8.521,6.963-13.157,9.859
	C144.979,175.984,144.363,176.152,143.75,176.152 M19.724,32.981l124.579,135.445c2.525-1.688,4.97-3.509,7.316-5.442L25.285,25.636
	l-5.561,1.14V32.981z"/>
</svg>
