<?xml version="1.0" encoding="utf-8"?>
<!-- Generator: Adobe Illustrator 16.0.2, SVG Export Plug-In . SVG Version: 6.00 Build 0)  -->
<!DOCTYPE svg PUBLIC "-//W3C//DTD SVG 1.1//EN" "http://www.w3.org/Graphics/SVG/1.1/DTD/svg11.dtd">
<svg version="1.1" id="Layer_1" xmlns="http://www.w3.org/2000/svg" xmlns:xlink="http://www.w3.org/1999/xlink" x="0px" y="0px"
	 width="200px" height="200px" viewBox="0 0 200 200" enable-background="new 0 0 200 200" xml:space="preserve">
<path fill="#4CB389" d="M99.971,189.693c-49.918,0-90.53-40.613-90.53-90.531c0-49.919,40.612-90.53,90.53-90.53
	c49.919,0,90.531,40.611,90.531,90.53C190.502,149.08,149.891,189.693,99.971,189.693 M99.971,15.719
	c-46.01,0-83.442,37.432-83.442,83.443c0,46.011,37.432,83.443,83.442,83.443c46.012,0,83.444-37.433,83.444-83.443
	C183.415,53.151,145.983,15.719,99.971,15.719"/>
<path fill="#4CB389" d="M99.971,170.277c-39.212,0-71.114-31.903-71.114-71.115s31.902-71.113,71.114-71.113
	c39.212,0,71.114,31.901,71.114,71.113S139.184,170.277,99.971,170.277 M99.971,35.136c-35.304,0-64.027,28.722-64.027,64.026
	c0,35.305,28.723,64.027,64.027,64.027c35.305,0,64.027-28.723,64.027-64.027C163.998,63.858,135.276,35.136,99.971,35.136"/>
<path fill="#4CB389" d="M99.971,102.706c-1.957,0-3.543-1.587-3.543-3.544v-50.28c0-1.957,1.586-3.543,3.543-3.543
	c1.957,0,3.542,1.586,3.542,3.543v50.28C103.514,101.119,101.928,102.706,99.971,102.706"/>
<path fill="#4CB389" d="M99.971,102.706c-0.907,0-1.813-0.347-2.505-1.039c-1.384-1.383-1.384-3.626,0-5.01l19.279-19.278
	c1.383-1.384,3.626-1.384,5.011,0c1.383,1.383,1.383,3.626,0,5.01l-19.279,19.278C101.784,102.359,100.878,102.706,99.971,102.706"
	/>
</svg>
