<?xml version="1.0" encoding="utf-8"?>
<!-- Generator: Adobe Illustrator 16.0.2, SVG Export Plug-In . SVG Version: 6.00 Build 0)  -->
<!DOCTYPE svg PUBLIC "-//W3C//DTD SVG 1.1//EN" "http://www.w3.org/Graphics/SVG/1.1/DTD/svg11.dtd">
<svg version="1.1" id="Layer_1" xmlns="http://www.w3.org/2000/svg" xmlns:xlink="http://www.w3.org/1999/xlink" x="0px" y="0px"
	 width="200px" height="200px" viewBox="0 0 200 200" enable-background="new 0 0 200 200" xml:space="preserve">
<path fill="#4CB389" d="M153.487,167.317c-32.434,32.996-85.665,33.454-118.662,1.021C1.829,135.905,1.371,82.673,33.805,49.676
	c32.434-32.996,85.665-33.455,118.662-1.021C185.463,81.089,185.921,134.32,153.487,167.317 M39.027,54.81
	C9.423,84.927,9.842,133.513,39.959,163.116c30.118,29.603,78.703,29.186,108.307-0.932c29.603-30.117,29.184-78.703-0.934-108.306
	C117.215,24.275,68.629,24.693,39.027,54.81"/>
<path fill="#4CB389" d="M134.99,149.136c-22.408,22.798-59.187,23.114-81.984,0.706c-22.797-22.408-23.113-59.186-0.704-81.984
	c22.408-22.797,59.186-23.114,81.984-0.706C157.083,89.56,157.398,126.338,134.99,149.136 M57.523,72.991
	c-19.578,19.918-19.301,52.049,0.617,71.628c19.917,19.578,52.051,19.303,71.628-0.615c19.578-19.919,19.301-52.051-0.617-71.628
	C109.234,52.796,77.102,53.072,57.523,72.991"/>
<path fill="#4CB389" d="M118.453,132.88c-13.445,13.68-35.512,13.87-49.191,0.424c-13.679-13.444-13.868-35.511-0.422-49.19
	s35.51-13.871,49.191-0.424C131.709,97.136,131.898,119.202,118.453,132.88 M74.061,89.246
	c-10.615,10.799-10.464,28.222,0.334,38.835c10.799,10.614,28.221,10.466,38.837-0.333c10.613-10.8,10.462-28.22-0.337-38.834
	C102.097,78.298,84.676,78.447,74.061,89.246"/>
<path fill="#4CB389" d="M180.315,25.545l-84.058,85.519c-1.418,1.441-3.736,1.463-5.178,0.045c-1.443-1.417-1.462-3.735-0.044-5.178
	l84.059-85.519c1.417-1.442,3.735-1.462,5.178-0.045C181.715,21.786,181.733,24.103,180.315,25.545"/>
<path fill="#4CB389" d="M160.211,45.999c-0.657,0.668-1.568,1.087-2.579,1.095c-2.021,0.019-3.677-1.607-3.694-3.63l-0.171-20.009
	c-0.019-2.022,1.606-3.676,3.629-3.693c2.022-0.019,3.676,1.608,3.694,3.63l0.172,20.01
	C161.271,44.414,160.868,45.332,160.211,45.999"/>
<path fill="#4CB389" d="M180.464,45.824c-0.657,0.669-1.567,1.087-2.579,1.096l-20.253,0.175c-2.021,0.019-3.678-1.608-3.694-3.631
	c-0.018-2.022,1.608-3.675,3.63-3.691l20.253-0.176c2.022-0.018,3.678,1.608,3.693,3.631
	C181.522,44.239,181.121,45.157,180.464,45.824"/>
<path fill="#4CB389" d="M171.814,34.194c-0.657,0.669-1.567,1.087-2.578,1.095c-2.023,0.019-3.678-1.608-3.694-3.63l-0.172-20.01
	c-0.018-2.021,1.606-3.675,3.629-3.692c2.022-0.018,3.676,1.608,3.693,3.63l0.172,20.01
	C172.873,32.608,172.472,33.526,171.814,34.194"/>
<path fill="#4CB389" d="M192.066,34.021c-0.656,0.667-1.567,1.086-2.578,1.095l-20.252,0.174c-2.023,0.019-3.678-1.608-3.694-3.63
	c-0.017-2.022,1.607-3.675,3.63-3.692l20.252-0.175c2.021-0.018,3.677,1.608,3.693,3.63
	C193.126,32.435,192.724,33.352,192.066,34.021"/>
</svg>
