<svg xmlns="http://www.w3.org/2000/svg" xmlns:xlink="http://www.w3.org/1999/xlink" viewBox="0 0 787.22 689.41"><defs><style>.cls-1,.cls-44{fill:none;}.cls-2{isolation:isolate;}.cls-3{opacity:0.6;mix-blend-mode:multiply;}.cls-4{clip-path:url(#clip-path);}.cls-5{clip-path:url(#clip-path-2);}.cls-6{fill:url(#radial-gradient);}.cls-7{clip-path:url(#clip-path-3);}.cls-8{clip-path:url(#clip-path-4);}.cls-9{fill:url(#radial-gradient-2);}.cls-10{clip-path:url(#clip-path-5);}.cls-11{clip-path:url(#clip-path-6);}.cls-12{fill:url(#radial-gradient-3);}.cls-13{clip-path:url(#clip-path-7);}.cls-14{clip-path:url(#clip-path-8);}.cls-15{fill:url(#radial-gradient-4);}.cls-16{clip-path:url(#clip-path-9);}.cls-17{clip-path:url(#clip-path-10);}.cls-18{fill:url(#radial-gradient-5);}.cls-19{clip-path:url(#clip-path-11);}.cls-20{clip-path:url(#clip-path-12);}.cls-21{fill:url(#radial-gradient-6);}.cls-22{clip-path:url(#clip-path-13);}.cls-23{fill:url(#linear-gradient);}.cls-24{clip-path:url(#clip-path-14);}.cls-25{fill:url(#linear-gradient-2);}.cls-26{fill:#ccc;}.cls-27{clip-path:url(#clip-path-15);}.cls-28{fill:url(#linear-gradient-3);}.cls-29{clip-path:url(#clip-path-16);}.cls-30{fill:url(#linear-gradient-4);}.cls-31{clip-path:url(#clip-path-17);}.cls-32{fill:url(#linear-gradient-5);}.cls-33{clip-path:url(#clip-path-18);}.cls-34{fill:url(#linear-gradient-6);}.cls-35{clip-path:url(#clip-path-19);}.cls-36{fill:url(#linear-gradient-7);}.cls-37{fill:#b3b3b3;}.cls-38{clip-path:url(#clip-path-20);}.cls-39{fill:url(#linear-gradient-8);}.cls-40{opacity:0.65;}.cls-41{clip-path:url(#clip-path-21);}.cls-42{clip-path:url(#clip-path-22);}.cls-43{fill:url(#linear-gradient-9);}.cls-44{stroke:#e6e6e6;stroke-miterlimit:10;stroke-width:0.25px;}.cls-45{clip-path:url(#clip-path-23);}.cls-46{clip-path:url(#clip-path-24);}.cls-47{fill:url(#linear-gradient-10);}.cls-48{clip-path:url(#clip-path-25);}.cls-49{clip-path:url(#clip-path-26);}.cls-50{fill:url(#linear-gradient-11);}.cls-51{fill:gray;}.cls-52{clip-path:url(#clip-path-27);}.cls-53{fill:url(#linear-gradient-12);}.cls-54{fill:#0071bc;}.cls-55{fill:#4ec48f;}.cls-56{clip-path:url(#clip-path-28);}.cls-57{fill:url(#linear-gradient-13);}.cls-58{clip-path:url(#clip-path-29);}.cls-59{fill:url(#linear-gradient-14);}.cls-60{clip-path:url(#clip-path-30);}.cls-61{fill:url(#linear-gradient-15);}.cls-62{fill:#22b573;}.cls-63{fill:url(#linear-gradient-16);}</style><clipPath id="clip-path" transform="translate(177.95 -38.39)"><rect class="cls-1" x="41.23" y="670.4" width="346.3" height="54.27"/></clipPath><clipPath id="clip-path-2" transform="translate(177.95 -38.39)"><path class="cls-1" d="M41.23,697.67c.67,15,78.73,27.07,174.36,27s172.6-12.29,171.93-27.27-78.73-27.08-174.36-27S40.56,682.68,41.23,697.67"/></clipPath><radialGradient id="radial-gradient" cx="-741.95" cy="5003.38" r="1" gradientTransform="matrix(-173.14, 0.14, -1.21, -27.14, -121994.68, 136542.48)" gradientUnits="userSpaceOnUse"><stop offset="0" stop-color="#c6c6c6"/><stop offset="0.23" stop-color="#c6c6c6"/><stop offset="0.52" stop-color="#e2e2e2"/><stop offset="0.81" stop-color="#f7f7f7"/><stop offset="1" stop-color="#fff"/></radialGradient><clipPath id="clip-path-3" transform="translate(177.95 -38.39)"><rect class="cls-1" x="98.42" y="679.36" width="231.91" height="36.35"/></clipPath><clipPath id="clip-path-4" transform="translate(177.95 -38.39)"><path class="cls-1" d="M98.42,697.62c.45,10,52.73,18.14,116.77,18.09s115.58-8.23,115.13-18.27-52.72-18.13-116.76-18.08S98,687.59,98.42,697.62"/></clipPath><radialGradient id="radial-gradient-2" cx="-743.17" cy="4959.57" r="1" gradientTransform="matrix(-115.94, 0.09, -0.81, -18.17, -81743.04, 90859.18)" xlink:href="#radial-gradient"/><clipPath id="clip-path-5" transform="translate(177.95 -38.39)"><rect class="cls-1" x="41.23" y="670.4" width="346.28" height="54.27"/></clipPath><clipPath id="clip-path-6" transform="translate(177.95 -38.39)"><path class="cls-1" d="M41.24,697.85c.68,15,78.75,27,174.37,26.82s172.58-12.47,171.9-27.46-78.75-27-174.37-26.81S40.56,682.87,41.24,697.85"/></clipPath><radialGradient id="radial-gradient-3" cx="-741.94" cy="5003.36" r="1" gradientTransform="matrix(-173.13, 0.32, -1.24, -27.14, -121872.66, 136678.54)" xlink:href="#radial-gradient"/><clipPath id="clip-path-7" transform="translate(177.95 -38.39)"><rect class="cls-1" x="98.42" y="679.36" width="231.9" height="36.35"/></clipPath><clipPath id="clip-path-8" transform="translate(177.95 -38.39)"><path class="cls-1" d="M98.43,697.75c.46,10,52.74,18.07,116.77,18s115.58-8.35,115.12-18.39-52.74-18.08-116.77-18S98,687.71,98.43,697.75"/></clipPath><radialGradient id="radial-gradient-4" cx="-743.15" cy="4959.55" r="1" gradientTransform="matrix(-115.94, 0.21, -0.83, -18.17, -81661.33, 90950.3)" xlink:href="#radial-gradient"/><clipPath id="clip-path-9" transform="translate(177.95 -38.39)"><rect class="cls-1" x="41.28" y="670.37" width="346.2" height="54.33"/></clipPath><clipPath id="clip-path-10" transform="translate(177.95 -38.39)"><path class="cls-1" d="M41.28,698.76c.75,15,78.84,26.58,174.44,25.91s172.49-13.37,171.75-28.36S308.62,669.72,213,670.4,40.54,683.77,41.28,698.76"/></clipPath><radialGradient id="radial-gradient-5" cx="-741.88" cy="5003.28" r="1" gradientTransform="matrix(-173.09, 1.22, -1.35, -27.14, -121273.01, 137343.62)" xlink:href="#radial-gradient"/><clipPath id="clip-path-11" transform="translate(177.95 -38.39)"><rect class="cls-1" x="98.45" y="679.34" width="231.84" height="36.39"/></clipPath><clipPath id="clip-path-12" transform="translate(177.95 -38.39)"><path class="cls-1" d="M98.46,698.35c.49,10,52.8,17.81,116.82,17.35s115.51-9,115-19-52.8-17.8-116.82-17.35-115.51,9-115,19"/></clipPath><radialGradient id="radial-gradient-6" cx="-743.07" cy="4959.43" r="1" gradientTransform="matrix(-115.91, 0.82, -0.9, -18.17, -81259.77, 91395.67)" xlink:href="#radial-gradient"/><clipPath id="clip-path-13" transform="translate(177.95 -38.39)"><path class="cls-1" d="M108.08,38.39A7.13,7.13,0,0,0,101,45.52V596.18H329.39V46a7.65,7.65,0,0,0-7.64-7.65Z"/></clipPath><linearGradient id="linear-gradient" x1="-737.12" y1="5081.63" x2="-736.12" y2="5081.63" gradientTransform="matrix(228.44, 0, 0, -228.44, 168669.43, 1161145.13)" gradientUnits="userSpaceOnUse"><stop offset="0" stop-color="#e6e6e6"/><stop offset="0.02" stop-color="#eaeaea"/><stop offset="0.09" stop-color="#f6f6f6"/><stop offset="0.2" stop-color="#fdfdfd"/><stop offset="0.48" stop-color="#fff"/><stop offset="1" stop-color="#f2f2f2"/><stop offset="1" stop-color="#f2f2f2"/></linearGradient><clipPath id="clip-path-14" transform="translate(177.95 -38.39)"><rect class="cls-1" x="100.95" y="596.18" width="228.44" height="20.94"/></clipPath><linearGradient id="linear-gradient-2" x1="-737.12" y1="5081.63" x2="-736.12" y2="5081.63" gradientTransform="matrix(228.44, 0, 0, -228.44, 168669.43, 1161434.5)" xlink:href="#linear-gradient"/><clipPath id="clip-path-15" transform="translate(177.95 -38.39)"><rect class="cls-1" x="100.95" y="617.12" width="228.44" height="72.34"/></clipPath><linearGradient id="linear-gradient-3" x1="-762.42" y1="5067.86" x2="-761.42" y2="5067.86" gradientTransform="matrix(393.11, -50.98, -393.11, -50.98, 2292159.37, 220149.29)" gradientUnits="userSpaceOnUse"><stop offset="0" stop-color="#999"/><stop offset="0.03" stop-color="#a9a9a9"/><stop offset="0.1" stop-color="#c4c4c4"/><stop offset="0.18" stop-color="#dadada"/><stop offset="0.28" stop-color="#ebebeb"/><stop offset="0.39" stop-color="#f6f6f6"/><stop offset="0.55" stop-color="#fdfdfd"/><stop offset="1" stop-color="#fff"/></linearGradient><clipPath id="clip-path-16" transform="translate(177.95 -38.39)"><path class="cls-1" d="M102,689.46v.41a12.91,12.91,0,0,0,12.91,12.91H317.5a12.92,12.92,0,0,0,12.92-12.91v-.41Z"/></clipPath><linearGradient id="linear-gradient-4" x1="-608.38" y1="5221.88" x2="-607.38" y2="5221.88" gradientTransform="matrix(386.74, 9.24, -386.74, 9.24, 2254972.59, -41973.09)" gradientUnits="userSpaceOnUse"><stop offset="0" stop-color="#2c3142"/><stop offset="0.09" stop-color="#393c46"/><stop offset="0.24" stop-color="#44464a"/><stop offset="0.44" stop-color="#4b4b4c"/><stop offset="1" stop-color="#4d4d4d"/></linearGradient><clipPath id="clip-path-17" transform="translate(177.95 -38.39)"><path class="cls-1" d="M124.25,653.87a23.22,23.22,0,1,0,23.21-23.21,23.21,23.21,0,0,0-23.21,23.21"/></clipPath><linearGradient id="linear-gradient-5" x1="-727.91" y1="5040.27" x2="-726.91" y2="5040.27" gradientTransform="matrix(46.42, 0, 0, -46.42, 34094.88, 234607.76)" gradientUnits="userSpaceOnUse"><stop offset="0" stop-color="#f2f2f2"/><stop offset="1" stop-color="gray"/></linearGradient><clipPath id="clip-path-18" transform="translate(177.95 -38.39)"><path class="cls-1" d="M125.2,653.87a22.27,22.27,0,1,0,22.26-22.26,22.26,22.26,0,0,0-22.26,22.26"/></clipPath><linearGradient id="linear-gradient-6" x1="-727.41" y1="5038.06" x2="-726.41" y2="5038.06" gradientTransform="matrix(44.52, 0, 0, -44.52, 32688.1, 224913.79)" gradientUnits="userSpaceOnUse"><stop offset="0" stop-color="#fff"/><stop offset="1" stop-color="#999"/></linearGradient><clipPath id="clip-path-19" transform="translate(177.95 -38.39)"><path class="cls-1" d="M127.11,653.87a20.36,20.36,0,1,0,20.35-20.36,20.36,20.36,0,0,0-20.35,20.36"/></clipPath><linearGradient id="linear-gradient-7" x1="-726.28" y1="5032.99" x2="-725.28" y2="5032.99" gradientTransform="matrix(40.71, 0, 0, -40.71, 29874.55, 205525.86)" xlink:href="#linear-gradient"/><clipPath id="clip-path-20" transform="translate(177.95 -38.39)"><path class="cls-1" d="M282.57,642.81a14.66,14.66,0,1,0,9.6-3.58,14.65,14.65,0,0,0-9.6,3.58"/></clipPath><linearGradient id="linear-gradient-8" x1="-665.34" y1="5052.07" x2="-664.34" y2="5052.07" gradientTransform="matrix(0, 29.29, 29.29, 0, -147688.99, 20128.37)" xlink:href="#linear-gradient"/><clipPath id="clip-path-21" transform="translate(177.95 -38.39)"><rect class="cls-1" x="253.99" y="649.95" width="7.84" height="7.84"/></clipPath><clipPath id="clip-path-22" transform="translate(177.95 -38.39)"><path class="cls-1" d="M260.39,656.74a3.79,3.79,0,1,1,.38-5.36,3.8,3.8,0,0,1-.38,5.36"/></clipPath><linearGradient id="linear-gradient-9" x1="-453.29" y1="4937.4" x2="-452.29" y2="4937.4" gradientTransform="matrix(0, 7.59, 7.59, 0, -37204.83, 4089.82)" gradientUnits="userSpaceOnUse"><stop offset="0" stop-color="#39b54a"/><stop offset="1" stop-color="#006837"/><stop offset="1" stop-color="#006837"/></linearGradient><clipPath id="clip-path-23" transform="translate(177.95 -38.39)"><rect class="cls-1" x="233.05" y="649.95" width="7.84" height="7.84"/></clipPath><clipPath id="clip-path-24" transform="translate(177.95 -38.39)"><path class="cls-1" d="M239.45,656.74a3.79,3.79,0,1,1,.38-5.36,3.8,3.8,0,0,1-.38,5.36"/></clipPath><linearGradient id="linear-gradient-10" x1="-453.29" y1="4937.4" x2="-452.29" y2="4937.4" gradientTransform="matrix(0, 7.59, 7.59, 0, -37225.77, 4089.82)" xlink:href="#linear-gradient-9"/><clipPath id="clip-path-25" transform="translate(177.95 -38.39)"><rect class="cls-1" x="212.11" y="649.95" width="7.84" height="7.84"/></clipPath><clipPath id="clip-path-26" transform="translate(177.95 -38.39)"><path class="cls-1" d="M218.51,656.74a3.79,3.79,0,1,1,.38-5.36,3.8,3.8,0,0,1-.38,5.36"/></clipPath><linearGradient id="linear-gradient-11" x1="-453.29" y1="4937.4" x2="-452.29" y2="4937.4" gradientTransform="matrix(0, 7.59, 7.59, 0, -37246.71, 4089.82)" xlink:href="#linear-gradient-9"/><clipPath id="clip-path-27" transform="translate(177.95 -38.39)"><path class="cls-1" d="M162,269.22v25.66H274.3V282.3a13.08,13.08,0,0,0-13.08-13.08Z"/></clipPath><linearGradient id="linear-gradient-12" x1="-734.69" y1="5070.72" x2="-733.69" y2="5070.72" gradientTransform="matrix(112.32, 0, 0, -112.32, 82859.03, 569778.07)" xlink:href="#linear-gradient-6"/><clipPath id="clip-path-28" transform="translate(177.95 -38.39)"><path class="cls-1" d="M162,343.91v25.66h99.17a13.15,13.15,0,0,0,13.15-13.15V343.91Z"/></clipPath><linearGradient id="linear-gradient-13" x1="-734.69" y1="5070.72" x2="-733.69" y2="5070.72" gradientTransform="matrix(112.32, 0, 0, -112.32, 82859.03, 569852.76)" gradientUnits="userSpaceOnUse"><stop offset="0" stop-color="#f2f2f2"/><stop offset="1" stop-color="#999"/></linearGradient><clipPath id="clip-path-29" transform="translate(177.95 -38.39)"><path class="cls-1" d="M151.16,642a.49.49,0,0,0,0,.11,13.46,13.46,0,1,1-7.39,0l0-.06a1.57,1.57,0,0,0-2.06-.83,14.94,14.94,0,1,0,11.56,0,1.61,1.61,0,0,0-.6-.12,1.56,1.56,0,0,0-1.45,1"/></clipPath><linearGradient id="linear-gradient-14" x1="-757.31" y1="5172.26" x2="-756.31" y2="5172.26" gradientTransform="matrix(-30.09, 0, 0, 30.09, -22444.52, -155000.2)" gradientUnits="userSpaceOnUse"><stop offset="0" stop-color="#939598"/><stop offset="0.16" stop-color="#aeafb2"/><stop offset="0.4" stop-color="#d1d2d3"/><stop offset="0.63" stop-color="#eaebeb"/><stop offset="0.83" stop-color="#fafafa"/><stop offset="1" stop-color="#fff"/></linearGradient><clipPath id="clip-path-30" transform="translate(177.95 -38.39)"><path class="cls-1" d="M133.91,655a13.47,13.47,0,1,0,17.21-12.93,1.58,1.58,0,0,0,.88,1.95,11.79,11.79,0,1,1-9.13,0,1.57,1.57,0,0,0,.86-2,13.46,13.46,0,0,0-9.82,13"/></clipPath><linearGradient id="linear-gradient-15" x1="-795.32" y1="5027.8" x2="-794.32" y2="5027.8" gradientTransform="matrix(28.97, 0, 0, -28.97, 23169.68, 146293.98)" gradientUnits="userSpaceOnUse"><stop offset="0" stop-color="#939598"/><stop offset="1" stop-color="#fff"/></linearGradient><linearGradient id="linear-gradient-16" x1="-611.18" y1="5120.76" x2="-610.18" y2="5120.76" gradientTransform="matrix(0, 18.78, 18.78, 0, -95847.79, 12078.28)" gradientUnits="userSpaceOnUse"><stop offset="0" stop-color="#939598"/><stop offset="0.19" stop-color="#b5b6b8"/><stop offset="0.41" stop-color="#d5d6d7"/><stop offset="0.63" stop-color="#ececed"/><stop offset="0.83" stop-color="#fafafa"/><stop offset="1" stop-color="#fff"/></linearGradient></defs><title>3node</title><g class="cls-2"><g id="Layer_1" data-name="Layer 1"><g class="cls-3"><g class="cls-4"><g class="cls-5"><polygon class="cls-6" points="566.12 631.65 216.07 631.93 218.52 686.62 568.57 686.35 566.12 631.65"/></g></g></g><g class="cls-3"><g class="cls-7"><g class="cls-8"><polygon class="cls-9" points="508.71 640.73 274.29 640.92 275.93 677.54 510.35 677.36 508.71 640.73"/></g></g></g><g class="cls-3"><g class="cls-10"><g class="cls-11"><polygon class="cls-12" points="566.11 631.18 216.01 631.83 218.53 687.1 568.63 686.45 566.11 631.18"/></g></g></g><g class="cls-3"><g class="cls-13"><g class="cls-14"><polygon class="cls-15" points="508.7 640.42 274.25 640.85 275.94 677.86 510.39 677.43 508.7 640.42"/></g></g></g><g class="cls-3"><g class="cls-16"><g class="cls-17"><polygon class="cls-18" points="566.03 628.87 215.72 631.35 218.6 689.41 568.92 686.93 566.03 628.87"/></g></g></g><g class="cls-3"><g class="cls-19"><g class="cls-20"><polygon class="cls-21" points="508.65 638.87 274.06 640.53 275.99 679.41 510.58 677.75 508.65 638.87"/></g></g></g><g class="cls-22"><rect class="cls-23" x="278.9" width="228.44" height="557.78"/></g><g class="cls-24"><rect class="cls-25" x="278.9" y="557.78" width="228.44" height="20.94"/></g><rect class="cls-26" x="278.9" y="559.8" width="228.44" height="2.99"/><g class="cls-27"><polygon class="cls-28" points="0 614.89 393.12 563.91 786.24 614.89 393.12 665.88 0 614.89"/></g><g class="cls-29"><polygon class="cls-30" points="1.07 657.73 394.14 667.12 787.22 657.73 394.14 648.34 1.07 657.73"/></g><g class="cls-31"><rect class="cls-32" x="302.2" y="592.27" width="46.42" height="46.42"/></g><g class="cls-33"><rect class="cls-34" x="303.15" y="593.22" width="44.52" height="44.52"/></g><g class="cls-35"><rect class="cls-36" x="305.06" y="595.12" width="40.71" height="40.71"/></g><path class="cls-37" d="M307.57,653.87a15.4,15.4,0,1,1-15.4-15.4,15.39,15.39,0,0,1,15.4,15.4" transform="translate(177.95 -38.39)"/><g class="cls-38"><rect class="cls-39" x="269.65" y="632.3" width="45.04" height="44.87" transform="translate(-179.75 313.51) rotate(-40.97)"/></g><g class="cls-40"><g class="cls-41"><g class="cls-42"><rect class="cls-43" x="251.93" y="647.89" width="11.96" height="11.96" transform="translate(-187.58 290.83) rotate(-40.97)"/></g><path class="cls-44" d="M260.39,656.74a3.79,3.79,0,1,1,.38-5.36A3.8,3.8,0,0,1,260.39,656.74Z" transform="translate(177.95 -38.39)"/></g></g><g class="cls-40"><g class="cls-45"><g class="cls-46"><rect class="cls-47" x="230.99" y="647.89" width="11.96" height="11.96" transform="translate(-192.71 277.1) rotate(-40.97)"/></g><path class="cls-44" d="M239.45,656.74a3.79,3.79,0,1,1,.38-5.36A3.8,3.8,0,0,1,239.45,656.74Z" transform="translate(177.95 -38.39)"/></g></g><g class="cls-40"><g class="cls-48"><g class="cls-49"><rect class="cls-50" x="210.05" y="647.89" width="11.96" height="11.96" transform="translate(-197.84 263.37) rotate(-40.97)"/></g><path class="cls-44" d="M218.51,656.74a3.79,3.79,0,1,1,.38-5.36A3.8,3.8,0,0,1,218.51,656.74Z" transform="translate(177.95 -38.39)"/></g></g><path class="cls-51" d="M273.31,295.87H161V270.21h99.23a13.09,13.09,0,0,1,13.09,13.09Z" transform="translate(177.95 -38.39)"/><path class="cls-51" d="M260.22,270.21H161v25.66H273.31V283.3a13.09,13.09,0,0,0-13.09-13.09" transform="translate(177.95 -38.39)"/><rect class="cls-51" x="371.81" y="269.17" width="79.41" height="25.66"/><path class="cls-51" d="M260.15,370.57H161V344.91H273.3v12.5a13.15,13.15,0,0,1-13.15,13.16" transform="translate(177.95 -38.39)"/><g class="cls-52"><rect class="cls-53" x="339.93" y="230.83" width="112.32" height="25.66"/></g><path class="cls-54" d="M261.22,269.22H162v25.66H274.3V282.3a13.08,13.08,0,0,0-13.08-13.08" transform="translate(177.95 -38.39)"/><rect class="cls-55" x="372.81" y="268.17" width="79.41" height="25.66"/><g class="cls-56"><rect class="cls-57" x="339.93" y="305.52" width="112.32" height="25.66"/></g><g class="cls-58"><rect class="cls-59" x="310.47" y="602.44" width="29.88" height="29.04"/></g><g class="cls-60"><rect class="cls-61" x="128.74" y="636.6" width="37.26" height="37.37" transform="translate(-289.11 345.61) rotate(-53.5)"/></g><path class="cls-62" d="M147.46,669.57a14.63,14.63,0,0,1-5.69-28.1,1.19,1.19,0,0,1,.49-.1,1.25,1.25,0,0,1,1.16,1.73,1.21,1.21,0,0,1-.67.68,12.12,12.12,0,1,0,9.37,0,1.26,1.26,0,0,1-.67-1.65,1.24,1.24,0,0,1,1.16-.77,1.18,1.18,0,0,1,.48.1,14.63,14.63,0,0,1-5.63,28.13" transform="translate(177.95 -38.39)"/><rect class="cls-63" x="323.45" y="599.99" width="3.93" height="18.76"/></g></g></svg>