<?xml version="1.0" encoding="utf-8"?>
<!-- Generator: Adobe Illustrator 23.0.0, SVG Export Plug-In . SVG Version: 6.00 Build 0)  -->
<svg version="1.1" id="Layer_1" xmlns="http://www.w3.org/2000/svg" xmlns:xlink="http://www.w3.org/1999/xlink" x="0px" y="0px"
	 viewBox="0 0 178 186.1" style="enable-background:new 0 0 178 186.1;" xml:space="preserve">
<style type="text/css">
	.st0{fill:#FFFFFF;}
	.st1{fill:none;stroke:#FFFFFF;stroke-width:4.06;stroke-miterlimit:10;}
	.st2{enable-background:new    ;}
</style>
<title>play_button</title>
<path class="st0" d="M129.4,103.6l-60.7,36c-1.6,1-3.8,0.4-4.7-1.2c-0.3-0.5-0.5-1.2-0.5-1.8V64.7c0-1.9,1.5-3.5,3.4-3.5
	c0.6,0,1.2,0.2,1.8,0.5l60.7,35.9c1.7,1,2.2,3.1,1.3,4.7C130.4,102.9,130,103.3,129.4,103.6"/>
<circle class="st1" cx="90.6" cy="98.7" r="85.4"/>
<g>
	<g class="st2">
		<path class="st0" d="M7.6,43l5.9,6.5l-0.8,1.4l-5.6-1.3c-0.1,0-0.2,0-0.3-0.1c-0.1,0-0.2-0.1-0.3-0.1c0.1,0.1,0.1,0.1,0.2,0.2
			c0.1,0.1,0.1,0.1,0.2,0.2l3.8,4.3L10,55.5l-8.6-2.1l0.7-1.3c0.1-0.1,0.2-0.2,0.3-0.3c0.1-0.1,0.2-0.1,0.3,0l4.7,1.3
			c0.1,0,0.3,0.1,0.4,0.1c0.1,0.1,0.3,0.1,0.5,0.2c-0.1-0.1-0.3-0.2-0.4-0.3C8,53,7.9,52.9,7.8,52.8l-3.3-3.7
			c-0.1-0.1-0.1-0.2-0.1-0.3c0-0.1,0-0.3,0.1-0.4l0.3-0.4c0.1-0.1,0.2-0.2,0.3-0.3c0.1,0,0.2-0.1,0.3,0l4.9,1.1
			c0.1,0,0.3,0.1,0.4,0.1c0.1,0,0.3,0.1,0.5,0.1c-0.1-0.1-0.2-0.2-0.4-0.3c-0.1-0.1-0.2-0.2-0.3-0.3L7,44.8
			c-0.1-0.1-0.1-0.2-0.1-0.3c0-0.1,0-0.3,0.1-0.4L7.6,43z"/>
	</g>
	<g class="st2">
		<path class="st0" d="M19.4,41.2l-0.8,1.1c-0.1,0.1-0.2,0.2-0.3,0.2c-0.1,0-0.2,0-0.3,0L16.3,42l-2,2.7l1,1.4
			c0.1,0.1,0.1,0.2,0.1,0.3c0,0.1,0,0.2-0.1,0.4l-0.8,1.1l-4.8-7.6l1.1-1.4L19.4,41.2z M15.1,41.7l-2.6-0.8c-0.1,0-0.3-0.1-0.5-0.1
			c-0.2-0.1-0.4-0.1-0.6-0.2c0.1,0.2,0.3,0.3,0.4,0.5c0.1,0.2,0.2,0.3,0.3,0.4l1.5,2.2L15.1,41.7z"/>
	</g>
	<g class="st2">
		<path class="st0" d="M18,32.2l-1.6,1.9l5.3,4.6L20.6,40l-5.3-4.6l-1.6,1.9l-1.1-0.9l4.3-5.1L18,32.2z"/>
	</g>
	<g class="st2">
		<path class="st0" d="M26.4,30.7c0.1-0.1,0.1-0.1,0.2-0.1l1,0c0.1,0.5,0,1.1-0.2,1.6c-0.2,0.5-0.5,1-1,1.5c-0.4,0.4-0.9,0.8-1.4,1
			c-0.5,0.2-1,0.3-1.5,0.3c-0.5,0-1-0.1-1.5-0.4c-0.5-0.2-1-0.6-1.4-1c-0.3-0.3-0.5-0.6-0.7-0.9s-0.4-0.7-0.5-1
			c-0.1-0.3-0.2-0.7-0.2-1.1c0-0.4,0-0.7,0.1-1.1c0.1-0.3,0.2-0.7,0.4-1s0.4-0.6,0.7-0.9c0.2-0.2,0.4-0.4,0.7-0.6
			c0.2-0.2,0.5-0.3,0.7-0.4c0.2-0.1,0.5-0.2,0.7-0.2c0.2,0,0.5-0.1,0.7-0.1l0.2,1c0,0.1,0,0.1,0,0.2c0,0.1,0,0.1-0.1,0.2
			s-0.2,0.1-0.3,0.1c-0.1,0-0.2,0.1-0.4,0.1c-0.2,0-0.3,0.1-0.5,0.2c-0.2,0.1-0.4,0.3-0.6,0.5c-0.2,0.3-0.4,0.5-0.5,0.8
			s-0.2,0.6-0.1,0.9c0,0.3,0.1,0.6,0.3,1s0.4,0.7,0.7,1c0.3,0.3,0.7,0.6,1,0.7c0.3,0.2,0.7,0.2,1,0.3c0.3,0,0.6,0,0.9-0.2
			s0.6-0.3,0.8-0.5c0.1-0.1,0.3-0.3,0.4-0.4c0.1-0.1,0.2-0.3,0.2-0.4c0.1-0.1,0.1-0.3,0.1-0.4c0-0.1,0.1-0.3,0.1-0.5
			c0-0.1,0-0.1,0-0.2C26.3,30.8,26.3,30.7,26.4,30.7z"/>
	</g>
	<g class="st2">
		<path class="st0" d="M29.2,19.9l5.4,6.4l-1.3,1.1l-2.3-2.8l-2.8,2.4l2.3,2.8L29.1,31l-5.4-6.4l1.3-1.1l2.3,2.7l2.8-2.4L27.8,21
			L29.2,19.9z"/>
	</g>
	<g class="st2">
		<path class="st0" d="M39.2,13l1.8,8.9l-1.3,0.9l-7.5-5.2l1.2-0.8c0.1-0.1,0.2-0.1,0.4-0.1s0.2,0,0.3,0.1l4.2,3
			c0.2,0.1,0.3,0.2,0.5,0.4c0.2,0.1,0.4,0.3,0.5,0.5c-0.1-0.2-0.2-0.4-0.2-0.7c-0.1-0.2-0.1-0.4-0.2-0.6l-1.2-5c0-0.1,0-0.2,0-0.3
			c0-0.1,0.1-0.2,0.2-0.3L39.2,13z"/>
	</g>
	<g class="st2">
		<path class="st0" d="M46,18.8l-1.5,0.9l-4.2-7.3l1.5-0.9L46,18.8z"/>
	</g>
	<g class="st2">
		<path class="st0" d="M52.5,10.9c0.3,0.6,0.4,1.1,0.5,1.7c0,0.6,0,1.1-0.2,1.6c-0.2,0.5-0.5,1-0.8,1.4s-0.9,0.8-1.5,1.1L47.5,18
			l-3.7-7.6L46.8,9c0.6-0.3,1.2-0.4,1.7-0.5c0.6,0,1.1,0,1.6,0.2c0.5,0.2,1,0.4,1.4,0.8C51.9,9.9,52.2,10.3,52.5,10.9z M50.9,11.7
			c-0.2-0.4-0.4-0.7-0.7-1c-0.3-0.3-0.5-0.5-0.8-0.6c-0.3-0.1-0.6-0.2-1-0.2c-0.3,0-0.7,0.1-1,0.3L46,10.9l2.5,5.1l1.3-0.6
			c0.4-0.2,0.6-0.4,0.9-0.6c0.2-0.3,0.4-0.5,0.5-0.9c0.1-0.3,0.1-0.7,0.1-1C51.2,12.5,51.1,12.1,50.9,11.7z"/>
	</g>
	<g class="st2">
		<path class="st0" d="M54.4,7.1l0.8,2l2.6-1l0.5,1.2l-2.6,1l0.8,2.1l3.4-1.3l0.5,1.3l-5,1.9l-3-7.8l5-1.9l0.5,1.3L54.4,7.1z"/>
	</g>
	<g class="st2">
		<path class="st0" d="M67.9,5.7c0.2,0.6,0.2,1.2,0.2,1.7C68,8,67.8,8.5,67.6,9c-0.3,0.5-0.6,0.9-1.1,1.2c-0.4,0.4-1,0.6-1.6,0.8
			c-0.6,0.2-1.2,0.2-1.8,0.2c-0.6-0.1-1.1-0.2-1.6-0.5c-0.5-0.3-0.9-0.6-1.2-1.1c-0.3-0.4-0.6-1-0.8-1.6c-0.2-0.6-0.2-1.2-0.2-1.7
			c0.1-0.6,0.2-1.1,0.5-1.6s0.6-0.9,1.1-1.2c0.4-0.4,1-0.6,1.6-0.8c0.6-0.2,1.2-0.2,1.8-0.2c0.6,0.1,1.1,0.2,1.6,0.5
			s0.9,0.6,1.2,1.1C67.4,4.6,67.7,5.1,67.9,5.7z M66.2,6.2c-0.1-0.4-0.3-0.8-0.5-1.1s-0.5-0.5-0.7-0.7c-0.3-0.2-0.6-0.3-0.9-0.3
			c-0.3,0-0.7,0-1.1,0.1c-0.4,0.1-0.7,0.3-1,0.5c-0.3,0.2-0.5,0.5-0.6,0.8c-0.1,0.3-0.2,0.6-0.2,1c0,0.4,0,0.8,0.2,1.2
			c0.1,0.4,0.3,0.8,0.5,1.1C62,9,62.3,9.3,62.5,9.4c0.3,0.2,0.6,0.3,0.9,0.3c0.3,0,0.7,0,1.1-0.1c0.4-0.1,0.7-0.3,1-0.5
			c0.3-0.2,0.5-0.5,0.6-0.8c0.1-0.3,0.2-0.6,0.2-1C66.3,7,66.3,6.6,66.2,6.2z"/>
	</g>
</g>
</svg>
