<svg id="Layer_1" data-name="Layer 1" xmlns="http://www.w3.org/2000/svg" viewBox="0 0 178.04 186.11"><defs><style>.cls-1,.cls-10,.cls-11,.cls-12,.cls-3,.cls-4,.cls-5,.cls-6,.cls-7,.cls-8,.cls-9{fill:#fff;}.cls-2{fill:none;stroke:#fff;stroke-miterlimit:10;stroke-width:4.06px;}.cls-3{font-size:11.6px;}.cls-10,.cls-11,.cls-12,.cls-3,.cls-4,.cls-5,.cls-6,.cls-7,.cls-8,.cls-9{font-family:Lato-Black, Lato;font-weight:800;}.cls-4{font-size:11.6px;}.cls-5{font-size:11.6px;}.cls-6{font-size:11.6px;}.cls-7{font-size:11.6px;}.cls-8{font-size:11.6px;}.cls-9{font-size:11.6px;}.cls-10{font-size:11.6px;}.cls-11{font-size:11.6px;}.cls-12{font-size:11.6px;}</style></defs><title>play_button</title><path class="cls-1" d="M139.56,112.18,78.83,148.13a3.46,3.46,0,0,1-5.22-3V73.27a3.46,3.46,0,0,1,5.22-3l60.73,35.94a3.46,3.46,0,0,1,0,6" transform="translate(-10.11 -8.56)"/><circle class="cls-2" cx="100.76" cy="107.27" r="85.37" transform="translate(-46.22 152.83) rotate(-68.37)"/><text class="cls-3" transform="matrix(0.51, -0.86, 0.86, 0.51, 8.65, 57.77)">W</text><text class="cls-4" transform="translate(14.54 47.85) rotate(-53.7)">A</text><text class="cls-5" transform="matrix(0.65, -0.76, 0.76, 0.65, 18.84, 41.97)">T</text><text class="cls-6" transform="translate(23.19 36.85) rotate(-45.16)">C</text><text class="cls-5" transform="translate(28.4 31.55) rotate(-40.06)">H</text><text class="cls-7" transform="translate(35.27 25.9) rotate(-36.45)"> </text><text class="cls-8" transform="translate(36.92 24.57) rotate(-33.36)">V</text><text class="cls-9" transform="matrix(0.87, -0.5, 0.5, 0.87, 43.74, 20.16)">I</text><text class="cls-10" transform="translate(46.72 18.36) rotate(-25.85)">D</text><text class="cls-11" transform="matrix(0.93, -0.36, 0.36, 0.93, 54.54, 14.61)">E</text><text class="cls-12" transform="translate(60.4 12.27) rotate(-16.28)">O</text></svg>