<?xml version="1.0" encoding="utf-8"?>
<!-- Generator: Adobe Illustrator 16.0.2, SVG Export Plug-In . SVG Version: 6.00 Build 0)  -->
<!DOCTYPE svg PUBLIC "-//W3C//DTD SVG 1.1//EN" "http://www.w3.org/Graphics/SVG/1.1/DTD/svg11.dtd">
<svg version="1.1" id="Layer_1" xmlns="http://www.w3.org/2000/svg" xmlns:xlink="http://www.w3.org/1999/xlink" x="0px" y="0px"
	 width="208px" height="97px" viewBox="0 0 208 97" enable-background="new 0 0 208 97" xml:space="preserve">
<line fill="#5C5C5C" x1="6.136" y1="2.85" x2="6.136" y2="95.795"/>
<line fill="none" stroke="#666666" stroke-width="2" stroke-miterlimit="10" x1="6.136" y1="2.85" x2="6.136" y2="95.795"/>
<line fill="#5C5C5C" x1="197.707" y1="95.795" x2="6.213" y2="95.795"/>
<line fill="none" stroke="#666666" stroke-width="2" stroke-miterlimit="10" x1="197.707" y1="95.795" x2="6.213" y2="95.795"/>
<polyline fill="none" stroke="#1A70AD" stroke-width="1.76" stroke-miterlimit="10" points="6.136,70.379 35.927,34.547 
	67.248,53.841 95.517,35.927 126.838,60.042 158.158,45.572 192.525,6.986 "/>
<path fill="#1A70AD" d="M40.062,34.547c0,2.285-1.851,4.135-4.135,4.135c-2.285,0-4.136-1.851-4.136-4.135
	c0-2.283,1.852-4.135,4.136-4.135C38.211,30.412,40.062,32.264,40.062,34.547"/>
<circle fill="none" stroke="#1A70AD" stroke-width="1.76" stroke-miterlimit="10" cx="35.927" cy="34.547" r="4.135"/>
<path fill="#1A70AD" d="M71.332,53.907c0,2.283-1.851,4.136-4.135,4.136c-2.285,0-4.136-1.853-4.136-4.136
	c0-2.284,1.851-4.136,4.136-4.136C69.48,49.771,71.332,51.623,71.332,53.907"/>
<circle fill="none" stroke="#1A70AD" stroke-width="1.76" stroke-miterlimit="10" cx="67.196" cy="53.907" r="4.135"/>
<path fill="#1A70AD" d="M10.271,70.379c0,2.283-1.851,4.136-4.135,4.136C3.852,74.515,2,72.662,2,70.379s1.852-4.136,4.136-4.136
	C8.42,66.243,10.271,68.096,10.271,70.379"/>
<circle fill="none" stroke="#1A70AD" stroke-width="1.76" stroke-miterlimit="10" cx="6.135" cy="70.379" r="4.135"/>
<path fill="#1A70AD" d="M100.373,36.615c0,2.284-1.852,4.136-4.136,4.136c-2.283,0-4.135-1.852-4.135-4.136
	c0-2.283,1.852-4.135,4.135-4.135C98.521,32.48,100.373,34.332,100.373,36.615"/>
<circle fill="none" stroke="#1A70AD" stroke-width="1.76" stroke-miterlimit="10" cx="96.237" cy="36.615" r="4.135"/>
<path fill="#1A70AD" d="M130.514,60.074c0,2.284-1.852,4.135-4.135,4.135c-2.285,0-4.135-1.851-4.135-4.135
	c0-2.283,1.85-4.135,4.135-4.135C128.662,55.939,130.514,57.791,130.514,60.074"/>
<circle fill="none" stroke="#1A70AD" stroke-width="1.76" stroke-miterlimit="10" cx="126.379" cy="60.074" r="4.135"/>
<path fill="#1A70AD" d="M162.289,46.485c0,2.285-1.852,4.136-4.137,4.136c-2.283,0-4.135-1.852-4.135-4.136
	c0-2.283,1.852-4.135,4.135-4.135C160.438,42.35,162.289,44.202,162.289,46.485"/>
<circle fill="none" stroke="#1A70AD" stroke-width="1.76" stroke-miterlimit="10" cx="158.153" cy="46.485" r="4.136"/>
<path fill="#1A70AD" d="M196.66,6.986c0,2.284-1.852,4.136-4.135,4.136c-2.285,0-4.135-1.852-4.135-4.136s1.85-4.135,4.135-4.135
	C194.809,2.851,196.66,4.702,196.66,6.986"/>
<circle fill="none" stroke="#1A70AD" stroke-width="1.76" stroke-miterlimit="10" cx="192.525" cy="6.986" r="4.135"/>
<polyline fill="none" stroke="#24A069" stroke-width="1.76" stroke-miterlimit="10" points="6.136,89.326 42.231,80.027 
	57.892,64.866 76.765,80.716 95.517,61.421 147.047,79.336 169.195,52.286 184.576,57.288 192.525,36.615 "/>
<path fill="#4CB389" d="M196.66,36.615c0,2.284-1.852,4.136-4.135,4.136c-2.285,0-4.135-1.852-4.135-4.136
	c0-2.283,1.85-4.135,4.135-4.135C194.809,32.48,196.66,34.332,196.66,36.615"/>
<circle fill="none" stroke="#24A069" stroke-width="1.76" stroke-miterlimit="10" cx="192.525" cy="36.615" r="4.135"/>
<path fill="#4CB389" d="M189.154,58.042c0,2.284-1.852,4.136-4.137,4.136c-2.283,0-4.135-1.852-4.135-4.136s1.852-4.135,4.135-4.135
	C187.303,53.907,189.154,55.758,189.154,58.042"/>
<circle fill="none" stroke="#24A069" stroke-width="1.76" stroke-miterlimit="10" cx="185.019" cy="58.042" r="4.136"/>
<path fill="#4CB389" d="M172.393,51.803c0,2.284-1.852,4.135-4.135,4.135c-2.285,0-4.137-1.851-4.137-4.135
	c0-2.283,1.852-4.135,4.137-4.135C170.541,47.667,172.393,49.52,172.393,51.803"/>
<circle fill="none" stroke="#24A069" stroke-width="1.76" stroke-miterlimit="10" cx="168.257" cy="51.803" r="4.136"/>
<path fill="#4CB389" d="M151.355,78.649c0,2.284-1.852,4.135-4.135,4.135s-4.135-1.851-4.135-4.135c0-2.283,1.852-4.135,4.135-4.135
	S151.355,76.366,151.355,78.649"/>
<circle fill="none" stroke="#24A069" stroke-width="1.76" stroke-miterlimit="10" cx="147.221" cy="78.649" r="4.135"/>
<path fill="#4CB389" d="M100.373,61.522c0,2.284-1.852,4.136-4.136,4.136c-2.283,0-4.135-1.852-4.135-4.136
	c0-2.283,1.852-4.135,4.135-4.135C98.521,57.388,100.373,59.239,100.373,61.522"/>
<circle fill="none" stroke="#24A069" stroke-width="1.76" stroke-miterlimit="10" cx="96.237" cy="61.522" r="4.135"/>
<path fill="#4CB389" d="M81.197,80.696c0,2.285-1.852,4.137-4.135,4.137c-2.284,0-4.135-1.852-4.135-4.137
	c0-2.282,1.851-4.134,4.135-4.134C79.346,76.563,81.197,78.414,81.197,80.696"/>
<circle fill="none" stroke="#24A069" stroke-width="1.76" stroke-miterlimit="10" cx="77.062" cy="80.696" r="4.135"/>
<path fill="#4CB389" d="M63.061,64.209c0,2.284-1.852,4.136-4.136,4.136c-2.284,0-4.135-1.852-4.135-4.136
	c0-2.283,1.851-4.135,4.135-4.135C61.209,60.074,63.061,61.926,63.061,64.209"/>
<circle fill="none" stroke="#24A069" stroke-width="1.76" stroke-miterlimit="10" cx="58.926" cy="64.209" r="4.135"/>
<path fill="#4CB389" d="M46.677,79.846c0,2.284-1.851,4.136-4.135,4.136s-4.136-1.852-4.136-4.136c0-2.283,1.852-4.135,4.136-4.135
	S46.677,77.563,46.677,79.846"/>
<circle fill="none" stroke="#24A069" stroke-width="1.76" stroke-miterlimit="10" cx="42.542" cy="79.846" r="4.135"/>
<path fill="#4CB389" d="M10.271,89.326c0,2.285-1.851,4.137-4.135,4.137C3.852,93.463,2,91.611,2,89.326
	c0-2.282,1.852-4.134,4.136-4.134C8.42,85.192,10.271,87.044,10.271,89.326"/>
<circle fill="none" stroke="#24A069" stroke-width="1.76" stroke-miterlimit="10" cx="6.135" cy="89.326" r="4.135"/>
</svg>
