<svg xmlns="http://www.w3.org/2000/svg" viewBox="0 0 1977.42 500"><defs><style>.cls-1{fill:#242828;}.cls-2{fill:#fff;}.cls-3{fill:#00e8b5;}</style></defs><title>Asset 47</title><g id="Layer_2" data-name="Layer 2"><g id="Layer_1-2" data-name="Layer 1"><circle class="cls-1" cx="250" cy="250" r="250"/><polygon class="cls-2" points="203.33 110 203.33 203.33 156.67 250 156.67 156.67 203.33 110"/><path class="cls-2" d="M343.33,296.67a93.33,93.33,0,1,1-186.66,0V250h46.66v46.67a46.67,46.67,0,0,0,93.34,0Z"/><polygon class="cls-3" points="343.33 203.33 296.67 250 156.67 250 203.33 203.33 343.33 203.33"/><path class="cls-1" d="M711.68,348V203.46H656.43V171.71h149.5v31.75H750.68V348Z"/><path class="cls-1" d="M828.18,342.09a55.24,55.24,0,0,1-22.75-22.25q-8-14.37-8-33.88t8-33.87A54.49,54.49,0,0,1,828.18,230q14.75-7.74,34.25-7.75T896.68,230a54.49,54.49,0,0,1,22.75,22.13q8,14.37,8,33.87t-8,33.88a55.24,55.24,0,0,1-22.75,22.25Q881.94,350,862.43,350T828.18,342.09ZM889.93,286q0-17.74-7.12-26.5t-20.38-8.75q-27.49,0-27.5,35.25t27.5,35.25Q889.93,321.21,889.93,286Z"/><path class="cls-1" d="M1132.93,235q10.24,12.75,10.25,39v74h-37.75V275.21q0-12.49-3.87-18t-13.13-5.5q-10.76,0-16.75,7.5t-6,21V348h-37.75V275.21q0-12.49-3.87-18t-13.13-5.5q-10.75,0-16.75,7.5t-6,21V348H950.43V225.21h36.75v16.5a38.42,38.42,0,0,1,15.38-14.5,47.32,47.32,0,0,1,22.12-5q27.25,0,36.5,22.75a43.91,43.91,0,0,1,16.75-16.62,47.17,47.17,0,0,1,23.75-6.13Q1122.68,222.21,1132.93,235Z"/><path class="cls-1" d="M1196.43,342.09a55.19,55.19,0,0,1-22.75-22.25q-8-14.37-8-33.88t8-33.87A54.43,54.43,0,0,1,1196.43,230q14.74-7.74,34.25-7.75t34.25,7.75a54.54,54.54,0,0,1,22.75,22.13q8,14.37,8,33.87t-8,33.88a55.3,55.3,0,0,1-22.75,22.25q-14.76,7.88-34.25,7.87T1196.43,342.09ZM1258.18,286q0-17.74-7.12-26.5t-20.38-8.75q-27.51,0-27.5,35.25t27.5,35.25Q1258.18,321.21,1258.18,286Z"/><path class="cls-1" d="M1357.8,339a75.76,75.76,0,0,1-30.5-31.75q-10.62-20.49-10.62-47.5t10.62-47.5a75,75,0,0,1,30.5-31.62q19.88-11.13,46.63-11.13a104.63,104.63,0,0,1,33.5,5.38q16,5.37,26.25,14.87l-12.5,27.75a84.37,84.37,0,0,0-22.88-12.75,70.85,70.85,0,0,0-23.62-4q-23.51,0-36.13,15t-12.62,44q0,29,12.62,44.13T1405.18,319a70.6,70.6,0,0,0,23.62-4,83.83,83.83,0,0,0,22.88-12.75l12.5,27.75q-10.26,9.51-26.25,14.88a104.62,104.62,0,0,1-33.5,5.37Q1377.67,350.21,1357.8,339Z"/><path class="cls-1" d="M1597.93,235.09Q1608.67,248,1608.68,274v74h-37.75V275.71q0-12.49-4.63-18.25t-14.37-5.75q-11.76,0-18.88,7.5t-7.12,20V348h-37.75V171.71h37.75v69.75a41.86,41.86,0,0,1,16.62-14.37,51.48,51.48,0,0,1,22.63-4.88Q1587.17,222.21,1597.93,235.09Z"/><path class="cls-1" d="M1761.17,225.21V348h-37.5V329.71a38.33,38.33,0,0,1-15.62,14.88,48.08,48.08,0,0,1-22.88,5.37q-16,0-28.25-7.75t-19.12-22.12q-6.88-14.37-6.88-33.38t6.88-33.62a53.9,53.9,0,0,1,19.25-22.75,50.06,50.06,0,0,1,28.12-8.13,48.08,48.08,0,0,1,22.88,5.38,38.38,38.38,0,0,1,15.62,14.87V225.21Zm-44.62,87q7.13-9,7.12-26t-7.12-26.12q-7.12-9.12-20.38-9.13t-20.5,9.38q-7.25,9.38-7.25,26.37,0,16.76,7.25,25.63t20.5,8.87Q1709.43,321.21,1716.55,312.21Z"/><path class="cls-1" d="M1788.92,166.21h40.5v35.25h-40.5ZM1790.17,348V225.21h37.75V348Z"/><path class="cls-1" d="M1966.67,235.09Q1977.42,248,1977.42,274v74h-37.75V275.71q0-12.49-4.62-18.25t-14.38-5.75q-11.75,0-18.87,7.5t-7.13,20V348h-37.75V225.21h36.75v17.5a43,43,0,0,1,16.88-15.25,51,51,0,0,1,23.37-5.25Q1955.92,222.21,1966.67,235.09Z"/></g></g></svg>