<?xml version="1.0" encoding="utf-8"?>
<!-- Generator: Adobe Illustrator 23.0.0, SVG Export Plug-In . SVG Version: 6.00 Build 0)  -->
<svg version="1.1" id="Layer_1" xmlns="http://www.w3.org/2000/svg" xmlns:xlink="http://www.w3.org/1999/xlink" x="0px" y="0px"
	 viewBox="0 0 783.8 119.9" style="enable-background:new 0 0 783.8 119.9;" xml:space="preserve">
<style type="text/css">
	.st0{fill:#4EC48F;}
	.st1{fill:#FFFFFF;}
</style>
<g>
	<polygon points="29.7,43.6 12.1,43.6 12.1,35.2 57.5,35.2 57.5,43.6 39.9,43.6 39.9,87.7 29.7,87.7 	"/>
	<polygon points="64.5,35.2 74.7,35.2 74.7,56.1 101.5,56.1 101.5,35.2 111.8,35.2 111.8,87.7 101.5,87.7 101.5,64.6 74.7,64.6 
		74.7,87.7 64.5,87.7 	"/>
	<path d="M124.6,35.2h20c2.8,0,5.4,0.2,8,0.7c2.6,0.5,4.9,1.3,6.9,2.4c2,1.1,3.6,2.7,4.8,4.6c1.2,1.9,1.8,4.4,1.8,7.4
		c0,3.8-1.1,7-3.4,9.6c-2.3,2.6-5.6,4.1-9.9,4.7l15.2,23.2h-12.3l-13.3-22.3h-7.5v22.3h-10.2V35.2z M142.7,57.4
		c1.5,0,2.9-0.1,4.4-0.2c1.5-0.1,2.8-0.4,4-0.9c1.2-0.5,2.2-1.2,3-2.2c0.8-1,1.1-2.3,1.1-4c0-1.5-0.4-2.8-1.1-3.7
		c-0.7-0.9-1.6-1.6-2.8-2.1c-1.1-0.5-2.4-0.8-3.8-0.9c-1.4-0.1-2.7-0.2-4-0.2h-8.8v14.3H142.7z"/>
	<polygon points="175.7,35.2 213.7,35.2 213.7,43.6 185.9,43.6 185.9,56.6 212.2,56.6 212.2,65 185.9,65 185.9,79.3 215.2,79.3 
		215.2,87.7 175.7,87.7 	"/>
	<polygon points="225.2,35.2 263.3,35.2 263.3,43.6 235.4,43.6 235.4,56.6 261.8,56.6 261.8,65 235.4,65 235.4,79.3 264.7,79.3 
		264.7,87.7 225.2,87.7 	"/>
	<polygon points="274.8,35.2 311.8,35.2 311.8,43.6 285,43.6 285,57.4 310.3,57.4 310.3,65.9 285,65.9 285,87.7 274.8,87.7 	"/>
	<path d="M318.2,61.7c0-4.2,0.8-8,2.3-11.5c1.5-3.4,3.6-6.4,6.3-8.8c2.7-2.4,5.9-4.3,9.6-5.6c3.7-1.3,7.8-2,12.2-2
		c4.5,0,8.6,0.6,12.3,1.8c3.7,1.3,6.9,3.1,9.6,5.5c2.7,2.4,4.8,5.3,6.3,8.8c1.5,3.4,2.3,7.2,2.3,11.4c0,4.1-0.8,7.8-2.3,11.2
		c-1.5,3.4-3.6,6.3-6.3,8.7c-2.7,2.4-5.9,4.3-9.6,5.7c-3.7,1.4-7.8,2.1-12.3,2.1c-4.4,0-8.5-0.7-12.2-2c-3.7-1.3-6.9-3.2-9.6-5.6
		c-2.7-2.4-4.8-5.3-6.3-8.7C319,69.5,318.2,65.8,318.2,61.7 M329,61.1c0,2.8,0.5,5.4,1.4,7.8c0.9,2.4,2.3,4.4,4,6.2
		c1.7,1.7,3.8,3.1,6.2,4.1c2.4,1,5.1,1.5,8.1,1.5c3,0,5.7-0.5,8.1-1.5c2.4-1,4.5-2.4,6.2-4.1c1.7-1.7,3.1-3.8,4-6.2
		c0.9-2.4,1.4-5,1.4-7.8c0-2.6-0.5-5.1-1.4-7.4c-0.9-2.3-2.3-4.3-4-6c-1.7-1.7-3.8-3-6.2-4c-2.4-1-5.1-1.4-8.1-1.4
		c-3,0-5.7,0.5-8.1,1.4c-2.4,1-4.5,2.3-6.2,4c-1.7,1.7-3.1,3.7-4,6C329.4,56,329,58.5,329,61.1"/>
	<polygon points="388.9,35.2 399.1,35.2 399.1,79.3 423.5,79.3 423.5,87.7 388.9,87.7 	"/>
	<path d="M431,35.2h22.6c3.8,0,7.4,0.5,10.9,1.6c3.5,1.1,6.6,2.7,9.3,4.9c2.7,2.2,4.9,4.9,6.5,8.2c1.6,3.3,2.4,7.2,2.4,11.6
		c0,4.5-0.9,8.4-2.8,11.7c-1.9,3.3-4.3,6-7.2,8.2c-2.9,2.2-6.2,3.8-9.8,4.8c-3.6,1.1-7.1,1.6-10.6,1.6H431V35.2z M448.8,79.3
		c3.2,0,6.2-0.3,9-1c2.8-0.7,5.3-1.7,7.4-3.1c2.1-1.4,3.8-3.2,5-5.5c1.2-2.3,1.8-5,1.8-8.2c0-3.2-0.5-5.9-1.6-8.2
		c-1.1-2.3-2.6-4.1-4.5-5.5c-1.9-1.4-4.2-2.4-6.8-3.1c-2.6-0.7-5.5-1-8.6-1h-9.3v35.6H448.8z"/>
	<polygon class="st0" points="720,113.3 476.1,113.3 527.7,6.6 771.7,6.6 	"/>
	<path class="st1" d="M590.3,61.9c0.7-4.1,2-7.8,4.1-11.1c2.1-3.3,4.7-6.2,7.8-8.5c3.1-2.3,6.7-4.1,10.7-5.4c4-1.3,8.3-1.9,12.8-1.9
		c4.6,0,8.7,0.5,12.3,1.8c3.6,1.2,6.6,3,9,5.3c2.4,2.3,4.1,5.2,5.1,8.5c1,3.3,1.2,7,0.5,11c-0.7,4-2,7.6-4.1,10.8
		c-2,3.3-4.6,6.1-7.8,8.4c-3.1,2.3-6.7,4.2-10.8,5.5c-4,1.3-8.3,2-12.9,2c-4.5,0-8.6-0.6-12.2-1.9c-3.6-1.3-6.6-3.1-8.9-5.4
		c-2.3-2.3-4-5.1-5.1-8.4C589.8,69.4,589.6,65.8,590.3,61.9 M601.3,61.3c-0.4,2.7-0.4,5.2,0.2,7.5c0.6,2.3,1.6,4.3,3.1,6
		c1.5,1.7,3.4,3,5.7,3.9c2.3,1,5,1.4,8,1.4c3,0,5.9-0.5,8.5-1.4c2.7-1,5-2.3,7-3.9c2-1.7,3.7-3.7,5.1-6c1.3-2.3,2.2-4.8,2.6-7.5
		c0.4-2.5,0.3-4.9-0.3-7.1c-0.6-2.2-1.6-4.1-3.1-5.8c-1.5-1.6-3.4-2.9-5.8-3.9c-2.3-0.9-5-1.4-8.1-1.4c-3,0-5.9,0.5-8.5,1.4
		c-2.6,0.9-5,2.2-7,3.9c-2,1.7-3.7,3.6-5.1,5.8C602.6,56.4,601.7,58.7,601.3,61.3"/>
	<polygon class="st1" points="660,36.2 671.4,36.2 676.5,72.8 676.7,72.8 695.8,36.2 706.1,36.2 713,72.8 713.2,72.8 730.6,36.2 
		741.2,36.2 716,87 706.1,87 698.7,48.4 698.5,48.4 678.7,87 669.1,87 	"/>
	<polygon class="st1" points="529.5,35 546,35 559.1,74 559.3,74 580.2,35 592.7,35 564.4,87.1 549,87.1 535.8,47.4 535.6,47.4 
		515.1,87.1 503,87.1 	"/>
</g>
</svg>
