<?xml version="1.0" encoding="utf-8"?>
<!-- Generator: Adobe Illustrator 16.0.2, SVG Export Plug-In . SVG Version: 6.00 Build 0)  -->
<!DOCTYPE svg PUBLIC "-//W3C//DTD SVG 1.1//EN" "http://www.w3.org/Graphics/SVG/1.1/DTD/svg11.dtd">
<svg version="1.1" id="Layer_1" xmlns="http://www.w3.org/2000/svg" xmlns:xlink="http://www.w3.org/1999/xlink" x="0px" y="0px"
	 width="164px" height="104px" viewBox="0 0 164 104" enable-background="new 0 0 164 104" xml:space="preserve">
<g>
	<path fill="#CCCCCC" d="M36.735,44.129H9.198c-4.351,0-7.877-3.526-7.877-7.877V8.715c0-4.351,3.526-7.877,7.877-7.877h27.537
		c4.351,0,7.877,3.526,7.877,7.877v27.537C44.612,40.603,41.086,44.129,36.735,44.129"/>
	<path fill="#CCCCCC" d="M95.769,44.129H68.231c-4.351,0-7.877-3.526-7.877-7.877V8.715c0-4.351,3.526-7.877,7.877-7.877h27.537
		c4.351,0,7.877,3.526,7.877,7.877v27.537C103.646,40.603,100.119,44.129,95.769,44.129"/>
	<path fill="#CCCCCC" d="M154.802,44.129h-27.537c-4.351,0-7.877-3.526-7.877-7.877V8.715c0-4.351,3.526-7.877,7.877-7.877h27.537
		c4.351,0,7.877,3.526,7.877,7.877v27.537C162.679,40.603,159.152,44.129,154.802,44.129"/>
	<path fill="#CCCCCC" d="M36.735,103.162H9.198c-4.351,0-7.877-3.526-7.877-7.877V67.748c0-4.351,3.526-7.877,7.877-7.877h27.537
		c4.351,0,7.877,3.526,7.877,7.877v27.537C44.612,99.636,41.086,103.162,36.735,103.162"/>
	<path fill="#CCCCCC" d="M95.769,103.162H68.231c-4.351,0-7.877-3.526-7.877-7.877V67.748c0-4.351,3.526-7.877,7.877-7.877h27.537
		c4.351,0,7.877,3.526,7.877,7.877v27.537C103.646,99.636,100.119,103.162,95.769,103.162"/>
	<path fill="#CCCCCC" d="M154.802,103.162h-27.537c-4.351,0-7.877-3.526-7.877-7.877V67.748c0-4.351,3.526-7.877,7.877-7.877h27.537
		c4.351,0,7.877,3.526,7.877,7.877v27.537C162.679,99.636,159.152,103.162,154.802,103.162"/>
</g>
</svg>
