<?xml version="1.0" encoding="utf-8"?>
<!-- Generator: Adobe Illustrator 16.0.2, SVG Export Plug-In . SVG Version: 6.00 Build 0)  -->
<!DOCTYPE svg PUBLIC "-//W3C//DTD SVG 1.1//EN" "http://www.w3.org/Graphics/SVG/1.1/DTD/svg11.dtd">
<svg version="1.1" id="Layer_1" xmlns="http://www.w3.org/2000/svg" xmlns:xlink="http://www.w3.org/1999/xlink" x="0px" y="0px"
	 width="104px" height="104px" viewBox="0 0 104 104" enable-background="new 0 0 104 104" xml:space="preserve">
<path fill="#2CB0CF" d="M16.011,19.555c4.834-5.087,9.69-8.321,10.846-7.223c1.154,1.098-1.828,6.111-6.663,11.199
	c-4.835,5.086-9.69,8.32-10.846,7.223C8.193,29.656,11.177,24.642,16.011,19.555"/>
<path fill="#808080" d="M16.011,19.555c4.834-5.087,10.324-8.052,9.02-7.134c-1.716,1.208-3.428,2.611-8.545,7.596
	c-5.026,4.897-7.633,11.071-7.327,9.702C9.507,28.156,11.177,24.642,16.011,19.555"/>
<path fill="#4D4D4D" d="M91.498,64.406c-3.357,4.621-7.222,9.211-11.293,13.508c-1.383,12.498-1.596,14.418-0.509,15.559
	c-2.3,1.764-4.503,3.172-6.428,4.064l0.048-0.023l0.817-0.387c1.806-0.885,3.843-2.209,5.962-3.842
	c-1.087-0.811-0.799-3.295,0.592-15.23c3.974-4.207,7.743-8.691,11.024-13.211c7.106-9.783,10.354-17.557,9.608-21.656l-0.139-0.72
	C101.992,46.584,98.719,54.467,91.498,64.406"/>
<path fill="#4D4D4D" d="M92.302,66.135c-3.056,4.205-6.546,8.383-10.23,12.32c-1.691,12.869-1.792,13.639-0.841,14.244
	c-1.602,1.25-3.156,2.311-4.586,3.113l0.792-0.451c1.305-0.764,2.71-1.736,4.152-2.865c-0.95-0.301-0.772-1.59,0.925-13.912
	c3.589-3.848,6.989-7.924,9.97-12.025c6.648-9.152,9.781-16.474,9.283-20.491l-0.069-0.536l-0.027-0.198
	C102.235,49.374,99.072,56.813,92.302,66.135"/>
<path fill="#4D4D4D" d="M92.982,67.813c-2.759,3.797-5.888,7.568-9.191,11.146c-1.858,12.02-1.858,12.02-1.463,12.865
	c0.082,0.01,0.191,0.023,0.272,0.033c-0.806,0.639-1.6,1.225-2.367,1.744l0.408-0.279l0.619-0.436
	c0.543-0.387,1.096-0.807,1.655-1.252c-0.056,0.014-0.131,0.029-0.187,0.041c-0.492-0.506-0.492-0.506,1.466-12.594
	c3.212-3.488,6.252-7.16,8.938-10.857c6.146-8.461,9.151-15.287,8.914-19.204l-0.052-0.737
	C102.293,52.228,99.254,59.18,92.982,67.813"/>
<path fill="#4D4D4D" d="M85.354,79.445c-2.01,11.182-2.01,11.182-1.838,11.621c0.063-0.018,0.148-0.041,0.212-0.059l0.219-0.18
	c-0.061,0-0.141,0-0.201,0.002c-0.066-0.502-0.066-0.502,1.974-11.266c2.849-3.137,5.543-6.416,7.94-9.717
	c5.646-7.773,8.507-14.096,8.495-17.875l-0.011-0.734c0.064,3.817-2.833,10.266-8.604,18.209
	C91.07,72.846,88.291,76.223,85.354,79.445"/>
<path fill="#4D4D4D" d="M86.752,79.906c-2.169,10.334-2.169,10.334-2.161,10.385l0.21-0.18c-0.053-0.236-0.057-0.26,0.526-2.617
	c0.926-3.742,1.134-4.684,1.749-7.475c2.499-2.787,4.865-5.688,6.983-8.605c5.12-7.051,7.82-12.838,8.025-16.457l0.035-0.768
	c-0.144,3.66-2.886,9.592-8.148,16.836C91.783,74.039,89.338,77.033,86.752,79.906"/>
<path fill="#4D4D4D" d="M19.404,18.173c-0.093,0.023-0.273,0.097-0.535,0.218c-0.292,0.135-0.617,0.302-0.808,0.407
	c-0.276,0.138-0.55,0.282-0.82,0.429c0.268-0.143,0.539-0.282,0.813-0.417C19.371,18.231,19.39,18.199,19.404,18.173"/>
<path fill="#4D4D4D" d="M19.477,18.045c-0.099,0.03-0.285,0.115-0.554,0.251c-0.302,0.153-0.637,0.336-0.832,0.453
	c-0.286,0.155-0.569,0.314-0.849,0.479c0.277-0.159,0.557-0.315,0.842-0.467C19.45,18.095,19.459,18.075,19.477,18.045"/>
<path fill="#4D4D4D" d="M19.542,17.922c-0.13,0.047-0.383,0.18-0.572,0.283c-0.309,0.167-0.652,0.37-0.855,0.496
	c-0.295,0.171-0.585,0.347-0.873,0.526c0.286-0.176,0.575-0.348,0.868-0.516C19.519,17.967,19.526,17.953,19.542,17.922"/>
<path fill="#4D4D4D" d="M19.6,17.803c-0.137,0.056-0.396,0.201-0.587,0.313c-0.318,0.185-0.669,0.403-0.875,0.538
	c-0.302,0.186-0.601,0.378-0.896,0.573c0.293-0.192,0.59-0.378,0.89-0.562C19.581,17.842,19.583,17.837,19.6,17.803"/>
<path fill="#4D4D4D" d="M19.65,17.69c-0.143,0.064-0.407,0.223-0.603,0.343c-0.321,0.198-0.679,0.433-0.891,0.578l-0.915,0.616
	c0.3-0.206,0.604-0.408,0.91-0.605C19.636,17.723,19.636,17.723,19.65,17.69"/>
<path fill="#4D4D4D" d="M72.53,10.689c-0.42-0.098-0.611-0.068-0.66,0.102c0.083,0.53,1.33,1.04,1.73,0.962
	c0.265-0.052,0.31-0.341-0.434-0.796c0.066-1.693-0.28-3.024-1.043-3.941c1.131,0.321,2.613,0.852,3.69,1.327l-0.703-0.37
	c-1.07-0.455-2.544-0.955-3.667-1.261C72.237,7.626,72.598,8.97,72.53,10.689"/>
<path fill="#4D4D4D" d="M75.814,8.342"/>
<path fill="#4D4D4D" d="M75.062,11.813c-0.41-0.118-0.599-0.097-0.647,0.076c0.081,0.558,1.288,1.12,1.69,1.058
	c0.26-0.04,0.306-0.332-0.421-0.831c0.063-1.581-0.228-2.854-0.876-3.776c1.449,0.395,1.449,0.395,3.778,1.603l-0.685-0.417
	c-1.146-0.683-1.146-0.683-3.758-1.533C74.82,8.915,75.125,10.204,75.062,11.813"/>
<path fill="#4D4D4D" d="M77.529,13.071c-0.4-0.138-0.584-0.125-0.632,0.049c0.077,0.563,1.267,1.202,1.648,1.155
	c0.252-0.031,0.296-0.328-0.409-0.867c0.058-1.461-0.183-2.664-0.721-3.574c1.556,0.513,1.556,0.513,3.856,1.9l-0.665-0.467
	c-1.225-0.829-1.273-0.847-3.837-1.823C77.336,10.36,77.588,11.58,77.529,13.071"/>
<path fill="#4D4D4D" d="M24.896,10.389c-0.136,0.086-0.275,0.175-0.42,0.269L24.896,10.389z"/>
<path fill="#4D4D4D" d="M13.341,20.647l-0.178,0.216c0,0.001,0,0.003-0.002,0.003c0.568-0.155,1.984-0.75,4.08-1.639
	C13.706,20.668,13.441,20.653,13.341,20.647"/>
<path fill="#4D4D4D" d="M14.028,19.955c0.007-0.045,0.016-0.106,0.023-0.151l-0.178,0.207c-0.002,0.003-0.005,0.006-0.008,0.009
	c0.008,0.034,0.018,0.078,0.026,0.11c0.679-0.035,1.204-0.191,3.35-0.902C14.771,20.021,14.376,19.986,14.028,19.955"/>
<path fill="#4D4D4D" d="M17.242,19.227c-0.161-0.016-0.3-0.03-0.424-0.043C16.936,19.198,17.069,19.212,17.242,19.227"/>
<path fill="#4D4D4D" d="M29.354,8.139L29.354,8.139c-1.532,0.512-2.337,0.957-3.944,1.921l-0.513,0.329
	c2.016-1.271,3.074-1.639,3.936-1.939c0.852-0.257,1.538-0.317,2.059-0.203c-6.199,4.129-10.862,8.418-13.649,10.979
	c6.539-6.003,10.486-8.766,14.28-11.289C30.976,7.807,30.254,7.868,29.354,8.139"/>
<path fill="#4D4D4D" d="M27.286,9.441c-1.636,0.495-3.719,1.733-5.923,3.437l-0.204,0.159c-0.36,0.28-0.832,0.667-1.186,0.955
	c3.83-3.167,5.916-3.893,6.807-4.203c0.664-0.201,1.209-0.259,1.637-0.193c-5.042,3.738-8.586,7.145-11.175,9.631
	c5.753-5.523,8.957-7.892,11.784-9.981C28.574,9.167,27.995,9.228,27.286,9.441"/>
<path fill="#4D4D4D" d="M25.29,10.887c-2.807,0.847-7.204,4.347-10.791,8.424c-0.019,0.038-0.023,0.096-0.033,0.138
	c0.382,0.271,0.802,0.211,2.776-0.222c-1.816,0.379-2.126,0.3-2.556,0.191c-0.017-0.068-0.04-0.156-0.056-0.223
	c3.387-3.838,7.526-7.125,10.171-7.925c0.495-0.149,0.909-0.202,1.243-0.169c-3.636,2.991-5.846,5.159-8.802,8.126
	c3.872-3.884,5.938-5.692,9.386-8.517C26.27,10.669,25.825,10.724,25.29,10.887"/>
<path fill="#4D4D4D" d="M23.362,12.479L23.362,12.479c-2.301,0.792-5.257,3.08-8.325,6.446c0.2,0.463,0.829,0.413,2.205,0.303
	c-1.611,0.123-1.764-0.041-2.064-0.369c2.589-2.896,5.708-5.355,7.714-5.96c0.345-0.104,0.639-0.149,0.883-0.138
	c-2.797,2.548-4.365,4.192-6.533,6.466c3.303-3.463,4.568-4.61,7.089-6.894C24.065,12.317,23.742,12.365,23.362,12.479"/>
<path fill="#4D4D4D" d="M22.154,14.104c-0.18-0.002-0.392,0.033-0.638,0.107c-1.535,0.464-3.909,2.325-5.9,4.531
	c0.292,0.306,0.423,0.357,1.203,0.442c-0.487-0.061-0.603-0.137-1.053-0.454c1.792-1.979,3.922-3.646,5.303-4.063
	c0.259-0.074,0.299-0.077,0.561-0.097c-1.708,1.72-1.911,1.942-4.387,4.657C19.407,16.854,19.826,16.434,22.154,14.104"/>
<path fill="#4D4D4D" d="M19.755,16.088c-0.434,0.137-1.646,0.674-3.524,2.683c0.268,0.198,0.696,0.347,1.011,0.457
	c-0.271-0.085-0.603-0.278-0.851-0.416c0.494-0.535,1.769-1.822,2.933-2.227c0.106-0.032,0.201-0.051,0.283-0.055
	c-0.72,0.8-1.659,1.887-2.366,2.698c0.847-0.972,1.996-2.25,2.862-3.204C20.003,16.028,19.886,16.048,19.755,16.088"/>
<path fill="#4D4D4D" d="M18.08,18.112c-0.312,0.095-0.787,0.461-1.195,0.902l0.357,0.213l-0.188-0.12
	c0.237-0.25,0.447-0.408,0.622-0.468c0.016-0.004,0.038-0.009,0.054-0.012l-0.488,0.599l0.942-1.137
	C18.155,18.093,18.119,18.101,18.08,18.112"/>
<path fill="#4D4D4D" d="M93.627,31.513c-2.599-0.947-3.353-1.141-6.718-1.728c-0.32-0.319-0.646-0.635-0.976-0.95
	c-13.41-12.742-32.48-18.688-49.125-16.708c-2.956,1.084-3.085,1.132-9.882,3.679c-0.469,0.824-1.051,1.719-1.744,2.672
	c-1.936,2.665-4.385,5.294-6.851,7.353c-0.079-0.05-0.185-0.116-0.263-0.166c-0.22,0.723,0.077,1.052,0.254,1.249
	c0.116-0.152,0.185-0.42,0.175-0.611c2.548-2.237,5.118-4.997,7.15-7.793c0.711-0.979,1.31-1.9,1.796-2.75
	c7.463-2.724,7.463-2.724,9.548-3.476c16.526-1.757,35.428,4.28,48.767,16.955c0.401,0.382,0.796,0.767,1.181,1.155
	c3.454,0.476,5.272,1.148,7.03,1.798c0.932-3.387,0.87-5.979-0.201-7.584l-0.418-0.615C94.443,25.577,94.531,28.147,93.627,31.513"
	/>
<path fill="#4D4D4D" d="M94.946,34.253c-2.828-1.201-4.254-1.451-7.958-1.999c-0.577-0.597-1.174-1.187-1.789-1.772
	C72.074,18.011,53.68,11.704,37.517,12.805c-2.836,0.959-5.667,1.933-8.501,2.896c-0.536,0.915-1.182,1.9-1.94,2.945
	c-3.603,4.959-8.696,9.82-12.869,12.383c-0.046-0.097-0.106-0.227-0.152-0.323c-0.006,0.007-0.59,0.849-0.096,1.669
	c0.086-0.194,0.172-0.466,0.216-0.674c4.336-2.781,9.635-7.837,13.385-12.998c0.771-1.06,1.43-2.064,1.979-2.996
	c2.716-0.902,5.428-1.809,8.144-2.714c16.037-0.886,34.262,5.507,47.316,17.911c0.687,0.652,1.35,1.312,1.989,1.979
	c4.46,0.588,5.464,0.939,8.265,2.066c1.04-3.469,1.075-6.145,0.091-7.83l-0.381-0.638C95.97,28.148,95.959,30.803,94.946,34.253"/>
<path fill="#4D4D4D" d="M96.107,37.039c-3.002-1.487-5.861-1.833-9.17-2.232c-0.821-0.877-1.681-1.746-2.58-2.6
	C71.519,20.006,53.804,13.361,38.154,13.61c-4.462,1.392-4.462,1.392-7.047,2.192c-0.584,0.976-1.275,2.017-2.073,3.114
	c-2.686,3.7-6.088,7.351-9.568,10.172c-0.095-0.021-0.222-0.049-0.317-0.07c-0.266,0.583-0.025,0.982,0.222,1.311
	c0.099-0.012,0.232-0.025,0.332-0.037c0.048-0.184,0.071-0.444,0.05-0.633c3.487-3.06,7.004-6.834,9.782-10.66
	c0.803-1.105,1.501-2.156,2.094-3.142c1.955-0.587,2.767-0.836,6.671-2.028c15.521-0.042,33.063,6.687,45.832,18.819
	c0.971,0.923,1.898,1.861,2.778,2.811c5.132,0.48,6.938,1.179,9.462,2.278c1.143-3.536,1.274-6.284,0.38-8.044l-0.337-0.649
	C97.332,30.787,97.224,33.518,96.107,37.039"/>
<path fill="#4D4D4D" d="M97.106,39.847c-3.135-1.52-5.435-1.954-10.34-2.415c-1.051-1.16-2.169-2.305-3.355-3.43
	c-12.554-11.93-29.589-18.894-44.708-19.462c-1.65,0.473-3.851,1.098-5.503,1.565c-0.617,1.006-1.331,2.071-2.141,3.187
	c-4.744,6.53-11.447,12.926-16.954,16.331c-0.079-0.092-0.183-0.214-0.261-0.306c-0.245,0.231-0.32,0.75-0.22,1.541
	c0.094,0.059,0.219,0.137,0.314,0.197c0.092-0.209,0.178-0.506,0.212-0.732c5.645-3.62,12.542-10.202,17.423-16.92
	c0.81-1.115,1.527-2.182,2.147-3.191c1.534-0.423,3.576-0.991,5.106-1.419c14.983,0.768,31.848,7.808,44.331,19.669
	c1.257,1.194,2.438,2.407,3.545,3.636c5.377,0.455,7.363,0.914,10.627,2.457c1.236-3.576,1.467-6.377,0.674-8.203l-0.297-0.67
	C98.524,33.491,98.318,36.28,97.106,39.847"/>
<path fill="#4D4D4D" d="M97.952,42.677c-3.558-2.019-7.589-2.292-11.487-2.556c-1.269-1.436-2.638-2.855-4.108-4.251
	c-12.27-11.66-28.626-18.917-43.193-20.271c-1.164,0.304-2.717,0.705-3.882,1.006c-0.631,1.005-1.345,2.062-2.145,3.162
	c-3.398,4.679-7.7,9.297-12.176,12.85c-0.099,0.004-0.231,0.01-0.332,0.014c-0.006,0.007-0.5,0.825,0.388,1.469
	c0.096-0.036,0.224-0.083,0.32-0.119c0.059-0.206,0.088-0.498,0.063-0.711c4.37-3.837,8.781-8.57,12.266-13.367
	c0.792-1.092,1.504-2.142,2.135-3.143c1.04-0.259,2.425-0.614,3.464-0.876c14.427,1.544,30.614,8.871,42.813,20.463
	c1.542,1.464,2.973,2.953,4.293,4.457c7.444,0.364,9.545,1.442,11.768,2.582c1.32-3.597,1.645-6.437,0.957-8.318l-0.257-0.682
	C99.552,36.252,99.251,39.085,97.952,42.677"/>
<path fill="#4D4D4D" d="M98.642,45.507c-3.317-1.839-5.789-2.357-12.599-2.642c-1.475-1.707-3.09-3.399-4.845-5.066
	C69.213,26.41,53.532,18.884,39.531,16.782L37.347,17.3c-0.624,0.974-1.317,1.989-2.081,3.04
	c-5.814,8.003-14.03,15.842-20.835,19.948c-0.097-0.057-0.225-0.129-0.322-0.186c-0.006,0.007-0.59,0.76-0.008,1.806
	c0.101-0.028,0.236-0.065,0.338-0.092c0.075-0.206,0.132-0.494,0.155-0.71c6.874-4.409,15.273-12.424,21.217-20.606
	c0.751-1.034,1.436-2.035,2.055-2.995l1.743-0.406c13.855,2.282,29.369,9.872,41.285,21.193c1.825,1.735,3.501,3.496,5.026,5.269
	c8.36,0.135,10.755,1.473,12.87,2.654c1.396-3.601,1.809-6.464,1.227-8.393l-0.077-0.252l-0.139-0.443
	C100.411,39.044,100.02,41.905,98.642,45.507"/>
<path fill="#4D4D4D" d="M34.765,6.5c-3.504,2.013-4.644,2.774-8.415,5.435c0.079,0.127,0.132,0.279,0.16,0.455
	c-0.5,0.309-0.55,0.37-0.598,0.427c0.017-0.002,1.721-0.77,1.789-1.031c-0.153,0.045-0.309,0.119-0.578,0.256
	c-0.03-0.176-0.083-0.332-0.162-0.463c4.126-2.859,5.239-3.51,8.462-5.327c-0.68-0.224-1.619-0.173-2.82,0.189
	c-0.652,0.2-0.702,0.222-1.984,0.779l-0.872,0.421c0.822-0.41,1.598-0.728,2.312-0.944C33.206,6.351,34.107,6.296,34.765,6.5"/>
<path fill="#4D4D4D" d="M40.149,4.793c-3.593,1.627-4.786,2.278-8.766,4.596c0.097,0.225,0.151,0.491,0.164,0.794
	c-0.529,0.256-0.581,0.322-0.636,0.394c0.272,0.07,1.644-0.519,1.904-0.741c-0.009-0.02-0.021-0.044-0.029-0.064
	c-0.14,0.004-0.279,0.04-0.599,0.147c-0.012-0.304-0.064-0.569-0.158-0.797c4.354-2.492,5.502-3.026,8.813-4.496
	c-1.256-0.506-2.159-0.317-3.778,0.09c-0.191,0.06-0.381,0.122-0.572,0.185C38.107,4.415,39.324,4.399,40.149,4.793"/>
<path fill="#4D4D4D" d="M33.991,8.389c0.043,0.128,0.078,0.264,0.101,0.41c-0.532,0.237-0.58,0.305-0.631,0.375
	c0.08,0.069,1.658-0.353,1.957-0.714c-0.064-0.034-0.124-0.066-0.674,0.097c-0.022-0.138-0.052-0.268-0.093-0.389
	c4.457-2.312,5.622-2.792,8.972-4.098c-0.83-0.501-2.083-0.57-3.764-0.136l-0.734,0.188c1.696-0.46,2.96-0.415,3.8,0.071
	C39.285,5.64,38.067,6.237,33.991,8.389"/>
<path fill="#4D4D4D" d="M37.065,4.716c-0.063,0.02-0.125,0.039-0.189,0.06l-0.824,0.268c0.149-0.051,0.297-0.099,0.441-0.142
	C36.684,4.838,36.874,4.777,37.065,4.716"/>
<path fill="#4D4D4D" d="M34.531,5.617c-0.092,0.036-0.185,0.072-0.277,0.109c1.678-0.485,2.318-0.384,3.173-0.164
	c-3.552,1.817-4.718,2.522-8.598,5.011c0.142,0.276,0.2,0.633,0.175,1.063c-0.518,0.27-0.575,0.334-0.632,0.403
	c0.157,0.026,1.66-0.544,1.877-0.857c-0.104,0.001-0.178,0.001-0.618,0.172c0.026-0.441-0.03-0.807-0.172-1.094
	c4.242-2.674,5.374-3.266,8.642-4.906c-1.052-0.379-1.937-0.19-3.292,0.152h-0.001c-0.347,0.106-0.8,0.28-1.142,0.403l-0.773,0.31
	c0.473-0.198,0.926-0.362,1.361-0.493C34.346,5.689,34.438,5.653,34.531,5.617"/>
<path fill="#4D4D4D" d="M8.721,41.08c0.221-0.066,0.448-0.142,0.68-0.226c1.738-4.928,1.738-4.928,5.729-15.805
	c1.89-1.205,4.146-3.271,5.951-5.491c-1.419-0.27-2.705-0.385-3.839-0.332c1.015-0.02,2.159,0.101,3.415,0.35
	c-1.655,2.019-3.707,3.889-5.423,4.976c-3.393,8.969-3.992,10.579-5.83,15.662c-0.2,0.072-0.397,0.136-0.59,0.194
	c-2.852,0.861-4.318,0.075-4.431-1.923c1.854-6.582,4.653-10.619,6.325-13.032c0.031-0.095,0.066-0.193,0.103-0.293
	c0.28-0.345,0.28-0.345,0.396-0.543c-0.008,0.008-0.866,0.875-1.009,1.267c0.074-0.082,0.171-0.192,0.243-0.276
	c-0.037,0.096-0.069,0.188-0.1,0.279c-3.72,5.126-5.253,10.16-6.169,13.168C4.267,41.144,5.771,41.97,8.721,41.08"/>
<path fill="#4D4D4D" d="M15.787,22.57c-3.374,7.888-4.772,11.399-6.251,15.116c-0.091,0.03-0.181,0.059-0.269,0.085
	c-2.468,0.746-3.776,0.111-3.951-1.549c2.163-6.429,5.17-10.228,6.967-12.498c0.086-0.28,0.212-0.59,0.378-0.929
	c0.294-0.29,0.294-0.29,0.362-0.413c-0.008,0.007-0.843,0.69-0.993,1.011c0.076-0.067,0.175-0.158,0.249-0.228
	c-0.177,0.36-0.313,0.692-0.405,0.991c-3.982,4.797-5.75,9.703-6.806,12.633c0.162,1.742,1.51,2.412,4.073,1.639
	c0.112-0.034,0.227-0.07,0.341-0.109c1.392-3.579,2.705-6.958,6.146-15.257c1.21-0.754,2.662-2.055,3.86-3.479
	c-0.813-0.189-1.565-0.309-2.247-0.357c0.581,0.059,1.214,0.174,1.896,0.341C18.091,20.8,16.834,21.922,15.787,22.57"/>
<path fill="#4D4D4D" d="M16.554,20.615c-3.048,6.292-4.694,9.999-6.685,14.549c-0.005,0.001-0.009,0.002-0.014,0.004
	c-2.095,0.633-3.239,0.134-3.453-1.216c2.484-6.271,5.459-9.555,7.633-11.952c0.021-0.078,0.049-0.161,0.082-0.246
	c0.375-0.347,0.375-0.347,0.462-0.445c-0.01,0.007-0.969,0.761-1.296,1.193c0.092-0.074,0.13-0.105,0.39-0.341
	c-0.035,0.093-0.065,0.182-0.089,0.268c-4.255,4.473-6.265,9.242-7.467,12.093c0.208,1.424,1.393,1.955,3.581,1.293
	c0.023-0.006,0.046-0.014,0.07-0.021c1.919-4.489,3.514-8.17,6.576-14.692c0.575-0.349,1.267-0.957,1.854-1.632
	c-0.334-0.098-0.653-0.178-0.954-0.243c0.218,0.055,0.444,0.119,0.679,0.193C17.486,19.915,16.977,20.361,16.554,20.615"/>
<path fill="#4D4D4D" d="M17.196,19.26L17.196,19.26c0.013-0.01,0.032-0.021,0.045-0.032c-0.088,0.062-0.177,0.123-0.262,0.188
	C17.054,19.366,17.124,19.313,17.196,19.26"/>
<path fill="#4D4D4D" d="M8.663,29.978c0.217,0.819,0.972,1.136,2.279,0.807c2.551-4.948,3.904-7.432,6.3-11.557
	c-2.177,3.654-3.544,6.108-6.097,10.938c-1.207,0.294-1.911,0.001-2.124-0.753c3.088-5.452,5.039-7.331,8.221-10.186
	C13.116,22.864,11.593,24.773,8.663,29.978"/>
<path fill="#4D4D4D" d="M10.154,27.718c0.192,0.575,0.75,0.805,1.682,0.6c2.602-4.594,3.319-5.76,5.405-9.09
	c-2.384,3.717-3.309,5.308-5.15,8.481c-0.848,0.18-1.359-0.03-1.543-0.551c2.35-3.62,3.288-4.731,6.693-7.931
	C13.59,22.599,12.762,23.683,10.154,27.718"/>
<path fill="#4D4D4D" d="M93.844,76.896c0.022,0.02,0.053,0.051,0.075,0.072c0.324-0.098,0.53-0.811,0.556-0.992
	c0.035-0.234-0.005-0.271-0.077-0.338c-0.131,0.049-0.131,0.049-0.239,0.18c-0.162,0.238-0.254,0.457-0.315,0.76
	c-1.134,1.514-2.346,3.02-3.609,4.494c-1.645,4.809-2.364,5.971-3.017,6.824l0.19-0.188c1.071-1.195,2.28-4.535,3.003-6.529
	C91.612,79.773,92.763,78.338,93.844,76.896"/>
<path fill="#4D4D4D" d="M93.565,79.311c0.014,0.012,0.031,0.025,0.044,0.035c0.253-0.176,0.486-0.826,0.488-0.832
	c0.068-0.205,0.054-0.242,0.026-0.309c-0.083,0.029-0.083,0.029-0.173,0.139c-0.136,0.195-0.229,0.385-0.325,0.652
	c-0.733,0.98-1.506,1.955-2.309,2.918c-1.32,2.824-1.717,3.328-2.586,4.432l0.19-0.205c0.983-1.135,1.61-2.389,2.476-4.121
	C92.15,81.113,92.874,80.197,93.565,79.311"/>
<path fill="#4D4D4D" d="M95.201,77.297c-0.091,0.152-0.165,0.291-0.305,0.584c-0.337,0.5-0.696,1.016-1.078,1.539
	c-0.709,0.977-1.462,1.949-2.251,2.908c-1.028,1.809-1.214,2.137-2.08,3.191l0.115-0.129l0.077-0.088
	c0.991-1.283,1.118-1.447,1.919-2.871c0.737-0.9,1.444-1.814,2.109-2.73c0.37-0.508,0.718-1.006,1.045-1.492
	c-0.013,0.033-0.027,0.078-0.036,0.113c0.125-0.086,0.454-0.764,0.458-0.77c0.143-0.301,0.145-0.35,0.146-0.408
	C95.269,77.191,95.269,77.191,95.201,77.297"/>
<path fill="#4D4D4D" d="M59.982,3.917c0.678,0.798,0.984,1.964,0.927,3.449c-0.164-0.003-0.663-0.015-0.697,0.204
	c-0.007,0.04,1.54,1.03,2.033,0.365c-0.052-0.142-0.096-0.264-0.659-0.451c0.062-1.53-0.264-2.724-0.978-3.532
	c-4.571-1.141-6.483-1.187-10.671-1.284c-0.502-0.076-1.185-0.096-1.694-0.094l-0.778,0.066c0.718-0.071,1.346-0.038,1.882,0.092
	C54.213,2.689,56.021,3.074,59.982,3.917"/>
<path fill="#4D4D4D" d="M51.703,2.528c4.945,0.135,6.769,0.589,10.764,1.585c1.31,1.307,1.499,3.737,0.587,7.046
	c-3.971-1.055-8.032-1.69-12.134-1.952c-0.363-0.25-1.553-0.366-1.969,0.098c0.155,0.499,1.525,0.45,1.951,0.192
	c4.276,0.242,8.561,0.958,12.74,2.139c1.026-3.531,0.849-6.105-0.555-7.451C58.48,2.87,56.538,2.753,52.284,2.502
	c-0.327-0.053-0.683-0.076-1.064-0.068l-0.735,0.019C50.927,2.437,51.333,2.463,51.703,2.528"/>
<path fill="#4D4D4D" d="M65.431,12.882c-0.168-0.019-0.682-0.075-0.806,0.232C64.441,13.57,65.669,14.206,66.33,14
	c0.259-0.081,0.557-0.418-0.243-0.897c1.333-4.156,1.147-7.128-0.585-8.532c-3.803-1.222-5.813-1.564-8.793-1.871
	c3.157,0.33,4.982,0.847,8.195,1.761C66.573,5.872,66.739,8.802,65.431,12.882"/>
<path fill="#4D4D4D" d="M56.342,2.663c0.123,0.013,0.247,0.024,0.367,0.036C56.589,2.687,56.466,2.675,56.342,2.663"/>
<path fill="#4D4D4D" d="M56.342,2.663c-0.549-0.055-1.127-0.109-1.761-0.168c-0.132-0.013-0.268-0.022-0.408-0.028l-0.739-0.024
	c0.2,0.004,0.393,0.017,0.576,0.039C54.875,2.535,55.64,2.595,56.342,2.663"/>
<path fill="#4D4D4D" d="M58.964,2.889L58.805,2.87c0.091,0.012,0.177,0.025,0.265,0.038C59.034,2.902,59.001,2.896,58.964,2.889"/>
<path fill="#4D4D4D" d="M59.069,2.907c1.253,0.221,2.181,0.384,2.947,0.533C61.115,3.236,60.164,3.062,59.069,2.907"/>
<path fill="#4D4D4D" d="M58.805,2.87c-0.482-0.064-0.993-0.125-1.54-0.184L58.805,2.87z"/>
<path fill="#4D4D4D" d="M68.93,9.353c-0.134-0.021-0.487-0.078-0.618,0.035c-0.409,0.354,1.192,1.052,1.723,0.928
	c0.212-0.05,0.394-0.305-0.451-0.743c0.083-2.098-0.49-3.621-1.729-4.465c-2.9-0.983-3.807-1.274-5.838-1.668
	c1.69,0.382,3.221,0.87,5.257,1.519C68.461,5.805,69.01,7.304,68.93,9.353"/>
<path fill="#4D4D4D" d="M90.867,20.731c-3.085-2.949-4.855-3.702-9.338-4.755c-0.072,0.926-0.254,1.945-0.544,3.052
	c-0.402-0.163-0.607-0.139-0.708,0.081c-0.067,0.658,0.901,1.357,1.368,1.396c0.411,0.033,0.586-0.378-0.084-1.074
	c0.277-1.063,0.456-2.046,0.535-2.943c4.679,1.136,6.321,1.996,9.254,4.847c-0.074-0.116-0.155-0.227-0.24-0.333l-0.477-0.579
	C90.716,20.521,90.793,20.625,90.867,20.731"/>
<path fill="#4D4D4D" d="M8.402,52.292c6.201-1.872,15.395-8.734,23.732-17.264c8.168,8.261,18.521,18.413,28.765,28.147
	c2.008,1.908,3.933,3.725,5.711,5.584c-0.025,0.326-0.082,1.086,0.752,1.199c0.802,0.111,1.522-0.754,1.035-1.551
	c-0.413-0.506-0.881-0.379-1.257-0.279c-1.828-1.721-3.751-3.541-5.759-5.449c-10.416-9.897-21.007-20.16-29.338-28.393
	C23.75,42.838,14.542,49.749,8.357,51.615c-4.49,1.354-6.522-0.207-6.167-3.82l-0.064,0.759C1.832,52.122,3.902,53.65,8.402,52.292"
	/>
<path fill="#4D4D4D" d="M76.947,76.785c0.711-0.473,0.521-1.107,0.43-1.252c-0.115-0.186-0.604-0.582-1.293,0.029
	c-0.528,0.646-0.283,1.176,0.216,1.342c-0.979,12.664-1.213,15.672,0.061,17.816c-3.343,2.486-6.481,4.309-9.022,5.121l0.815-0.268
	c2.466-0.842,5.479-2.613,8.678-5.002C76.197,93.678,75.242,92.324,76.947,76.785"/>
<path fill="#4D4D4D" d="M74.531,79.188c0.708-0.463,0.54-1.041,0.425-1.209c-0.005-0.006-0.512-0.658-1.339,0.039
	c-0.534,0.631-0.272,1.135,0.246,1.289c-0.666,10.609-0.701,13.563,0.526,15.961c-3.553,2.596-6.875,4.475-9.556,5.285
	c-0.178,0.055-0.35,0.102-0.519,0.146l0.744-0.193c0.114-0.031,0.231-0.064,0.351-0.1c2.657-0.803,5.957-2.678,9.486-5.266
	C74.327,94.176,73.268,92.381,74.531,79.188"/>
<path fill="#4D4D4D" d="M8.665,55.002c6.229-1.879,15.308-8.515,23.763-16.9c7.536,8.286,16.972,17.949,26.528,27.031
	c0.292,0.275,0.581,0.551,0.813,0.969c-0.131,1.029,0.603,1.244,0.831,1.285c0.832,0.148,1.578-0.732,1.052-1.57
	c-0.288-0.41-0.739-0.525-1.34-0.348c-0.288-0.271-0.577-0.545-0.868-0.822C49.714,55.4,40.056,45.612,32.362,37.317
	c-8.434,8.43-17.548,15.128-23.775,17.009c-4.518,1.361-6.691-0.059-6.583-3.479l-0.013,0.569l-0.004,0.19
	C1.937,54.98,4.142,56.367,8.665,55.002"/>
<path fill="#4D4D4D" d="M70.628,96.014c-0.539-1.26-1.544-3.602-0.989-12.934c0.74-0.432,0.534-0.979,0.403-1.133
	c-0.005-0.008-0.568-0.611-1.41,0.041c-0.538,0.588-0.265,1.076,0.309,1.207c-0.174,7.855,0.035,10.268,1.119,12.9
	c-3.679,2.588-7.102,4.463-9.911,5.311c-0.717,0.217-1.373,0.359-1.968,0.432l0.78-0.102c0.542-0.076,1.136-0.211,1.78-0.404
	C63.539,100.486,66.957,98.609,70.628,96.014"/>
<path fill="#4D4D4D" d="M9.579,60.396c6.12-1.846,14.735-7.855,23.135-15.683c6.354,7.915,14.127,16.425,22.311,24.198
	c0.291,0.277,0.581,0.551,0.813,0.963c-0.136,1.002,0.604,1.225,0.832,1.268c0.842,0.164,1.597-0.678,1.066-1.502
	c-0.291-0.406-0.746-0.531-1.349-0.367c-0.287-0.271-0.578-0.543-0.869-0.82c-8.354-7.939-16.325-16.605-22.82-24.594
	c-8.427,7.916-17.116,14.014-23.262,15.869c-4.595,1.385-6.997,0.168-7.26-2.979l0.07,0.736C2.555,60.594,4.981,61.785,9.579,60.396
	"/>
<path fill="#4D4D4D" d="M65.893,96.51c-0.889-2.377-1.115-4.354-1.31-8.725c0.699-0.293,0.711-0.801,0.449-1.055
	c-0.005-0.006-0.623-0.545-1.472,0.047c-0.533,0.533-0.198,0.953,0.388,1.078c0.213,4.869,0.488,6.301,1.326,8.688
	c-3.665,2.477-7.064,4.268-9.901,5.125c-1.194,0.361-2.234,0.537-3.123,0.547l0.747-0.01c0.854-0.02,1.845-0.197,2.976-0.537
	C58.811,100.811,62.22,99.004,65.893,96.51"/>
<path fill="#4D4D4D" d="M60.779,96.586c-0.654-2.063-0.762-2.734-1.111-5.248c0.637-0.209,0.736-0.668,0.401-0.941
	c-0.007-0.006-0.681-0.498-1.519,0.025c-0.56,0.512-0.051,0.883,0.47,0.973c0.392,2.861,0.514,3.26,1.098,5.172
	c-3.525,2.275-6.792,3.936-9.567,4.773c-1.674,0.506-3.072,0.682-4.196,0.561l0.727,0.076c1.098,0.104,2.455-0.076,4.072-0.564
	C53.941,100.572,57.229,98.895,60.779,96.586"/>
<path fill="#4D4D4D" d="M54.723,95.523c-0.842-3.414-1.087-5.961-1.356-11.422c-2.644-1.984-5.341-4.268-8.049-6.842
	c-2.827-2.686-5.511-5.541-7.962-8.629c0.038-0.225,0.086-0.504-0.127-0.869c-0.005-0.008-0.615-0.92-1.476-0.398
	c-0.039,0.039-0.095,0.084-0.128,0.127c-0.378,0.477-0.087,1.787,1.2,1.639c2.501,2.967,5.181,5.824,8.008,8.512
	c2.637,2.506,5.268,4.734,7.854,6.676c0.284,5.863,0.556,7.732,1.344,11.109c-3.51,2.199-6.761,3.807-9.554,4.648
	c-2.254,0.68-4.048,0.814-5.386,0.463l0.706,0.182c1.322,0.326,3.08,0.188,5.279-0.477C47.89,99.391,51.175,97.76,54.723,95.523"/>
<path fill="#4D4D4D" d="M51.931,95.086c-0.852-3.279-1.059-6.467-1.299-10.16c-2.402-1.813-4.829-3.871-7.252-6.172
	c-1.108-1.053-2.191-2.135-3.248-3.24c0.146-0.334,0.111-0.658-0.104-0.961c-0.427-0.602-1.291-0.729-1.683-0.246
	c-0.469,0.574,0.148,1.783,1.307,1.566c1.055,1.107,2.138,2.189,3.246,3.242c2.352,2.234,4.71,4.238,7.049,6.004
	c0.308,5.443,0.715,7.287,1.276,9.838c-3.344,2.041-6.446,3.541-9.134,4.354c-2.471,0.746-4.404,0.854-5.805,0.396l0.697,0.223
	c1.385,0.43,3.285,0.316,5.702-0.414C45.401,98.695,48.542,97.168,51.931,95.086"/>
<path fill="#4D4D4D" d="M43.378,92.973c-0.458-2.203-0.527-2.793-0.908-6.08c-1.597-1.264-3.186-2.639-4.754-4.131
	c-2.828-2.688-5.437-5.594-7.808-8.656c0.149-0.301,0.129-0.619-0.059-0.943c-0.005-0.01-0.575-0.939-1.393-0.549
	c-0.036,0.031-0.088,0.068-0.121,0.104c-0.437,0.494,0.099,1.752,1.126,1.68c2.362,3.066,4.968,5.979,7.795,8.664
	c1.498,1.424,3.014,2.742,4.541,3.957c0.26,2.477,0.282,2.6,0.858,5.719c-2.745,1.539-5.3,2.693-7.576,3.381
	c-3.085,0.93-5.38,0.924-6.896,0.107l0.66,0.35c1.51,0.781,3.778,0.777,6.812-0.137C37.973,95.736,40.58,94.555,43.378,92.973"/>
<path fill="#4D4D4D" d="M42.465,21.51c-0.162,0.298-0.008,0.464,0.226,0.714c-0.13,0.184-0.263,0.368-0.397,0.553
	c-2.087,2.874-4.42,5.73-6.885,8.474c9.238,7.168,20.31,16.673,30.611,26.462c1.09,1.035,2.148,2.051,3.173,3.047
	c6.844-0.346,13.664-1.072,20.517-1.281c0.075,0.205,0.269,0.445,0.437,0.584c0.886-0.154,1.109-1.334,0.375-1.969
	c-0.455,0.074-0.537,0.088-0.783,0.666c-6.773,0.234-13.518,0.92-20.283,1.289c-0.961-0.934-1.951-1.887-2.971-2.855
	c-10.13-9.625-21.061-18.912-30.297-25.933c2.386-2.677,4.645-5.457,6.676-8.252c0.136-0.188,0.271-0.375,0.548-0.548
	c0.658-0.077,0.692-0.148,0.88-0.543c-0.081-0.19-0.232-0.448-0.411-0.551C43.177,21.026,42.783,21.294,42.465,21.51"/>
<path fill="#4D4D4D" d="M49.199,27.954c0.08-0.518-0.881-1.437-1.828-0.649c-0.175,0.358-0.184,0.484,0.116,0.9
	c-0.687,0.897-1.394,1.792-2.117,2.68c8.641,5.544,17.822,12.671,26.062,20.501c0.236,0.223,0.469,0.446,0.7,0.668
	c5.194-0.267,5.194-0.267,8.124-0.315c0.117,0.188,0.277,0.443,0.627,0.501c0.725,0.125,1.318-0.83,0.838-1.712
	c-0.354-0.589-1.23-0.677-1.563,0.332c-3.576,0.223-3.576,0.223-7.804,0.456c-0.162-0.155-0.325-0.311-0.489-0.467
	c-8.068-7.667-17.073-14.617-25.612-20.039c0.612-0.76,1.211-1.522,1.798-2.287C48.989,28.643,49.167,28.165,49.199,27.954"/>
<path fill="#4D4D4D" d="M17.282,19.192c-0.012,0.011-0.028,0.025-0.04,0.035c0.176-0.147,0.356-0.291,0.528-0.445
	C17.722,18.819,17.548,18.963,17.282,19.192"/>
<path fill="#4D4D4D" d="M39.84,7.875l-14.7,6.951c-0.417,0.199-0.476,0.249-0.574,0.333c0.003,0.005,0.006,0.011,0.008,0.017
	c0.067-0.008,1.585-0.437,1.671-0.742c7.234-3.658,11.136-5.316,14.271-6.647c0.02-0.449-0.012-0.852-0.097-1.205
	c0.488-0.161,0.533-0.211,0.63-0.32c-0.083-0.036-0.221-0.097-0.856,0.05C39.978,6.36,39.44,6.5,39.097,6.709
	c0.001,0.035,0.002,0.081,0.003,0.115c0.193,0.004,0.253,0.006,0.643-0.068C39.823,7.085,39.855,7.459,39.84,7.875"/>
<path fill="#4D4D4D" d="M12.767,21.391c-0.07,0.058-0.223,0.248-0.375,0.445l-0.201,0.263l-0.004,0.004l-0.013,0.016l-0.225,0.298
	c0.249-0.325,0.522-0.631,0.775-0.954C12.768,21.405,12.768,21.405,12.767,21.391"/>
<path fill="#4D4D4D" d="M4.635,36.388c0.414-1.121,0.418-1.139,0.44-1.25c0.905-2.366,1.04-2.627,2.68-5.837
	c0.357-0.868,0.858-1.843,1.495-2.901c-0.754,1.217-1.338,2.332-1.749,3.317c-1.887,3.559-2.98,6.817-3.025,7.092
	C4.531,36.669,4.583,36.528,4.635,36.388"/>
<path fill="#4D4D4D" d="M10.098,25.063c-0.306,0.46-0.588,0.905-0.848,1.337c0.097-0.155,0.196-0.313,0.298-0.472L10.098,25.063z"/>
<path fill="#4D4D4D" d="M9.057,57.711c6.202-1.873,15.085-8.218,23.56-16.367c6.93,8.165,15.507,17.277,24.377,25.705
	c2.008,1.908,3.952,3.707,5.766,5.525c-0.023,0.314-0.081,1.047,0.771,1.164c0.817,0.115,1.551-0.715,1.056-1.49
	c-0.268-0.375-0.7-0.469-1.286-0.277c-1.865-1.686-3.807-3.488-5.815-5.396c-9.042-8.59-17.827-17.844-24.906-26.053
	C24.101,48.737,15.159,55.16,8.947,57.037c-4.565,1.377-6.86,0.057-6.944-3.229l0.028,0.734C2.158,57.797,4.481,59.092,9.057,57.711
	"/>
<path fill="#4D4D4D" d="M10.229,63.07c5.988-1.807,14.268-7.436,22.501-14.868c5.802,7.543,12.819,15.405,20.315,22.526
	c2.007,1.908,3.972,3.689,5.821,5.467c-0.146,0.922,0.569,1.098,0.792,1.129c0.829,0.123,1.566-0.664,1.059-1.414
	c-0.273-0.363-0.712-0.459-1.303-0.289c-1.902-1.654-3.863-3.436-5.872-5.344c-7.667-7.285-14.869-15.311-20.806-22.958
	c-8.284,7.54-16.655,13.268-22.681,15.086c-4.594,1.387-7.088,0.277-7.531-2.707l0.112,0.717
	C3.115,63.371,5.629,64.459,10.229,63.07"/>
<path fill="#4D4D4D" d="M11.913,68.318c5.583-1.684,13.022-6.467,20.673-12.926c4.767,6.504,10.387,12.971,16.509,18.787
	c2.008,1.908,3.99,3.672,5.879,5.41c-0.141,0.879,0.586,1.063,0.813,1.098c0.837,0.131,1.569-0.605,1.05-1.332
	c-0.281-0.35-0.726-0.451-1.32-0.301c-1.94-1.619-3.92-3.385-5.929-5.293c-6.294-5.982-12.084-12.629-16.978-19.283
	c-7.74,6.592-15.293,11.482-20.936,13.186c-4.595,1.387-7.233,0.451-7.961-2.27l0.199,0.715
	C4.673,68.791,7.327,69.703,11.913,68.318"/>
<path fill="#4D4D4D" d="M49.098,94.516c-0.679-2.992-0.834-4.346-1.2-8.842c-2.146-1.635-4.297-3.469-6.436-5.5
	c-2.827-2.688-5.474-5.57-7.913-8.582c0.088-0.242,0.199-0.541-0.063-0.973c-0.005-0.01-0.596-0.932-1.437-0.473
	c-0.037,0.033-0.091,0.074-0.124,0.115c-0.367,0.439-0.088,1.727,1.162,1.66c2.431,3.02,5.072,5.906,7.899,8.594
	c2.067,1.963,4.149,3.742,6.228,5.33c0.352,4.576,0.642,5.973,1.17,8.508c-3.161,1.879-6.096,3.268-8.663,4.043
	c-2.687,0.811-4.753,0.883-6.203,0.311l0.367,0.143l0.315,0.121c1.441,0.545,3.475,0.463,6.109-0.334
	C42.91,97.854,45.888,96.438,49.098,94.516"/>
<path fill="#4D4D4D" d="M45.177,86.33c-1.876-1.453-3.749-3.061-5.601-4.82c-1.109-1.055-2.187-2.139-3.232-3.254
	c0.141-0.311,0.104-0.623-0.109-0.928c-0.422-0.598-1.269-0.766-1.647-0.324c-0.453,0.525,0.162,1.719,1.292,1.572
	c1.044,1.115,2.121,2.199,3.229,3.252c1.783,1.695,3.583,3.244,5.392,4.65c0.382,3.842,0.48,4.346,1.029,7.139
	c-9.725,5.531-13.086,4.451-14.701,3.934l0.668,0.305c4.344,1.715,11.371-2.174,14.748-4.041
	C45.714,91.158,45.589,90.525,45.177,86.33"/>
<path fill="#4D4D4D" d="M40.506,91.984c-0.251-1.385-0.525-3.242-0.712-4.637c-1.312-1.063-2.613-2.203-3.897-3.424
	c-1.108-1.053-2.182-2.143-3.215-3.264c0.133-0.287,0.093-0.588-0.121-0.889c-0.42-0.594-1.244-0.807-1.604-0.414
	c-0.431,0.475,0.184,1.645,1.278,1.578c1.034,1.121,2.105,2.211,3.213,3.264c1.213,1.152,2.442,2.234,3.683,3.246
	c0.167,1.285,0.44,2.992,0.66,4.27c-2.515,1.367-4.864,2.4-6.976,3.037c-3.274,0.988-5.669,0.934-7.199-0.012l0.634,0.385
	c1.527,0.914,3.897,0.957,7.127-0.018C35.531,94.457,37.932,93.395,40.506,91.984"/>
<path fill="#4D4D4D" d="M37.651,90.85c-0.175-0.943-0.354-2.209-0.497-3.154c-1.023-0.854-2.035-1.754-3.035-2.705
	c-2.827-2.686-5.401-5.617-7.707-8.719c0.138-0.279,0.114-0.582-0.067-0.906c-0.005-0.01-0.559-0.941-1.34-0.629
	c-0.035,0.027-0.084,0.057-0.115,0.09c-0.416,0.439,0.107,1.686,1.093,1.693c2.297,3.105,4.867,6.039,7.694,8.725
	c0.93,0.883,1.869,1.723,2.817,2.521c0.113,0.836,0.31,1.943,0.445,2.777c-2.277,1.195-4.411,2.109-6.346,2.693
	c-3.45,1.041-5.934,0.936-7.466-0.143l0.615,0.426c1.533,1.045,3.996,1.139,7.402,0.109C33.125,93.031,35.313,92.088,37.651,90.85"
	/>
<path fill="#4D4D4D" d="M17.507,82.457c0.131,0.129,0.404,0.395,0.689,0.463c0.434,0.102,0.438-0.33,0.17-0.785
	c-0.237-0.402-0.657-0.785-0.976-0.887c-0.23-0.074-0.586-0.035-0.29,0.643c-3.258,0.656-5.432,0.061-6.543-1.58l0.422,0.611
	C12.104,82.527,14.274,83.107,17.507,82.457"/>
<path fill="#4D4D4D" d="M19.269,75.225c0.899,0.979,1.607,0.641,1.627-0.057c0.006-0.191-0.062-0.488-0.16-0.705
	c-0.251-0.557-1.042-1.449-1.735-0.996c-0.247,0.285-0.273,0.611-0.09,1.16c-1.221,0.545-2.386,0.988-3.484,1.32
	c-4.454,1.342-7.219,0.68-8.327-1.574l0.33,0.658c1.133,2.217,3.902,2.859,8.337,1.52C16.871,76.217,18.042,75.773,19.269,75.225
	 M19.331,74.15c0.136-0.355,0.661-0.176,0.92,0.318c0.103,0.193,0.206,0.566-0.057,0.719C19.732,75.359,19.171,74.568,19.331,74.15"
	/>
<path fill="#4D4D4D" d="M22.728,83.643c0.111,0.084,0.371,0.283,0.655,0.344c0.541,0.113,0.715-0.328,0.353-0.891
	c-0.218-0.338-0.592-0.637-0.927-0.74c-0.405-0.125-0.851,0.023-0.526,0.742c-0.577,0.217-1.138,0.406-1.684,0.572
	c-4.162,1.256-6.916,0.842-8.288-0.939l0.46,0.59c1.387,1.744,4.135,2.143,8.27,0.895C21.588,84.051,22.15,83.857,22.728,83.643"/>
<path fill="#4D4D4D" d="M21.911,86.486c-0.278-0.375-0.747-0.725-1.085-0.814c-0.246-0.064-0.613-0.023-0.246,0.609
	c-3.048,0.613-5.165,0.148-6.364-1.229l0.501,0.566c1.208,1.344,3.315,1.793,6.333,1.188c0.146,0.115,0.45,0.355,0.75,0.414
	C22.254,87.309,22.223,86.904,21.911,86.486"/>
<path fill="#4D4D4D" d="M48.355,24.429c0.73-0.123,0.871-0.791,0.255-1.213c-0.234-0.145-0.842-0.422-1.474,0.125
	c-0.11,0.368-0.136,0.455,0.189,0.816c-0.146,0.204-0.295,0.411-0.445,0.617c-1.55,2.134-3.22,4.258-4.975,6.343
	c8.973,6.054,18.833,13.919,27.762,22.403c0.521,0.494,1.032,0.986,1.535,1.475c3.972-0.207,7.939-0.484,11.911-0.68
	c0.1,0.213,0.251,0.533,0.61,0.598c0.707,0.129,1.238-0.939,0.835-1.68c-0.208-0.383-1.035-0.866-1.468,0.32
	c-8.143,0.514-8.143,0.514-11.646,0.707c-0.438-0.422-0.881-0.848-1.33-1.276c-8.756-8.318-18.449-15.994-27.35-21.916
	c1.653-1.981,3.229-3.996,4.699-6.018c0.152-0.21,0.303-0.418,0.6-0.607C48.152,24.439,48.269,24.444,48.355,24.429"/>
<path fill="#4D4D4D" d="M85.688,57.58c0.607,0.123,1.189-0.807,0.83-1.639c-0.203-0.379-0.939-0.855-1.386,0.307
	c-4.887,0.309-9.771,0.66-14.66,0.926c-0.702-0.682-1.421-1.373-2.156-2.07c-9.442-8.974-19.782-17.426-28.919-23.882
	c1.451-1.681,2.85-3.395,4.173-5.12c0.873,0.092,1.052-0.291,1.082-0.528c0.057-0.464-0.903-1.275-1.784-0.559
	c-0.168,0.358-0.094,0.462,0.149,0.805c-1.403,1.83-2.892,3.646-4.438,5.423c9.175,6.594,19.668,15.25,29.282,24.384
	c0.806,0.766,1.593,1.523,2.359,2.27c2.569-0.131,2.569-0.131,14.895-0.953C85.216,57.184,85.351,57.514,85.688,57.58"/>
<path fill="#4D4D4D" d="M98.08,67.459c-0.086,0.031-0.086,0.031-0.155,0.135c-0.272,0.521-0.363,1.279-0.235,1.482
	c0.251,0.008,0.407-0.752,0.448-0.984c2.698-4.656,3.166-6.932,3.474-8.434l0.105-0.752c-0.312,2.232-1.502,5.205-3.554,8.725
	C98.142,67.52,98.142,67.52,98.08,67.459"/>
<path fill="#4D4D4D" d="M100.824,63.207c-0.011,0.02-0.021,0.045-0.027,0.063c-0.132,0.422-0.371,1.611-0.359,1.727
	c0.034-0.039,0.131-0.395,0.247-0.91c0.161-0.5,0.292-0.975,0.387-1.422l0.092-0.443l0.067-0.338
	c-0.102,0.51-0.245,1.059-0.434,1.643C100.84,63.256,100.836,63.242,100.824,63.207"/>
<path fill="#4D4D4D" d="M98.294,70.025c-0.047,0.01-0.047,0.01-0.099,0.096c-0.215,0.424-0.413,1.17-0.402,1.416
	c0.009,0.01,0.021,0.02,0.029,0.025c0.133-0.135,0.303-0.66,0.369-0.879c0.98-1.793,1.673-3.396,2.077-4.77l0.221-0.809
	c-0.399,1.457-1.131,3.178-2.19,5.115C98.312,70.104,98.312,70.104,98.294,70.025"/>
<path fill="#4D4D4D" d="M99.291,68.984L99.291,68.984l0.451-1.33c0.002-0.008,0.004-0.016,0.005-0.021
	c-0.005,0.014-0.012,0.033-0.018,0.049C99.583,68.113,99.441,68.553,99.291,68.984"/>
<path fill="#4D4D4D" d="M96.063,74.344c-0.128,0.207-0.222,0.424-0.321,0.748c-0.417,0.619-0.861,1.254-1.334,1.904
	c-1.099,1.514-2.286,3.021-3.536,4.5c-1.354,3.395-2.015,4.523-2.899,5.645l0.152-0.158l0.033-0.035
	c1.025-1.154,1.791-2.867,2.844-5.346c1.187-1.41,2.315-2.846,3.362-4.285c0.461-0.635,0.895-1.256,1.302-1.861
	c0.002,0.027,0.003,0.063,0.004,0.09c0.023,0.002,0.054,0.004,0.077,0.004c0.247-0.314,0.396-0.809,0.423-0.904
	c0.078-0.273,0.074-0.283,0.022-0.426C96.147,74.248,96.095,74.299,96.063,74.344"/>
<path fill="#4D4D4D" d="M68.313,96.313c-0.509-1.172-1.703-3.914-1.081-15.473c0.786-0.443,0.526-1.07,0.413-1.213
	c-0.005-0.008-0.599-0.682-1.479,0c-0.546,0.605-0.261,1.143,0.33,1.314c-0.201,9.83,0.145,12.588,1.219,15.43
	c-3.688,2.543-7.113,4.385-9.948,5.24c-0.947,0.285-1.793,0.449-2.538,0.502l0.747-0.055c0.707-0.057,1.505-0.217,2.394-0.486
	C61.2,100.721,64.625,98.869,68.313,96.313"/>
<path fill="#4D4D4D" d="M63.381,96.604c-0.884-2.506-1.416-5.361-1.337-11.834c0.786-0.396,0.536-0.961,0.386-1.127
	c-0.005-0.008-0.644-0.645-1.531-0.021c-0.489,0.502-0.317,1.045,0.392,1.238c0.179,7.863,0.739,9.578,1.449,11.75
	c-3.61,2.387-6.955,4.117-9.771,4.969c-1.447,0.438-2.68,0.619-3.698,0.563l0.581,0.029l0.151,0.006
	c0.99,0.039,2.179-0.143,3.568-0.561C56.394,100.762,59.756,99.014,63.381,96.604"/>
<path fill="#4D4D4D" d="M21.568,19.171c0.169,0.329,1.602,0.404,1.63,0.086c0.01-0.11-0.185-0.212-0.499-0.26
	c-0.177-0.025-0.712-0.063-1.056,0.079c-1.613-0.125-3.088-0.079-4.401,0.151C18.529,19.03,19.98,19.016,21.568,19.171
	 M22.492,19.097c0.127,0.017,0.329,0.067,0.276,0.156c-0.148,0.152-0.808,0.045-0.808-0.072
	C21.96,19.106,22.234,19.063,22.492,19.097"/>
<path fill="#4D4D4D" d="M8.257,47.582c0.614-0.186,1.261-0.425,1.936-0.717c0.278-1.015,0.647-2.368,0.928-3.382
	c0.355,0.35,0.617-0.451,0.647-1.181c0.019-0.443-0.072-1.611-0.519-1.253c-0.387,0.551-0.355,1.497-0.351,1.603
	c0.026,0.536,0.026,0.536-0.826,3.593c-0.628,0.268-1.23,0.489-1.803,0.662c-3.55,1.072-5.368,0.085-5.497-2.411l0.545-3.023
	c0.005-0.016,0.466-1.625,0.534-2.075c-0.232,0.196-0.729,2.249-1.199,5.666C2.757,47.653,4.61,48.683,8.257,47.582 M11.225,41.75
	c0.09-0.191,0.202-0.182,0.27,0.021c0.053,0.16,0.055,0.367,0.053,0.448c-0.003,0.208-0.051,0.587-0.211,0.69
	C11.079,43,11.041,42.141,11.225,41.75 M3.338,41.206c0.028-0.237,0.271-1.143,0.33-1.226c0.025,0.031-0.194,0.824-0.196,0.832
	c-0.068,0.246-0.112,0.385-0.13,0.412C3.339,41.22,3.338,41.211,3.338,41.206"/>
<path fill="#4D4D4D" d="M14.215,22.428c0.08-0.079,0.13-0.132,0.563-0.616c0.277-0.309,0.558-0.617,0.833-0.928
	c0.527-0.56,1.071-1.113,1.629-1.657c-0.56,0.541-1.104,1.089-1.632,1.648C15.214,21.27,14.334,22.217,14.215,22.428"/>
<path fill="#4D4D4D" d="M16.55,19.961c0.079-0.084,0.154-0.169,0.233-0.252l-0.071,0.075C16.656,19.842,16.605,19.902,16.55,19.961"
	/>
<path fill="#4D4D4D" d="M16.783,19.709l0.459-0.481l-0.322,0.333C16.873,19.609,16.829,19.66,16.783,19.709"/>
<path fill="#4D4D4D" d="M14.288,22.548c0.19-0.199,1.352-1.586,1.364-1.601c0.293-0.331,0.596-0.659,0.898-0.985
	c-0.304,0.325-0.61,0.649-0.904,0.979C15.294,21.314,14.391,22.342,14.288,22.548"/>
<path fill="#4D4D4D" d="M13.792,23.921c-0.204,0.265-1.056,1.547-1.035,1.724c0.053-0.066,0.134-0.166,0.468-0.706
	c0.018-0.029,0.451-0.732,0.6-1.018c0.946-1.474,1.975-2.906,3.09-4.29l0.328-0.403l-0.517,0.633
	C15.673,21.175,14.695,22.529,13.792,23.921"/>
<path fill="#4D4D4D" d="M15.625,20.91c-0.353,0.363-1.265,1.371-1.378,1.583c0.081-0.083,0.131-0.138,0.56-0.631
	c0.272-0.315,0.55-0.627,0.823-0.943c0.521-0.572,1.059-1.136,1.612-1.691C16.687,19.78,16.148,20.341,15.625,20.91"/>
<path fill="#4D4D4D" d="M12.938,25.632c0.053-0.068,0.134-0.17,0.452-0.709c0.045-0.075,0.435-0.738,0.568-1.012
	c0.437-0.681,0.967-1.453,1.512-2.224c-0.487,0.724-0.957,1.458-1.401,2.207c-0.197,0.272-0.989,1.562-0.932,1.705
	c0.053-0.069,0.135-0.175,0.437-0.711c0.016-0.029,0.406-0.72,0.534-1.002c0.575-0.977,1.192-1.932,1.841-2.871
	c0.452-0.633,0.898-1.245,1.293-1.788c-1.206,1.507-2.312,3.073-3.318,4.688C13.723,24.185,12.898,25.472,12.938,25.632"/>
<path fill="#4D4D4D" d="M47.65,7.549c-1.153,0.381-2.691,0.884-3.837,1.278c-0.882-0.058-2.137,0.25-2.098,0.604
	c0.443,0.448,2.606,0.039,2.685-0.327c0.017-0.078-0.036-0.116-0.103-0.164c1.205-0.413,2.811-0.963,4.027-1.344
	c0.255-1.772-0.03-3.087-0.865-3.848l1.562-0.433c0.225-0.008,1.369-0.06,1.799-0.228c0.004-0.019,0.009-0.043,0.013-0.061
	c-0.304-0.104-1.076-0.061-1.305-0.044c-0.293,0.02-1.012,0.083-1.349,0.225c-0.005,0.02-0.01,0.044-0.016,0.063
	c0.086,0.026,0.115,0.036,0.306,0.046c-0.516,0.148-1.203,0.345-1.719,0.493C47.588,4.542,47.885,5.821,47.65,7.549 M43.726,9.157
	c-0.119,0.274-1.264,0.319-1.343,0.164c-0.057-0.114,0.346-0.267,0.784-0.298C43.378,9.007,43.737,9.019,43.726,9.157 M48.832,3.172
	C48.863,3.14,49.09,3.089,49.45,3.06c0.198-0.017,0.604-0.033,0.717,0.014c0.063,0.055-0.333,0.107-0.551,0.126
	C49.207,3.236,48.775,3.233,48.832,3.172"/>
<path fill="#4D4D4D" d="M54.519,7.461c0.013-0.093-0.058-0.324-0.991-0.462c0.098-1.208-0.058-2.198-0.469-2.939
	c0.641-0.053,0.813-0.118,0.886-0.204c-0.042-0.237-1.206-0.244-1.256-0.244c-0.123-0.001-1.221,0.001-1.476,0.236
	c0,0.014,0.002,0.032,0.003,0.045c0.014,0.011,0.032,0.027,0.045,0.038c0.18,0.075,0.43,0.125,1.117,0.145
	c0.406,0.73,0.56,1.708,0.462,2.899c-1.214,0.092-1.124,0.415-0.986,0.532C52.319,7.906,54.445,7.978,54.519,7.461 M51.923,3.883
	c-0.04-0.021-0.064-0.053,0.044-0.09c0.116-0.04,0.352-0.068,0.601-0.071c0.203-0.003,0.606,0.015,0.69,0.099
	C53.322,3.989,52.116,3.982,51.923,3.883 M52.461,7.403c-0.075-0.142,0.317-0.254,0.778-0.222c0.217,0.015,0.587,0.083,0.593,0.238
	C53.746,7.719,52.562,7.596,52.461,7.403"/>
<path fill="#4D4D4D" d="M57.797,29.133c0.181-0.113,0.385-0.24,0.427-0.566c0.08-0.609-0.922-1.568-1.896-0.701
	c-0.379,0.967,0.532,1.281,0.82,1.354c0.502,1.782,1.096,4.18,1.517,5.982c4.203,2.957,8.354,6.225,12.299,9.728
	c3.49-0.241,3.49-0.241,7.735-0.478c0.611-0.869,1.196-1.723,1.756-2.564c2.008,1.983,3.832,3.983,5.466,5.98
	c-0.154,1.008,0.339,1.347,0.494,1.425c0.719,0.369,1.293-0.712,0.83-1.563c-0.35-0.642-0.834-0.433-0.993-0.364
	c-1.765-2.169-3.754-4.337-5.961-6.482c-0.612,0.934-1.26,1.887-1.939,2.858c-2.16,0.121-5.04,0.303-7.199,0.453
	c-3.808-3.359-7.812-6.489-11.875-9.326C58.879,33.14,58.272,30.846,57.797,29.133"/>
<path fill="#4D4D4D" d="M72.123,35.21c0.876,0.098,1.253-0.902,0.601-1.597c-0.354-0.377-0.788-0.459-1.289-0.243
	c-8.735-6.49-18.468-11.314-27.688-13.961c-0.043,0.009-4.402,0.854-4.801,0.7c-0.147-0.055-0.665-0.205-1.174,0.216
	c-0.035,0.115-0.055,0.301,0.011,0.401c0.232,0.358,1.552,0.714,1.737-0.111c1.277-0.233,2.978-0.557,4.254-0.798
	c9.092,2.744,18.691,7.597,27.332,14.052C71.058,35.077,72.079,35.205,72.123,35.21"/>
<path fill="#4D4D4D" d="M22.584,91.68c-0.444-0.402-1.232-0.949-1.372-0.852c-0.004,0.076,0.058,0.162,0.279,0.385
	c-0.803-0.174-1.471-0.492-2.004-0.947l0.582,0.488c0.525,0.436,1.177,0.74,1.958,0.906c0.615,0.451,0.811,0.504,0.913,0.5
	c0.004-0.01,0.012-0.02,0.018-0.027C22.945,92.086,22.915,91.979,22.584,91.68"/>
<path fill="#4D4D4D" d="M88.573,63.629c-0.054-0.143-0.171-0.289-0.276-0.346c-0.464-0.254-1.183,0.406-1,1.367
	c-0.861,1.105-1.745,2.205-2.648,3.299c-7.653,0.742-7.653,0.742-10.808,1.023c-1.031-1.021-2.107-2.08-3.229-3.174
	c0.041-0.111,0.098-0.264,0.098-0.447c0-0.676-0.796-1.395-1.682-0.609c-0.075,0.098-0.174,0.232-0.219,0.35
	c-0.284,0.729,0.349,1.658,1.338,1.207c1.187,1.15,2.326,2.262,3.415,3.332c3.337-0.293,3.337-0.293,11.228-1.088
	c0.954-1.146,1.886-2.303,2.789-3.467c0.028,0.016,0.064,0.035,0.094,0.045C88.261,65.334,88.852,64.357,88.573,63.629"/>
<path fill="#4D4D4D" d="M89.744,46.808c-0.196,0.113-0.306,0.335-0.386,0.497c-0.393,1.371,0.548,2.459,1.202,2.101
	c0.041-0.021,0.088-0.063,0.126-0.088c1.394,2.111,2.572,4.22,3.533,6.302c0.802-1.291,1.524-2.537,2.17-3.73
	c0.504,0.675,0.775-0.024,0.838-0.35c0.066-0.351,0.042-0.854-0.06-1.225c-0.208-0.755-0.655-1.006-0.921-0.515
	c-0.089,0.165-0.274,0.646-0.074,1.565c-0.577,1.069-1.218,2.177-1.919,3.326c-0.909-1.932-2.004-3.885-3.281-5.838
	C91.335,47.463,90.395,46.435,89.744,46.808 M89.737,48.211c-0.102-0.542,0.221-0.961,0.564-0.735
	c0.069,0.046,0.14,0.125,0.191,0.214c0.103,0.176,0.222,0.569,0.027,0.922C90.252,49.002,89.83,48.71,89.737,48.211 M96.429,51.08
	c-0.116-0.488,0.049-0.986,0.282-0.862c0.112,0.06,0.181,0.235,0.204,0.308c0.057,0.168,0.126,0.565-0.014,0.865
	C96.726,51.69,96.508,51.413,96.429,51.08"/>
<path fill="#4D4D4D" d="M91.777,24.924c-1.139-1.356-2.372-2.668-3.699-3.929c-0.286-0.272-0.576-0.54-0.867-0.804
	c-0.122-0.278-0.325-0.556-0.605-0.824c-0.008-0.007-0.831-0.782-0.954-0.385c0.057,0.561,1.136,1.605,1.54,1.491
	c0.292,0.264,0.579,0.532,0.866,0.804c1.155,1.098,2.239,2.236,3.255,3.405c-0.063,0.742-0.192,1.544-0.392,2.401
	c-1.039-0.341-2.475-0.63-3.513-0.97c-0.116-0.038-0.118-0.164-0.185-0.239c-0.28-0.318-0.622-0.517-0.851-0.493
	c-0.53,0.05-0.213,1.057,0.507,1.606c0.453,0.347,0.886,0.322,0.804-0.268c1.107,0.257,2.566,0.681,3.652,1.019
	C91.578,26.722,91.727,25.782,91.777,24.924"/>
<path fill="#4D4D4D" d="M79.869,12.188c0.207,0.447,1.535,1.337,1.754,1.178c0.002-0.069,0.002-0.091-0.123-0.246
	c2.678,1.064,3.857,1.809,5.738,3.625l-0.576-0.557l-0.806-0.745c-0.813-0.642-1.91-1.523-2.864-1.923
	c-0.585-0.245-1.4-0.499-1.948-0.817c-0.195-0.112-0.36-0.267-0.556-0.375c-0.463-0.255-0.558-0.237-0.617-0.191
	C79.87,12.152,79.87,12.172,79.869,12.188"/>
<path fill="#4D4D4D" d="M85.677,15.275l0.18,0.167c0.001,0,0.002,0.001,0.004,0.002C85.799,15.388,85.738,15.332,85.677,15.275"/>
<path fill="#4D4D4D" d="M89.338,80.66L89.338,80.66c-0.063-0.299-0.444-0.488-0.979,0.195c-0.386,0.631-0.274,1.029,0.036,1.098
	c-1.587,5.506-2.196,6.82-2.419,7.117l0.196-0.18c0.808-1.26,2.123-5.682,2.508-7.006C89.173,81.615,89.402,80.971,89.338,80.66
	 M88.431,81.391c-0.017-0.33,0.382-0.73,0.561-0.563c0.016,0.014,0.034,0.041,0.042,0.066c0.029,0.078,0.029,0.287-0.164,0.52
	C88.639,81.66,88.44,81.604,88.431,81.391"/>
<path fill="#4D4D4D" d="M72.358,76.283c0.753-0.471,0.557-1.109,0.43-1.297c-0.006-0.008-0.557-0.725-1.411-0.002
	c-0.548,0.654-0.281,1.238,0.278,1.404c-0.604,12.461-0.786,16.223,0.63,19.34c-3.636,2.605-7.024,4.494-9.782,5.324
	c-0.431,0.131-0.84,0.232-1.225,0.307l0.766-0.146c0.33-0.07,0.679-0.16,1.044-0.27c2.74-0.828,6.116-2.715,9.735-5.322
	C72.202,94.508,71.047,92.436,72.358,76.283"/>
<path fill="#4D4D4D" d="M32.447,59.049c4.271,5.863,9.243,11.6,14.678,16.764c0.291,0.277,0.581,0.549,0.87,0.818
	c-0.348,1.08,0.746,1.344,0.792,1.354c0.858,0.197,1.597-0.529,1.055-1.336c-0.296-0.393-0.753-0.533-1.357-0.418
	c-0.289-0.27-0.579-0.541-0.87-0.818c-5.607-5.328-10.738-11.248-15.132-17.277c-7.352,6.043-14.425,10.484-19.809,12.109
	c-4.563,1.379-7.253,0.533-8.113-2.041l0.235,0.686c0.888,2.541,3.59,3.369,8.147,1.992C18.256,69.277,25.205,64.947,32.447,59.049"
	/>
<path fill="#4D4D4D" d="M11.008,65.709c5.807-1.752,13.692-6.971,21.674-13.942c5.274,7.069,11.577,14.247,18.387,20.717
	c0.291,0.275,0.581,0.549,0.813,0.957c-0.135,0.965,0.607,1.199,0.838,1.246c0.842,0.176,1.598-0.617,1.066-1.426
	c-0.292-0.4-0.748-0.531-1.354-0.391c-0.289-0.27-0.58-0.543-0.869-0.82c-6.981-6.633-13.459-13.986-18.864-21.182
	c-8.052,7.092-16.041,12.414-21.898,14.182c-4.606,1.391-7.181,0.367-7.767-2.494l0.154,0.711
	C3.81,66.096,6.401,67.098,11.008,65.709"/>
<path fill="#4D4D4D" d="M43.522,2.213l0.006-0.005L32.551,3.502l0.313,3.905c-9.584,6.516-20.13,17.589-26.272,27.588l-3.724-0.357
	L1.613,47.168l0.004-0.007c-0.448,5.668,4.244,6.802,12.765,2.034c11.712-6.553,26.212-21.762,32.386-33.971
	C51.549,5.77,49.932,0.894,43.522,2.213"/>
<path fill="none" stroke="#333333" stroke-miterlimit="10" d="M43.522,2.213l0.006-0.005L32.551,3.502l0.313,3.905
	c-9.584,6.516-20.13,17.589-26.272,27.588l-3.724-0.357L1.613,47.168l0.004-0.007c-0.448,5.668,4.244,6.802,12.765,2.034
	c11.712-6.553,26.212-21.762,32.386-33.971C51.549,5.77,49.932,0.894,43.522,2.213z"/>
<path fill="#4D4D4D" d="M33.483,12.465c-4.184,8.273-14.007,18.578-21.943,23.018c-7.936,4.44-10.979,1.333-6.796-6.939
	C8.928,20.271,18.75,9.967,26.687,5.526C34.623,1.087,37.666,4.193,33.483,12.465"/>
<path fill="none" stroke="#333333" stroke-miterlimit="10" d="M33.483,12.465c-4.184,8.273-14.007,18.578-21.943,23.018
	c-7.936,4.44-10.979,1.333-6.796-6.939C8.928,20.271,18.75,9.967,26.687,5.526C34.623,1.087,37.666,4.193,33.483,12.465z"/>
<path fill="#4CB389" d="M28.164,15.441c-2.635,5.21-8.822,11.701-13.821,14.498c-4.998,2.796-6.914,0.839-4.28-4.371
	c2.635-5.21,8.823-11.701,13.822-14.497C28.882,8.274,30.798,10.232,28.164,15.441"/>
<path fill="#262626" d="M28.909,26.008l-5.263,5.662l-1.564-1.453l3.81-4.099C26.695,25.255,28.046,25.206,28.909,26.008"/>
<rect x="25.808" y="28.333" transform="matrix(0.681 -0.7323 0.7323 0.681 -12.4248 30.2811)" fill="#262626" width="5.465" height="2.134"/>
<path fill="#262626" d="M32.153,31.644L28.196,35.9l-1.563-1.453l5.264-5.662l0.158,0.147
	C32.831,29.653,32.875,30.868,32.153,31.644"/>
</svg>
