<?xml version="1.0" encoding="utf-8"?>
<!-- Generator: Adobe Illustrator 16.0.2, SVG Export Plug-In . SVG Version: 6.00 Build 0)  -->
<!DOCTYPE svg PUBLIC "-//W3C//DTD SVG 1.1//EN" "http://www.w3.org/Graphics/SVG/1.1/DTD/svg11.dtd">
<svg version="1.1" id="Layer_1" xmlns="http://www.w3.org/2000/svg" xmlns:xlink="http://www.w3.org/1999/xlink" x="0px" y="0px"
	 width="225px" height="100px" viewBox="0 0 225 100" enable-background="new 0 0 225 100" xml:space="preserve">
<path fill="#4D4D4D" d="M10.367,7.648c2.184,0,3.953-1.605,3.953-3.582c0-1.976-1.77-3.579-3.953-3.579
	c-2.181,0-3.947,1.603-3.947,3.579C6.42,6.043,8.187,7.648,10.367,7.648 M19.393,12.247c0-1.806-1.614-3.266-3.602-3.266h-11.1
	c-1.986,0-3.599,1.46-3.599,3.266l0.011,13.184c0,0.788,0.703,1.426,1.57,1.426s1.57-0.638,1.57-1.426V13.382H4.91v32.225
	c0,1.181,1.056,2.137,2.36,2.137c1.298,0,2.353-0.956,2.353-2.137V27.962h1.289v17.641c0,1.182,1.054,2.141,2.359,2.141
	c1.296,0,2.352-0.959,2.352-2.141V13.382h0.635v12.001c0,0.789,0.701,1.429,1.572,1.429s1.573-0.64,1.573-1.429L19.393,12.247z"/>
<path fill="#4D4D4D" d="M33.111,7.648c2.184,0,3.954-1.605,3.954-3.582c0-1.976-1.771-3.579-3.954-3.579
	c-2.18,0-3.946,1.603-3.946,3.579C29.165,6.043,30.932,7.648,33.111,7.648 M42.138,12.247c0-1.806-1.613-3.266-3.603-3.266H27.437
	c-1.985,0-3.6,1.46-3.6,3.266l0.012,13.184c0,0.788,0.702,1.426,1.569,1.426c0.869,0,1.572-0.638,1.572-1.426V13.382h0.666v32.225
	c0,1.181,1.054,2.137,2.359,2.137c1.297,0,2.352-0.956,2.352-2.137V27.962h1.289v17.641c0,1.182,1.055,2.141,2.36,2.141
	c1.296,0,2.35-0.959,2.35-2.141V13.382h0.636v12.001c0,0.789,0.703,1.429,1.574,1.429c0.87,0,1.572-0.64,1.572-1.429L42.138,12.247z
	"/>
<path fill="#4D4D4D" d="M55.856,7.648c2.184,0,3.953-1.605,3.953-3.582c0-1.976-1.77-3.579-3.953-3.579
	c-2.18,0-3.946,1.603-3.946,3.579C51.91,6.043,53.677,7.648,55.856,7.648 M64.882,12.247c0-1.806-1.613-3.266-3.603-3.266H50.182
	c-1.987,0-3.6,1.46-3.6,3.266l0.012,13.184c0,0.788,0.702,1.426,1.57,1.426c0.867,0,1.57-0.638,1.57-1.426V13.382h0.665v32.225
	c0,1.181,1.056,2.137,2.36,2.137c1.298,0,2.352-0.956,2.352-2.137V27.962H56.4v17.641c0,1.182,1.055,2.141,2.36,2.141
	c1.298,0,2.352-0.959,2.352-2.141V13.382h0.635v12.001c0,0.789,0.703,1.429,1.572,1.429c0.871,0,1.574-0.64,1.574-1.429
	L64.882,12.247z"/>
<path fill="#4D4D4D" d="M78.601,7.648c2.185,0,3.954-1.605,3.954-3.582c0-1.976-1.77-3.579-3.954-3.579
	c-2.18,0-3.945,1.603-3.945,3.579C74.655,6.043,76.421,7.648,78.601,7.648 M87.627,12.247c0-1.806-1.613-3.266-3.602-3.266h-11.1
	c-1.985,0-3.599,1.46-3.599,3.266l0.012,13.184c0,0.788,0.702,1.426,1.57,1.426c0.867,0,1.571-0.638,1.571-1.426V13.382h0.664
	v32.225c0,1.181,1.056,2.137,2.36,2.137c1.297,0,2.353-0.956,2.353-2.137V27.962h1.289v17.641c0,1.182,1.054,2.141,2.359,2.141
	c1.298,0,2.353-0.959,2.353-2.141V13.382h0.634v12.001c0,0.789,0.702,1.429,1.573,1.429c0.87,0,1.572-0.64,1.572-1.429
	L87.627,12.247z"/>
<path fill="#4D4D4D" d="M101.346,7.648c2.185,0,3.954-1.605,3.954-3.582c0-1.976-1.77-3.579-3.954-3.579
	c-2.179,0-3.946,1.603-3.946,3.579C97.399,6.043,99.167,7.648,101.346,7.648 M110.371,12.247c0-1.806-1.612-3.266-3.602-3.266
	H95.671c-1.987,0-3.6,1.46-3.6,3.266l0.012,13.184c0,0.788,0.702,1.426,1.57,1.426s1.571-0.638,1.571-1.426V13.382h0.665v32.225
	c0,1.181,1.055,2.137,2.36,2.137c1.297,0,2.352-0.956,2.352-2.137V27.962h1.289v17.641c0,1.182,1.055,2.141,2.36,2.141
	c1.297,0,2.351-0.959,2.351-2.141V13.382h0.635v12.001c0,0.789,0.703,1.429,1.574,1.429c0.869,0,1.573-0.64,1.573-1.429
	L110.371,12.247z"/>
<path fill="#4D4D4D" d="M124.091,7.648c2.184,0,3.954-1.605,3.954-3.582c0-1.976-1.771-3.579-3.954-3.579
	c-2.18,0-3.946,1.603-3.946,3.579C120.145,6.043,121.911,7.648,124.091,7.648 M133.116,12.247c0-1.806-1.613-3.266-3.603-3.266
	h-11.099c-1.985,0-3.599,1.46-3.599,3.266l0.011,13.184c0,0.788,0.703,1.426,1.571,1.426c0.867,0,1.571-0.638,1.571-1.426V13.382
	h0.664v32.225c0,1.181,1.056,2.137,2.362,2.137c1.296,0,2.35-0.956,2.35-2.137V27.962h1.289v17.641c0,1.182,1.055,2.141,2.36,2.141
	c1.297,0,2.353-0.959,2.353-2.141V13.382h0.634v12.001c0,0.789,0.703,1.429,1.573,1.429s1.574-0.64,1.574-1.429L133.116,12.247z"/>
<path fill="#4D4D4D" d="M146.835,7.648c2.185,0,3.954-1.605,3.954-3.582c0-1.976-1.77-3.579-3.954-3.579
	c-2.179,0-3.945,1.603-3.945,3.579C142.89,6.043,144.656,7.648,146.835,7.648 M155.861,12.247c0-1.806-1.614-3.266-3.602-3.266
	h-11.1c-1.986,0-3.599,1.46-3.599,3.266l0.011,13.184c0,0.788,0.703,1.426,1.571,1.426c0.866,0,1.57-0.638,1.57-1.426V13.382h0.666
	v32.225c0,1.181,1.055,2.137,2.36,2.137c1.297,0,2.35-0.956,2.35-2.137V27.962h1.29v17.641c0,1.182,1.055,2.141,2.36,2.141
	c1.297,0,2.352-0.959,2.352-2.141V13.382h0.635v12.001c0,0.789,0.701,1.429,1.572,1.429s1.574-0.64,1.574-1.429L155.861,12.247z"/>
<path fill="#4D4D4D" d="M169.58,7.648c2.185,0,3.954-1.605,3.954-3.582c0-1.976-1.77-3.579-3.954-3.579
	c-2.179,0-3.945,1.603-3.945,3.579C165.635,6.043,167.401,7.648,169.58,7.648 M178.606,12.247c0-1.806-1.614-3.266-3.603-3.266
	h-11.099c-1.985,0-3.6,1.46-3.6,3.266l0.012,13.184c0,0.788,0.703,1.426,1.57,1.426c0.868,0,1.571-0.638,1.571-1.426V13.382h0.665
	v32.225c0,1.181,1.056,2.137,2.36,2.137c1.297,0,2.351-0.956,2.351-2.137V27.962h1.289v17.641c0,1.182,1.056,2.141,2.36,2.141
	c1.298,0,2.352-0.959,2.352-2.141V13.382h0.635v12.001c0,0.789,0.704,1.429,1.574,1.429s1.573-0.64,1.573-1.429L178.606,12.247z"/>
<path fill="#4D4D4D" d="M192.324,7.648c2.185,0,3.955-1.605,3.955-3.582c0-1.976-1.771-3.579-3.955-3.579
	c-2.178,0-3.944,1.603-3.944,3.579C188.38,6.043,190.146,7.648,192.324,7.648 M201.352,12.247c0-1.806-1.614-3.266-3.604-3.266
	h-11.099c-1.985,0-3.599,1.46-3.599,3.266l0.012,13.184c0,0.788,0.703,1.426,1.57,1.426s1.571-0.638,1.571-1.426V13.382h0.665
	v32.225c0,1.181,1.056,2.137,2.36,2.137c1.297,0,2.351-0.956,2.351-2.137V27.962h1.289v17.641c0,1.182,1.056,2.141,2.36,2.141
	c1.298,0,2.353-0.959,2.353-2.141V13.382h0.634v12.001c0,0.789,0.702,1.429,1.573,1.429c0.87,0,1.574-0.64,1.574-1.429
	L201.352,12.247z"/>
<path fill="#4D4D4D" d="M215.069,7.648c2.186,0,3.954-1.605,3.954-3.582c0-1.976-1.769-3.579-3.954-3.579
	c-2.179,0-3.945,1.603-3.945,3.579C211.124,6.043,212.891,7.648,215.069,7.648 M224.097,12.247c0-1.806-1.614-3.266-3.604-3.266
	h-11.098c-1.984,0-3.6,1.46-3.6,3.266l0.012,13.184c0,0.788,0.704,1.426,1.571,1.426c0.866,0,1.57-0.638,1.57-1.426V13.382h0.666
	v32.225c0,1.181,1.056,2.137,2.36,2.137c1.297,0,2.351-0.956,2.351-2.137V27.962h1.289v17.641c0,1.182,1.055,2.141,2.36,2.141
	c1.297,0,2.351-0.959,2.351-2.141V13.382h0.636v12.001c0,0.789,0.703,1.429,1.574,1.429c0.869,0,1.572-0.64,1.572-1.429
	L224.097,12.247z"/>
<path fill="#4D4D4D" d="M10.367,59.154c2.184,0,3.953-1.605,3.953-3.582s-1.77-3.579-3.953-3.579c-2.181,0-3.947,1.603-3.947,3.579
	S8.187,59.154,10.367,59.154 M19.393,63.754c0-1.806-1.614-3.267-3.602-3.267h-11.1c-1.986,0-3.599,1.461-3.599,3.267l0.011,13.184
	c0,0.789,0.703,1.426,1.57,1.426s1.57-0.637,1.57-1.426v-12.05H4.91v32.227c0,1.18,1.056,2.136,2.36,2.136
	c1.298,0,2.353-0.956,2.353-2.136V79.468h1.289v17.642c0,1.182,1.054,2.141,2.359,2.141c1.296,0,2.352-0.959,2.352-2.141V64.888
	h0.635v12.001c0,0.79,0.701,1.43,1.572,1.43s1.573-0.64,1.573-1.43L19.393,63.754z"/>
<path fill="#4D4D4D" d="M33.111,59.154c2.184,0,3.954-1.605,3.954-3.582s-1.771-3.579-3.954-3.579c-2.18,0-3.946,1.603-3.946,3.579
	S30.932,59.154,33.111,59.154 M42.138,63.754c0-1.806-1.613-3.267-3.603-3.267H27.437c-1.985,0-3.6,1.461-3.6,3.267l0.012,13.184
	c0,0.789,0.702,1.426,1.569,1.426c0.869,0,1.572-0.637,1.572-1.426v-12.05h0.666v32.227c0,1.18,1.054,2.136,2.359,2.136
	c1.297,0,2.352-0.956,2.352-2.136V79.468h1.289v17.642c0,1.182,1.055,2.141,2.36,2.141c1.296,0,2.35-0.959,2.35-2.141V64.888h0.636
	v12.001c0,0.79,0.703,1.43,1.574,1.43c0.87,0,1.572-0.64,1.572-1.43L42.138,63.754z"/>
<path fill="#4D4D4D" d="M55.856,59.154c2.184,0,3.953-1.605,3.953-3.582s-1.77-3.579-3.953-3.579c-2.18,0-3.946,1.603-3.946,3.579
	S53.677,59.154,55.856,59.154 M64.882,63.754c0-1.806-1.613-3.267-3.603-3.267H50.182c-1.987,0-3.6,1.461-3.6,3.267l0.012,13.184
	c0,0.789,0.702,1.426,1.57,1.426c0.867,0,1.57-0.637,1.57-1.426v-12.05h0.665v32.227c0,1.18,1.056,2.136,2.36,2.136
	c1.298,0,2.352-0.956,2.352-2.136V79.468H56.4v17.642c0,1.182,1.055,2.141,2.36,2.141c1.298,0,2.352-0.959,2.352-2.141V64.888h0.635
	v12.001c0,0.79,0.703,1.43,1.572,1.43c0.871,0,1.574-0.64,1.574-1.43L64.882,63.754z"/>
<path fill="#4D4D4D" d="M78.601,59.154c2.185,0,3.954-1.605,3.954-3.582s-1.77-3.579-3.954-3.579c-2.18,0-3.945,1.603-3.945,3.579
	S76.421,59.154,78.601,59.154 M87.627,63.754c0-1.806-1.613-3.267-3.602-3.267h-11.1c-1.985,0-3.599,1.461-3.599,3.267l0.012,13.184
	c0,0.789,0.702,1.426,1.57,1.426c0.867,0,1.571-0.637,1.571-1.426v-12.05h0.664v32.227c0,1.18,1.056,2.136,2.36,2.136
	c1.297,0,2.353-0.956,2.353-2.136V79.468h1.289v17.642c0,1.182,1.054,2.141,2.359,2.141c1.298,0,2.353-0.959,2.353-2.141V64.888
	h0.634v12.001c0,0.79,0.702,1.43,1.573,1.43c0.87,0,1.572-0.64,1.572-1.43L87.627,63.754z"/>
<path fill="#4D4D4D" d="M101.346,59.154c2.185,0,3.954-1.605,3.954-3.582s-1.77-3.579-3.954-3.579c-2.179,0-3.946,1.603-3.946,3.579
	S99.167,59.154,101.346,59.154 M110.371,63.754c0-1.806-1.612-3.267-3.602-3.267H95.671c-1.987,0-3.6,1.461-3.6,3.267l0.012,13.184
	c0,0.789,0.702,1.426,1.57,1.426s1.571-0.637,1.571-1.426v-12.05h0.665v32.227c0,1.18,1.055,2.136,2.36,2.136
	c1.297,0,2.352-0.956,2.352-2.136V79.468h1.289v17.642c0,1.182,1.055,2.141,2.36,2.141c1.297,0,2.351-0.959,2.351-2.141V64.888
	h0.635v12.001c0,0.79,0.703,1.43,1.574,1.43c0.869,0,1.573-0.64,1.573-1.43L110.371,63.754z"/>
<path fill="#4D4D4D" d="M124.091,59.154c2.184,0,3.954-1.605,3.954-3.582s-1.771-3.579-3.954-3.579c-2.18,0-3.946,1.603-3.946,3.579
	S121.911,59.154,124.091,59.154 M133.116,63.754c0-1.806-1.613-3.267-3.603-3.267h-11.099c-1.985,0-3.599,1.461-3.599,3.267
	l0.011,13.184c0,0.789,0.703,1.426,1.571,1.426c0.867,0,1.571-0.637,1.571-1.426v-12.05h0.664v32.227
	c0,1.18,1.056,2.136,2.362,2.136c1.296,0,2.35-0.956,2.35-2.136V79.468h1.289v17.642c0,1.182,1.055,2.141,2.36,2.141
	c1.297,0,2.353-0.959,2.353-2.141V64.888h0.634v12.001c0,0.79,0.703,1.43,1.573,1.43s1.574-0.64,1.574-1.43L133.116,63.754z"/>
<path fill="#4D4D4D" d="M146.835,59.154c2.185,0,3.954-1.605,3.954-3.582s-1.77-3.579-3.954-3.579c-2.179,0-3.945,1.603-3.945,3.579
	S144.656,59.154,146.835,59.154 M155.861,63.754c0-1.806-1.614-3.267-3.602-3.267h-11.1c-1.986,0-3.599,1.461-3.599,3.267
	l0.011,13.184c0,0.789,0.703,1.426,1.571,1.426c0.866,0,1.57-0.637,1.57-1.426v-12.05h0.666v32.227c0,1.18,1.055,2.136,2.36,2.136
	c1.297,0,2.35-0.956,2.35-2.136V79.468h1.29v17.642c0,1.182,1.055,2.141,2.36,2.141c1.297,0,2.352-0.959,2.352-2.141V64.888h0.635
	v12.001c0,0.79,0.701,1.43,1.572,1.43s1.574-0.64,1.574-1.43L155.861,63.754z"/>
<path fill="#858585" d="M169.58,59.154c2.185,0,3.954-1.605,3.954-3.582s-1.77-3.579-3.954-3.579c-2.179,0-3.945,1.603-3.945,3.579
	S167.401,59.154,169.58,59.154 M178.606,63.754c0-1.806-1.614-3.267-3.603-3.267h-11.099c-1.985,0-3.6,1.461-3.6,3.267l0.012,13.184
	c0,0.789,0.703,1.426,1.57,1.426c0.868,0,1.571-0.637,1.571-1.426v-12.05h0.665v32.227c0,1.18,1.056,2.136,2.36,2.136
	c1.297,0,2.351-0.956,2.351-2.136V79.468h1.289v17.642c0,1.182,1.056,2.141,2.36,2.141c1.298,0,2.352-0.959,2.352-2.141V64.888
	h0.635v12.001c0,0.79,0.704,1.43,1.574,1.43s1.573-0.64,1.573-1.43L178.606,63.754z"/>
<path fill="#858585" d="M192.324,59.154c2.185,0,3.955-1.605,3.955-3.582s-1.771-3.579-3.955-3.579
	c-2.178,0-3.944,1.603-3.944,3.579S190.146,59.154,192.324,59.154 M201.352,63.754c0-1.806-1.614-3.267-3.604-3.267h-11.099
	c-1.985,0-3.599,1.461-3.599,3.267l0.012,13.184c0,0.789,0.703,1.426,1.57,1.426s1.571-0.637,1.571-1.426v-12.05h0.665v32.227
	c0,1.18,1.056,2.136,2.36,2.136c1.297,0,2.351-0.956,2.351-2.136V79.468h1.289v17.642c0,1.182,1.056,2.141,2.36,2.141
	c1.298,0,2.353-0.959,2.353-2.141V64.888h0.634v12.001c0,0.79,0.702,1.43,1.573,1.43c0.87,0,1.574-0.64,1.574-1.43L201.352,63.754z"
	/>
<path fill="#858585" d="M215.069,59.154c2.186,0,3.954-1.605,3.954-3.582s-1.769-3.579-3.954-3.579
	c-2.179,0-3.945,1.603-3.945,3.579S212.891,59.154,215.069,59.154 M224.097,63.754c0-1.806-1.614-3.267-3.604-3.267h-11.098
	c-1.984,0-3.6,1.461-3.6,3.267l0.012,13.184c0,0.789,0.704,1.426,1.571,1.426c0.866,0,1.57-0.637,1.57-1.426v-12.05h0.666v32.227
	c0,1.18,1.056,2.136,2.36,2.136c1.297,0,2.351-0.956,2.351-2.136V79.468h1.289v17.642c0,1.182,1.055,2.141,2.36,2.141
	c1.297,0,2.351-0.959,2.351-2.141V64.888h0.636v12.001c0,0.79,0.703,1.43,1.574,1.43c0.869,0,1.572-0.64,1.572-1.43L224.097,63.754z
	"/>
</svg>
